<svg xmlns="http://www.w3.org/2000/svg" xmlns:xlink="http://www.w3.org/1999/xlink" width="1366" zoomAndPan="magnify" viewBox="0 0 1024.5 576" height="768" preserveAspectRatio="xMidYMid meet" version="1.0"><defs><clipPath id="296fb9d15c"><path d="M 0 0.722656 L 517 0.722656 L 517 518 L 0 518 Z M 0 0.722656 " clip-rule="nonzero"/></clipPath><clipPath id="bb9a9ce877"><path d="M -0.351562 259.199219 C -0.351562 254.96875 -0.246094 250.742188 -0.0390625 246.515625 C 0.167969 242.289062 0.480469 238.074219 0.894531 233.863281 C 1.308594 229.652344 1.828125 225.457031 2.445312 221.273438 C 3.066406 217.085938 3.792969 212.921875 4.617188 208.773438 C 5.441406 204.621094 6.371094 200.496094 7.398438 196.394531 C 8.425781 192.289062 9.554688 188.214844 10.78125 184.167969 C 12.011719 180.117188 13.335938 176.101562 14.761719 172.121094 C 16.1875 168.136719 17.710938 164.191406 19.332031 160.28125 C 20.949219 156.375 22.664062 152.507812 24.472656 148.683594 C 26.28125 144.859375 28.183594 141.082031 30.179688 137.351562 C 32.171875 133.621094 34.257812 129.941406 36.433594 126.3125 C 38.609375 122.6875 40.871094 119.113281 43.222656 115.597656 C 45.574219 112.078125 48.011719 108.621094 50.53125 105.222656 C 53.050781 101.824219 55.652344 98.492188 58.339844 95.222656 C 61.023438 91.953125 63.785156 88.75 66.628906 85.617188 C 69.46875 82.480469 72.386719 79.417969 75.378906 76.425781 C 78.371094 73.4375 81.433594 70.519531 84.570312 67.679688 C 87.703125 64.839844 90.90625 62.078125 94.179688 59.394531 C 97.449219 56.710938 100.785156 54.105469 104.183594 51.585938 C 107.582031 49.066406 111.039062 46.632812 114.558594 44.28125 C 118.078125 41.933594 121.652344 39.667969 125.28125 37.496094 C 128.910156 35.320312 132.589844 33.234375 136.324219 31.242188 C 140.054688 29.246094 143.832031 27.347656 147.65625 25.539062 C 151.484375 23.730469 155.351562 22.015625 159.261719 20.394531 C 163.167969 18.777344 167.117188 17.253906 171.101562 15.832031 C 175.085938 14.40625 179.101562 13.078125 183.148438 11.851562 C 187.199219 10.621094 191.277344 9.496094 195.382812 8.46875 C 199.484375 7.4375 203.613281 6.511719 207.761719 5.6875 C 211.914062 4.863281 216.082031 4.140625 220.265625 3.519531 C 224.453125 2.898438 228.652344 2.378906 232.863281 1.964844 C 237.074219 1.550781 241.292969 1.238281 245.519531 1.03125 C 249.746094 0.824219 253.972656 0.722656 258.207031 0.722656 C 262.4375 0.722656 266.664062 0.824219 270.890625 1.03125 C 275.117188 1.238281 279.335938 1.550781 283.546875 1.964844 C 287.757812 2.378906 291.957031 2.898438 296.144531 3.519531 C 300.328125 4.140625 304.496094 4.863281 308.648438 5.6875 C 312.796875 6.511719 316.925781 7.4375 321.03125 8.46875 C 325.132812 9.496094 329.210938 10.621094 333.261719 11.851562 C 337.308594 13.078125 341.328125 14.40625 345.308594 15.832031 C 349.292969 17.253906 353.242188 18.777344 357.152344 20.394531 C 361.058594 22.015625 364.925781 23.730469 368.753906 25.539062 C 372.578125 27.347656 376.355469 29.246094 380.089844 31.242188 C 383.820312 33.234375 387.5 35.320312 391.128906 37.496094 C 394.757812 39.667969 398.332031 41.933594 401.851562 44.28125 C 405.371094 46.632812 408.828125 49.066406 412.226562 51.585938 C 415.625 54.105469 418.960938 56.710938 422.230469 59.394531 C 425.503906 62.078125 428.707031 64.839844 431.839844 67.679688 C 434.976562 70.519531 438.039062 73.4375 441.03125 76.425781 C 444.023438 79.417969 446.941406 82.480469 449.78125 85.617188 C 452.625 88.75 455.386719 91.953125 458.070312 95.222656 C 460.757812 98.492188 463.359375 101.824219 465.878906 105.222656 C 468.402344 108.621094 470.835938 112.078125 473.1875 115.597656 C 475.539062 119.113281 477.800781 122.6875 479.976562 126.3125 C 482.152344 129.941406 484.238281 133.621094 486.230469 137.351562 C 488.226562 141.082031 490.128906 144.859375 491.9375 148.683594 C 493.746094 152.507812 495.460938 156.375 497.082031 160.28125 C 498.699219 164.191406 500.222656 168.136719 501.648438 172.121094 C 503.074219 176.101562 504.398438 180.117188 505.628906 184.167969 C 506.855469 188.214844 507.984375 192.289062 509.011719 196.394531 C 510.042969 200.496094 510.96875 204.621094 511.792969 208.773438 C 512.621094 212.921875 513.34375 217.085938 513.964844 221.273438 C 514.585938 225.457031 515.101562 229.652344 515.515625 233.863281 C 515.933594 238.074219 516.242188 242.289062 516.449219 246.515625 C 516.65625 250.742188 516.761719 254.96875 516.761719 259.199219 C 516.761719 263.429688 516.65625 267.65625 516.449219 271.882812 C 516.242188 276.105469 515.933594 280.324219 515.515625 284.535156 C 515.101562 288.742188 514.585938 292.941406 513.964844 297.125 C 513.34375 301.308594 512.621094 305.476562 511.792969 309.625 C 510.96875 313.773438 510.042969 317.898438 509.011719 322.003906 C 507.984375 326.105469 506.855469 330.183594 505.628906 334.230469 C 504.398438 338.277344 503.074219 342.292969 501.648438 346.277344 C 500.222656 350.257812 498.699219 354.203125 497.082031 358.113281 C 495.460938 362.019531 493.746094 365.886719 491.9375 369.710938 C 490.128906 373.535156 488.226562 377.3125 486.230469 381.042969 C 484.238281 384.773438 482.152344 388.453125 479.976562 392.082031 C 477.800781 395.710938 475.539062 399.28125 473.1875 402.800781 C 470.835938 406.316406 468.402344 409.773438 465.878906 413.171875 C 463.359375 416.570312 460.757812 419.902344 458.074219 423.175781 C 455.386719 426.445312 452.625 429.644531 449.78125 432.78125 C 446.941406 435.914062 444.023438 438.976562 441.03125 441.96875 C 438.039062 444.960938 434.976562 447.875 431.839844 450.71875 C 428.707031 453.558594 425.503906 456.320312 422.230469 459.003906 C 418.960938 461.6875 415.625 464.289062 412.226562 466.808594 C 408.828125 469.328125 405.371094 471.765625 401.851562 474.113281 C 398.332031 476.464844 394.757812 478.726562 391.128906 480.902344 C 387.5 483.074219 383.820312 485.160156 380.089844 487.15625 C 376.355469 489.148438 372.578125 491.050781 368.753906 492.859375 C 364.925781 494.667969 361.058594 496.382812 357.152344 498 C 353.242188 499.617188 349.292969 501.140625 345.308594 502.566406 C 341.328125 503.992188 337.308594 505.316406 333.261719 506.546875 C 329.210938 507.773438 325.132812 508.902344 321.03125 509.929688 C 316.925781 510.957031 312.796875 511.882812 308.648438 512.707031 C 304.496094 513.535156 300.328125 514.257812 296.144531 514.878906 C 291.957031 515.5 287.757812 516.015625 283.546875 516.429688 C 279.335938 516.84375 275.117188 517.15625 270.890625 517.363281 C 266.664062 517.570312 262.4375 517.675781 258.207031 517.675781 C 253.972656 517.675781 249.746094 517.570312 245.519531 517.363281 C 241.292969 517.15625 237.074219 516.84375 232.863281 516.429688 C 228.652344 516.015625 224.453125 515.5 220.265625 514.878906 C 216.082031 514.257812 211.914062 513.535156 207.761719 512.707031 C 203.613281 511.882812 199.484375 510.957031 195.382812 509.929688 C 191.277344 508.902344 187.199219 507.773438 183.148438 506.546875 C 179.101562 505.316406 175.085938 503.992188 171.101562 502.566406 C 167.117188 501.140625 163.167969 499.617188 159.261719 498 C 155.351562 496.382812 151.484375 494.667969 147.65625 492.859375 C 143.832031 491.050781 140.054688 489.148438 136.324219 487.15625 C 132.589844 485.160156 128.910156 483.074219 125.28125 480.902344 C 121.652344 478.726562 118.078125 476.464844 114.558594 474.113281 C 111.039062 471.765625 107.582031 469.328125 104.183594 466.808594 C 100.785156 464.289062 97.449219 461.6875 94.179688 459.003906 C 90.90625 456.320312 87.703125 453.558594 84.570312 450.71875 C 81.433594 447.875 78.371094 444.960938 75.378906 441.96875 C 72.386719 438.976562 69.46875 435.914062 66.628906 432.78125 C 63.785156 429.644531 61.023438 426.445312 58.339844 423.175781 C 55.652344 419.902344 53.050781 416.570312 50.53125 413.171875 C 48.011719 409.773438 45.574219 406.316406 43.222656 402.800781 C 40.871094 399.28125 38.609375 395.710938 36.433594 392.082031 C 34.257812 388.453125 32.171875 384.773438 30.179688 381.042969 C 28.183594 377.3125 26.28125 373.535156 24.472656 369.710938 C 22.664062 365.886719 20.949219 362.019531 19.332031 358.113281 C 17.710938 354.203125 16.1875 350.257812 14.761719 346.277344 C 13.335938 342.292969 12.011719 338.277344 10.78125 334.230469 C 9.554688 330.183594 8.425781 326.105469 7.398438 322.003906 C 6.371094 317.898438 5.441406 313.773438 4.617188 309.625 C 3.792969 305.476562 3.066406 301.308594 2.445312 297.125 C 1.828125 292.941406 1.308594 288.742188 0.894531 284.535156 C 0.480469 280.324219 0.167969 276.105469 -0.0390625 271.882812 C -0.246094 267.65625 -0.351562 263.429688 -0.351562 259.199219 Z M -0.351562 259.199219 " clip-rule="nonzero"/></clipPath><clipPath id="1a826fa495"><path d="M 34 338 L 447 338 L 447 518 L 34 518 Z M 34 338 " clip-rule="nonzero"/></clipPath><clipPath id="e42572acb3"><path d="M -0.351562 259.199219 C -0.351562 254.96875 -0.246094 250.742188 -0.0390625 246.515625 C 0.167969 242.289062 0.480469 238.074219 0.894531 233.863281 C 1.308594 229.652344 1.828125 225.457031 2.445312 221.273438 C 3.066406 217.085938 3.792969 212.921875 4.617188 208.773438 C 5.441406 204.621094 6.371094 200.496094 7.398438 196.394531 C 8.425781 192.289062 9.554688 188.214844 10.78125 184.167969 C 12.011719 180.117188 13.335938 176.101562 14.761719 172.121094 C 16.1875 168.136719 17.710938 164.191406 19.332031 160.28125 C 20.949219 156.375 22.664062 152.507812 24.472656 148.683594 C 26.28125 144.859375 28.183594 141.082031 30.179688 137.351562 C 32.171875 133.621094 34.257812 129.941406 36.433594 126.3125 C 38.609375 122.6875 40.871094 119.113281 43.222656 115.597656 C 45.574219 112.078125 48.011719 108.621094 50.53125 105.222656 C 53.050781 101.824219 55.652344 98.492188 58.339844 95.222656 C 61.023438 91.953125 63.785156 88.75 66.628906 85.617188 C 69.46875 82.480469 72.386719 79.417969 75.378906 76.425781 C 78.371094 73.4375 81.433594 70.519531 84.570312 67.679688 C 87.703125 64.839844 90.90625 62.078125 94.179688 59.394531 C 97.449219 56.710938 100.785156 54.105469 104.183594 51.585938 C 107.582031 49.066406 111.039062 46.632812 114.558594 44.28125 C 118.078125 41.933594 121.652344 39.667969 125.28125 37.496094 C 128.910156 35.320312 132.589844 33.234375 136.324219 31.242188 C 140.054688 29.246094 143.832031 27.347656 147.65625 25.539062 C 151.484375 23.730469 155.351562 22.015625 159.261719 20.394531 C 163.167969 18.777344 167.117188 17.253906 171.101562 15.832031 C 175.085938 14.40625 179.101562 13.078125 183.148438 11.851562 C 187.199219 10.621094 191.277344 9.496094 195.382812 8.46875 C 199.484375 7.4375 203.613281 6.511719 207.761719 5.6875 C 211.914062 4.863281 216.082031 4.140625 220.265625 3.519531 C 224.453125 2.898438 228.652344 2.378906 232.863281 1.964844 C 237.074219 1.550781 241.292969 1.238281 245.519531 1.03125 C 249.746094 0.824219 253.972656 0.722656 258.207031 0.722656 C 262.4375 0.722656 266.664062 0.824219 270.890625 1.03125 C 275.117188 1.238281 279.335938 1.550781 283.546875 1.964844 C 287.757812 2.378906 291.957031 2.898438 296.144531 3.519531 C 300.328125 4.140625 304.496094 4.863281 308.648438 5.6875 C 312.796875 6.511719 316.925781 7.4375 321.03125 8.46875 C 325.132812 9.496094 329.210938 10.621094 333.261719 11.851562 C 337.308594 13.078125 341.328125 14.40625 345.308594 15.832031 C 349.292969 17.253906 353.242188 18.777344 357.152344 20.394531 C 361.058594 22.015625 364.925781 23.730469 368.753906 25.539062 C 372.578125 27.347656 376.355469 29.246094 380.089844 31.242188 C 383.820312 33.234375 387.5 35.320312 391.128906 37.496094 C 394.757812 39.667969 398.332031 41.933594 401.851562 44.28125 C 405.371094 46.632812 408.828125 49.066406 412.226562 51.585938 C 415.625 54.105469 418.960938 56.710938 422.230469 59.394531 C 425.503906 62.078125 428.707031 64.839844 431.839844 67.679688 C 434.976562 70.519531 438.039062 73.4375 441.03125 76.425781 C 444.023438 79.417969 446.941406 82.480469 449.78125 85.617188 C 452.625 88.75 455.386719 91.953125 458.070312 95.222656 C 460.757812 98.492188 463.359375 101.824219 465.878906 105.222656 C 468.402344 108.621094 470.835938 112.078125 473.1875 115.597656 C 475.539062 119.113281 477.800781 122.6875 479.976562 126.3125 C 482.152344 129.941406 484.238281 133.621094 486.230469 137.351562 C 488.226562 141.082031 490.128906 144.859375 491.9375 148.683594 C 493.746094 152.507812 495.460938 156.375 497.082031 160.28125 C 498.699219 164.191406 500.222656 168.136719 501.648438 172.121094 C 503.074219 176.101562 504.398438 180.117188 505.628906 184.167969 C 506.855469 188.214844 507.984375 192.289062 509.011719 196.394531 C 510.042969 200.496094 510.96875 204.621094 511.792969 208.773438 C 512.621094 212.921875 513.34375 217.085938 513.964844 221.273438 C 514.585938 225.457031 515.101562 229.652344 515.515625 233.863281 C 515.933594 238.074219 516.242188 242.289062 516.449219 246.515625 C 516.65625 250.742188 516.761719 254.96875 516.761719 259.199219 C 516.761719 263.429688 516.65625 267.65625 516.449219 271.882812 C 516.242188 276.105469 515.933594 280.324219 515.515625 284.535156 C 515.101562 288.742188 514.585938 292.941406 513.964844 297.125 C 513.34375 301.308594 512.621094 305.476562 511.792969 309.625 C 510.96875 313.773438 510.042969 317.898438 509.011719 322.003906 C 507.984375 326.105469 506.855469 330.183594 505.628906 334.230469 C 504.398438 338.277344 503.074219 342.292969 501.648438 346.277344 C 500.222656 350.257812 498.699219 354.203125 497.082031 358.113281 C 495.460938 362.019531 493.746094 365.886719 491.9375 369.710938 C 490.128906 373.535156 488.226562 377.3125 486.230469 381.042969 C 484.238281 384.773438 482.152344 388.453125 479.976562 392.082031 C 477.800781 395.710938 475.539062 399.28125 473.1875 402.800781 C 470.835938 406.316406 468.402344 409.773438 465.878906 413.171875 C 463.359375 416.570312 460.757812 419.902344 458.074219 423.175781 C 455.386719 426.445312 452.625 429.644531 449.78125 432.78125 C 446.941406 435.914062 444.023438 438.976562 441.03125 441.96875 C 438.039062 444.960938 434.976562 447.875 431.839844 450.71875 C 428.707031 453.558594 425.503906 456.320312 422.230469 459.003906 C 418.960938 461.6875 415.625 464.289062 412.226562 466.808594 C 408.828125 469.328125 405.371094 471.765625 401.851562 474.113281 C 398.332031 476.464844 394.757812 478.726562 391.128906 480.902344 C 387.5 483.074219 383.820312 485.160156 380.089844 487.15625 C 376.355469 489.148438 372.578125 491.050781 368.753906 492.859375 C 364.925781 494.667969 361.058594 496.382812 357.152344 498 C 353.242188 499.617188 349.292969 501.140625 345.308594 502.566406 C 341.328125 503.992188 337.308594 505.316406 333.261719 506.546875 C 329.210938 507.773438 325.132812 508.902344 321.03125 509.929688 C 316.925781 510.957031 312.796875 511.882812 308.648438 512.707031 C 304.496094 513.535156 300.328125 514.257812 296.144531 514.878906 C 291.957031 515.5 287.757812 516.015625 283.546875 516.429688 C 279.335938 516.84375 275.117188 517.15625 270.890625 517.363281 C 266.664062 517.570312 262.4375 517.675781 258.207031 517.675781 C 253.972656 517.675781 249.746094 517.570312 245.519531 517.363281 C 241.292969 517.15625 237.074219 516.84375 232.863281 516.429688 C 228.652344 516.015625 224.453125 515.5 220.265625 514.878906 C 216.082031 514.257812 211.914062 513.535156 207.761719 512.707031 C 203.613281 511.882812 199.484375 510.957031 195.382812 509.929688 C 191.277344 508.902344 187.199219 507.773438 183.148438 506.546875 C 179.101562 505.316406 175.085938 503.992188 171.101562 502.566406 C 167.117188 501.140625 163.167969 499.617188 159.261719 498 C 155.351562 496.382812 151.484375 494.667969 147.65625 492.859375 C 143.832031 491.050781 140.054688 489.148438 136.324219 487.15625 C 132.589844 485.160156 128.910156 483.074219 125.28125 480.902344 C 121.652344 478.726562 118.078125 476.464844 114.558594 474.113281 C 111.039062 471.765625 107.582031 469.328125 104.183594 466.808594 C 100.785156 464.289062 97.449219 461.6875 94.179688 459.003906 C 90.90625 456.320312 87.703125 453.558594 84.570312 450.71875 C 81.433594 447.875 78.371094 444.960938 75.378906 441.96875 C 72.386719 438.976562 69.46875 435.914062 66.628906 432.78125 C 63.785156 429.644531 61.023438 426.445312 58.339844 423.175781 C 55.652344 419.902344 53.050781 416.570312 50.53125 413.171875 C 48.011719 409.773438 45.574219 406.316406 43.222656 402.800781 C 40.871094 399.28125 38.609375 395.710938 36.433594 392.082031 C 34.257812 388.453125 32.171875 384.773438 30.179688 381.042969 C 28.183594 377.3125 26.28125 373.535156 24.472656 369.710938 C 22.664062 365.886719 20.949219 362.019531 19.332031 358.113281 C 17.710938 354.203125 16.1875 350.257812 14.761719 346.277344 C 13.335938 342.292969 12.011719 338.277344 10.78125 334.230469 C 9.554688 330.183594 8.425781 326.105469 7.398438 322.003906 C 6.371094 317.898438 5.441406 313.773438 4.617188 309.625 C 3.792969 305.476562 3.066406 301.308594 2.445312 297.125 C 1.828125 292.941406 1.308594 288.742188 0.894531 284.535156 C 0.480469 280.324219 0.167969 276.105469 -0.0390625 271.882812 C -0.246094 267.65625 -0.351562 263.429688 -0.351562 259.199219 Z M -0.351562 259.199219 " clip-rule="nonzero"/></clipPath><clipPath id="67e20e246f"><path d="M 198 332 L 317 332 L 317 518 L 198 518 Z M 198 332 " clip-rule="nonzero"/></clipPath><clipPath id="5199c21262"><path d="M -0.351562 259.199219 C -0.351562 254.96875 -0.246094 250.742188 -0.0390625 246.515625 C 0.167969 242.289062 0.480469 238.074219 0.894531 233.863281 C 1.308594 229.652344 1.828125 225.457031 2.445312 221.273438 C 3.066406 217.085938 3.792969 212.921875 4.617188 208.773438 C 5.441406 204.621094 6.371094 200.496094 7.398438 196.394531 C 8.425781 192.289062 9.554688 188.214844 10.78125 184.167969 C 12.011719 180.117188 13.335938 176.101562 14.761719 172.121094 C 16.1875 168.136719 17.710938 164.191406 19.332031 160.28125 C 20.949219 156.375 22.664062 152.507812 24.472656 148.683594 C 26.28125 144.859375 28.183594 141.082031 30.179688 137.351562 C 32.171875 133.621094 34.257812 129.941406 36.433594 126.3125 C 38.609375 122.6875 40.871094 119.113281 43.222656 115.597656 C 45.574219 112.078125 48.011719 108.621094 50.53125 105.222656 C 53.050781 101.824219 55.652344 98.492188 58.339844 95.222656 C 61.023438 91.953125 63.785156 88.75 66.628906 85.617188 C 69.46875 82.480469 72.386719 79.417969 75.378906 76.425781 C 78.371094 73.4375 81.433594 70.519531 84.570312 67.679688 C 87.703125 64.839844 90.90625 62.078125 94.179688 59.394531 C 97.449219 56.710938 100.785156 54.105469 104.183594 51.585938 C 107.582031 49.066406 111.039062 46.632812 114.558594 44.28125 C 118.078125 41.933594 121.652344 39.667969 125.28125 37.496094 C 128.910156 35.320312 132.589844 33.234375 136.324219 31.242188 C 140.054688 29.246094 143.832031 27.347656 147.65625 25.539062 C 151.484375 23.730469 155.351562 22.015625 159.261719 20.394531 C 163.167969 18.777344 167.117188 17.253906 171.101562 15.832031 C 175.085938 14.40625 179.101562 13.078125 183.148438 11.851562 C 187.199219 10.621094 191.277344 9.496094 195.382812 8.46875 C 199.484375 7.4375 203.613281 6.511719 207.761719 5.6875 C 211.914062 4.863281 216.082031 4.140625 220.265625 3.519531 C 224.453125 2.898438 228.652344 2.378906 232.863281 1.964844 C 237.074219 1.550781 241.292969 1.238281 245.519531 1.03125 C 249.746094 0.824219 253.972656 0.722656 258.207031 0.722656 C 262.4375 0.722656 266.664062 0.824219 270.890625 1.03125 C 275.117188 1.238281 279.335938 1.550781 283.546875 1.964844 C 287.757812 2.378906 291.957031 2.898438 296.144531 3.519531 C 300.328125 4.140625 304.496094 4.863281 308.648438 5.6875 C 312.796875 6.511719 316.925781 7.4375 321.03125 8.46875 C 325.132812 9.496094 329.210938 10.621094 333.261719 11.851562 C 337.308594 13.078125 341.328125 14.40625 345.308594 15.832031 C 349.292969 17.253906 353.242188 18.777344 357.152344 20.394531 C 361.058594 22.015625 364.925781 23.730469 368.753906 25.539062 C 372.578125 27.347656 376.355469 29.246094 380.089844 31.242188 C 383.820312 33.234375 387.5 35.320312 391.128906 37.496094 C 394.757812 39.667969 398.332031 41.933594 401.851562 44.28125 C 405.371094 46.632812 408.828125 49.066406 412.226562 51.585938 C 415.625 54.105469 418.960938 56.710938 422.230469 59.394531 C 425.503906 62.078125 428.707031 64.839844 431.839844 67.679688 C 434.976562 70.519531 438.039062 73.4375 441.03125 76.425781 C 444.023438 79.417969 446.941406 82.480469 449.78125 85.617188 C 452.625 88.75 455.386719 91.953125 458.070312 95.222656 C 460.757812 98.492188 463.359375 101.824219 465.878906 105.222656 C 468.402344 108.621094 470.835938 112.078125 473.1875 115.597656 C 475.539062 119.113281 477.800781 122.6875 479.976562 126.3125 C 482.152344 129.941406 484.238281 133.621094 486.230469 137.351562 C 488.226562 141.082031 490.128906 144.859375 491.9375 148.683594 C 493.746094 152.507812 495.460938 156.375 497.082031 160.28125 C 498.699219 164.191406 500.222656 168.136719 501.648438 172.121094 C 503.074219 176.101562 504.398438 180.117188 505.628906 184.167969 C 506.855469 188.214844 507.984375 192.289062 509.011719 196.394531 C 510.042969 200.496094 510.96875 204.621094 511.792969 208.773438 C 512.621094 212.921875 513.34375 217.085938 513.964844 221.273438 C 514.585938 225.457031 515.101562 229.652344 515.515625 233.863281 C 515.933594 238.074219 516.242188 242.289062 516.449219 246.515625 C 516.65625 250.742188 516.761719 254.96875 516.761719 259.199219 C 516.761719 263.429688 516.65625 267.65625 516.449219 271.882812 C 516.242188 276.105469 515.933594 280.324219 515.515625 284.535156 C 515.101562 288.742188 514.585938 292.941406 513.964844 297.125 C 513.34375 301.308594 512.621094 305.476562 511.792969 309.625 C 510.96875 313.773438 510.042969 317.898438 509.011719 322.003906 C 507.984375 326.105469 506.855469 330.183594 505.628906 334.230469 C 504.398438 338.277344 503.074219 342.292969 501.648438 346.277344 C 500.222656 350.257812 498.699219 354.203125 497.082031 358.113281 C 495.460938 362.019531 493.746094 365.886719 491.9375 369.710938 C 490.128906 373.535156 488.226562 377.3125 486.230469 381.042969 C 484.238281 384.773438 482.152344 388.453125 479.976562 392.082031 C 477.800781 395.710938 475.539062 399.28125 473.1875 402.800781 C 470.835938 406.316406 468.402344 409.773438 465.878906 413.171875 C 463.359375 416.570312 460.757812 419.902344 458.074219 423.175781 C 455.386719 426.445312 452.625 429.644531 449.78125 432.78125 C 446.941406 435.914062 444.023438 438.976562 441.03125 441.96875 C 438.039062 444.960938 434.976562 447.875 431.839844 450.71875 C 428.707031 453.558594 425.503906 456.320312 422.230469 459.003906 C 418.960938 461.6875 415.625 464.289062 412.226562 466.808594 C 408.828125 469.328125 405.371094 471.765625 401.851562 474.113281 C 398.332031 476.464844 394.757812 478.726562 391.128906 480.902344 C 387.5 483.074219 383.820312 485.160156 380.089844 487.15625 C 376.355469 489.148438 372.578125 491.050781 368.753906 492.859375 C 364.925781 494.667969 361.058594 496.382812 357.152344 498 C 353.242188 499.617188 349.292969 501.140625 345.308594 502.566406 C 341.328125 503.992188 337.308594 505.316406 333.261719 506.546875 C 329.210938 507.773438 325.132812 508.902344 321.03125 509.929688 C 316.925781 510.957031 312.796875 511.882812 308.648438 512.707031 C 304.496094 513.535156 300.328125 514.257812 296.144531 514.878906 C 291.957031 515.5 287.757812 516.015625 283.546875 516.429688 C 279.335938 516.84375 275.117188 517.15625 270.890625 517.363281 C 266.664062 517.570312 262.4375 517.675781 258.207031 517.675781 C 253.972656 517.675781 249.746094 517.570312 245.519531 517.363281 C 241.292969 517.15625 237.074219 516.84375 232.863281 516.429688 C 228.652344 516.015625 224.453125 515.5 220.265625 514.878906 C 216.082031 514.257812 211.914062 513.535156 207.761719 512.707031 C 203.613281 511.882812 199.484375 510.957031 195.382812 509.929688 C 191.277344 508.902344 187.199219 507.773438 183.148438 506.546875 C 179.101562 505.316406 175.085938 503.992188 171.101562 502.566406 C 167.117188 501.140625 163.167969 499.617188 159.261719 498 C 155.351562 496.382812 151.484375 494.667969 147.65625 492.859375 C 143.832031 491.050781 140.054688 489.148438 136.324219 487.15625 C 132.589844 485.160156 128.910156 483.074219 125.28125 480.902344 C 121.652344 478.726562 118.078125 476.464844 114.558594 474.113281 C 111.039062 471.765625 107.582031 469.328125 104.183594 466.808594 C 100.785156 464.289062 97.449219 461.6875 94.179688 459.003906 C 90.90625 456.320312 87.703125 453.558594 84.570312 450.71875 C 81.433594 447.875 78.371094 444.960938 75.378906 441.96875 C 72.386719 438.976562 69.46875 435.914062 66.628906 432.78125 C 63.785156 429.644531 61.023438 426.445312 58.339844 423.175781 C 55.652344 419.902344 53.050781 416.570312 50.53125 413.171875 C 48.011719 409.773438 45.574219 406.316406 43.222656 402.800781 C 40.871094 399.28125 38.609375 395.710938 36.433594 392.082031 C 34.257812 388.453125 32.171875 384.773438 30.179688 381.042969 C 28.183594 377.3125 26.28125 373.535156 24.472656 369.710938 C 22.664062 365.886719 20.949219 362.019531 19.332031 358.113281 C 17.710938 354.203125 16.1875 350.257812 14.761719 346.277344 C 13.335938 342.292969 12.011719 338.277344 10.78125 334.230469 C 9.554688 330.183594 8.425781 326.105469 7.398438 322.003906 C 6.371094 317.898438 5.441406 313.773438 4.617188 309.625 C 3.792969 305.476562 3.066406 301.308594 2.445312 297.125 C 1.828125 292.941406 1.308594 288.742188 0.894531 284.535156 C 0.480469 280.324219 0.167969 276.105469 -0.0390625 271.882812 C -0.246094 267.65625 -0.351562 263.429688 -0.351562 259.199219 Z M -0.351562 259.199219 " clip-rule="nonzero"/></clipPath><clipPath id="23acc4a71c"><path d="M 156 144 L 332 144 L 332 335 L 156 335 Z M 156 144 " clip-rule="nonzero"/></clipPath><clipPath id="55295d7876"><path d="M -0.351562 259.199219 C -0.351562 254.96875 -0.246094 250.742188 -0.0390625 246.515625 C 0.167969 242.289062 0.480469 238.074219 0.894531 233.863281 C 1.308594 229.652344 1.828125 225.457031 2.445312 221.273438 C 3.066406 217.085938 3.792969 212.921875 4.617188 208.773438 C 5.441406 204.621094 6.371094 200.496094 7.398438 196.394531 C 8.425781 192.289062 9.554688 188.214844 10.78125 184.167969 C 12.011719 180.117188 13.335938 176.101562 14.761719 172.121094 C 16.1875 168.136719 17.710938 164.191406 19.332031 160.28125 C 20.949219 156.375 22.664062 152.507812 24.472656 148.683594 C 26.28125 144.859375 28.183594 141.082031 30.179688 137.351562 C 32.171875 133.621094 34.257812 129.941406 36.433594 126.3125 C 38.609375 122.6875 40.871094 119.113281 43.222656 115.597656 C 45.574219 112.078125 48.011719 108.621094 50.53125 105.222656 C 53.050781 101.824219 55.652344 98.492188 58.339844 95.222656 C 61.023438 91.953125 63.785156 88.75 66.628906 85.617188 C 69.46875 82.480469 72.386719 79.417969 75.378906 76.425781 C 78.371094 73.4375 81.433594 70.519531 84.570312 67.679688 C 87.703125 64.839844 90.90625 62.078125 94.179688 59.394531 C 97.449219 56.710938 100.785156 54.105469 104.183594 51.585938 C 107.582031 49.066406 111.039062 46.632812 114.558594 44.28125 C 118.078125 41.933594 121.652344 39.667969 125.28125 37.496094 C 128.910156 35.320312 132.589844 33.234375 136.324219 31.242188 C 140.054688 29.246094 143.832031 27.347656 147.65625 25.539062 C 151.484375 23.730469 155.351562 22.015625 159.261719 20.394531 C 163.167969 18.777344 167.117188 17.253906 171.101562 15.832031 C 175.085938 14.40625 179.101562 13.078125 183.148438 11.851562 C 187.199219 10.621094 191.277344 9.496094 195.382812 8.46875 C 199.484375 7.4375 203.613281 6.511719 207.761719 5.6875 C 211.914062 4.863281 216.082031 4.140625 220.265625 3.519531 C 224.453125 2.898438 228.652344 2.378906 232.863281 1.964844 C 237.074219 1.550781 241.292969 1.238281 245.519531 1.03125 C 249.746094 0.824219 253.972656 0.722656 258.207031 0.722656 C 262.4375 0.722656 266.664062 0.824219 270.890625 1.03125 C 275.117188 1.238281 279.335938 1.550781 283.546875 1.964844 C 287.757812 2.378906 291.957031 2.898438 296.144531 3.519531 C 300.328125 4.140625 304.496094 4.863281 308.648438 5.6875 C 312.796875 6.511719 316.925781 7.4375 321.03125 8.46875 C 325.132812 9.496094 329.210938 10.621094 333.261719 11.851562 C 337.308594 13.078125 341.328125 14.40625 345.308594 15.832031 C 349.292969 17.253906 353.242188 18.777344 357.152344 20.394531 C 361.058594 22.015625 364.925781 23.730469 368.753906 25.539062 C 372.578125 27.347656 376.355469 29.246094 380.089844 31.242188 C 383.820312 33.234375 387.5 35.320312 391.128906 37.496094 C 394.757812 39.667969 398.332031 41.933594 401.851562 44.28125 C 405.371094 46.632812 408.828125 49.066406 412.226562 51.585938 C 415.625 54.105469 418.960938 56.710938 422.230469 59.394531 C 425.503906 62.078125 428.707031 64.839844 431.839844 67.679688 C 434.976562 70.519531 438.039062 73.4375 441.03125 76.425781 C 444.023438 79.417969 446.941406 82.480469 449.78125 85.617188 C 452.625 88.75 455.386719 91.953125 458.070312 95.222656 C 460.757812 98.492188 463.359375 101.824219 465.878906 105.222656 C 468.402344 108.621094 470.835938 112.078125 473.1875 115.597656 C 475.539062 119.113281 477.800781 122.6875 479.976562 126.3125 C 482.152344 129.941406 484.238281 133.621094 486.230469 137.351562 C 488.226562 141.082031 490.128906 144.859375 491.9375 148.683594 C 493.746094 152.507812 495.460938 156.375 497.082031 160.28125 C 498.699219 164.191406 500.222656 168.136719 501.648438 172.121094 C 503.074219 176.101562 504.398438 180.117188 505.628906 184.167969 C 506.855469 188.214844 507.984375 192.289062 509.011719 196.394531 C 510.042969 200.496094 510.96875 204.621094 511.792969 208.773438 C 512.621094 212.921875 513.34375 217.085938 513.964844 221.273438 C 514.585938 225.457031 515.101562 229.652344 515.515625 233.863281 C 515.933594 238.074219 516.242188 242.289062 516.449219 246.515625 C 516.65625 250.742188 516.761719 254.96875 516.761719 259.199219 C 516.761719 263.429688 516.65625 267.65625 516.449219 271.882812 C 516.242188 276.105469 515.933594 280.324219 515.515625 284.535156 C 515.101562 288.742188 514.585938 292.941406 513.964844 297.125 C 513.34375 301.308594 512.621094 305.476562 511.792969 309.625 C 510.96875 313.773438 510.042969 317.898438 509.011719 322.003906 C 507.984375 326.105469 506.855469 330.183594 505.628906 334.230469 C 504.398438 338.277344 503.074219 342.292969 501.648438 346.277344 C 500.222656 350.257812 498.699219 354.203125 497.082031 358.113281 C 495.460938 362.019531 493.746094 365.886719 491.9375 369.710938 C 490.128906 373.535156 488.226562 377.3125 486.230469 381.042969 C 484.238281 384.773438 482.152344 388.453125 479.976562 392.082031 C 477.800781 395.710938 475.539062 399.28125 473.1875 402.800781 C 470.835938 406.316406 468.402344 409.773438 465.878906 413.171875 C 463.359375 416.570312 460.757812 419.902344 458.074219 423.175781 C 455.386719 426.445312 452.625 429.644531 449.78125 432.78125 C 446.941406 435.914062 444.023438 438.976562 441.03125 441.96875 C 438.039062 444.960938 434.976562 447.875 431.839844 450.71875 C 428.707031 453.558594 425.503906 456.320312 422.230469 459.003906 C 418.960938 461.6875 415.625 464.289062 412.226562 466.808594 C 408.828125 469.328125 405.371094 471.765625 401.851562 474.113281 C 398.332031 476.464844 394.757812 478.726562 391.128906 480.902344 C 387.5 483.074219 383.820312 485.160156 380.089844 487.15625 C 376.355469 489.148438 372.578125 491.050781 368.753906 492.859375 C 364.925781 494.667969 361.058594 496.382812 357.152344 498 C 353.242188 499.617188 349.292969 501.140625 345.308594 502.566406 C 341.328125 503.992188 337.308594 505.316406 333.261719 506.546875 C 329.210938 507.773438 325.132812 508.902344 321.03125 509.929688 C 316.925781 510.957031 312.796875 511.882812 308.648438 512.707031 C 304.496094 513.535156 300.328125 514.257812 296.144531 514.878906 C 291.957031 515.5 287.757812 516.015625 283.546875 516.429688 C 279.335938 516.84375 275.117188 517.15625 270.890625 517.363281 C 266.664062 517.570312 262.4375 517.675781 258.207031 517.675781 C 253.972656 517.675781 249.746094 517.570312 245.519531 517.363281 C 241.292969 517.15625 237.074219 516.84375 232.863281 516.429688 C 228.652344 516.015625 224.453125 515.5 220.265625 514.878906 C 216.082031 514.257812 211.914062 513.535156 207.761719 512.707031 C 203.613281 511.882812 199.484375 510.957031 195.382812 509.929688 C 191.277344 508.902344 187.199219 507.773438 183.148438 506.546875 C 179.101562 505.316406 175.085938 503.992188 171.101562 502.566406 C 167.117188 501.140625 163.167969 499.617188 159.261719 498 C 155.351562 496.382812 151.484375 494.667969 147.65625 492.859375 C 143.832031 491.050781 140.054688 489.148438 136.324219 487.15625 C 132.589844 485.160156 128.910156 483.074219 125.28125 480.902344 C 121.652344 478.726562 118.078125 476.464844 114.558594 474.113281 C 111.039062 471.765625 107.582031 469.328125 104.183594 466.808594 C 100.785156 464.289062 97.449219 461.6875 94.179688 459.003906 C 90.90625 456.320312 87.703125 453.558594 84.570312 450.71875 C 81.433594 447.875 78.371094 444.960938 75.378906 441.96875 C 72.386719 438.976562 69.46875 435.914062 66.628906 432.78125 C 63.785156 429.644531 61.023438 426.445312 58.339844 423.175781 C 55.652344 419.902344 53.050781 416.570312 50.53125 413.171875 C 48.011719 409.773438 45.574219 406.316406 43.222656 402.800781 C 40.871094 399.28125 38.609375 395.710938 36.433594 392.082031 C 34.257812 388.453125 32.171875 384.773438 30.179688 381.042969 C 28.183594 377.3125 26.28125 373.535156 24.472656 369.710938 C 22.664062 365.886719 20.949219 362.019531 19.332031 358.113281 C 17.710938 354.203125 16.1875 350.257812 14.761719 346.277344 C 13.335938 342.292969 12.011719 338.277344 10.78125 334.230469 C 9.554688 330.183594 8.425781 326.105469 7.398438 322.003906 C 6.371094 317.898438 5.441406 313.773438 4.617188 309.625 C 3.792969 305.476562 3.066406 301.308594 2.445312 297.125 C 1.828125 292.941406 1.308594 288.742188 0.894531 284.535156 C 0.480469 280.324219 0.167969 276.105469 -0.0390625 271.882812 C -0.246094 267.65625 -0.351562 263.429688 -0.351562 259.199219 Z M -0.351562 259.199219 " clip-rule="nonzero"/></clipPath><clipPath id="c447c958b4"><path d="M 198 275 L 272 275 L 272 365 L 198 365 Z M 198 275 " clip-rule="nonzero"/></clipPath><clipPath id="a01f42d135"><path d="M -0.351562 259.199219 C -0.351562 254.96875 -0.246094 250.742188 -0.0390625 246.515625 C 0.167969 242.289062 0.480469 238.074219 0.894531 233.863281 C 1.308594 229.652344 1.828125 225.457031 2.445312 221.273438 C 3.066406 217.085938 3.792969 212.921875 4.617188 208.773438 C 5.441406 204.621094 6.371094 200.496094 7.398438 196.394531 C 8.425781 192.289062 9.554688 188.214844 10.78125 184.167969 C 12.011719 180.117188 13.335938 176.101562 14.761719 172.121094 C 16.1875 168.136719 17.710938 164.191406 19.332031 160.28125 C 20.949219 156.375 22.664062 152.507812 24.472656 148.683594 C 26.28125 144.859375 28.183594 141.082031 30.179688 137.351562 C 32.171875 133.621094 34.257812 129.941406 36.433594 126.3125 C 38.609375 122.6875 40.871094 119.113281 43.222656 115.597656 C 45.574219 112.078125 48.011719 108.621094 50.53125 105.222656 C 53.050781 101.824219 55.652344 98.492188 58.339844 95.222656 C 61.023438 91.953125 63.785156 88.75 66.628906 85.617188 C 69.46875 82.480469 72.386719 79.417969 75.378906 76.425781 C 78.371094 73.4375 81.433594 70.519531 84.570312 67.679688 C 87.703125 64.839844 90.90625 62.078125 94.179688 59.394531 C 97.449219 56.710938 100.785156 54.105469 104.183594 51.585938 C 107.582031 49.066406 111.039062 46.632812 114.558594 44.28125 C 118.078125 41.933594 121.652344 39.667969 125.28125 37.496094 C 128.910156 35.320312 132.589844 33.234375 136.324219 31.242188 C 140.054688 29.246094 143.832031 27.347656 147.65625 25.539062 C 151.484375 23.730469 155.351562 22.015625 159.261719 20.394531 C 163.167969 18.777344 167.117188 17.253906 171.101562 15.832031 C 175.085938 14.40625 179.101562 13.078125 183.148438 11.851562 C 187.199219 10.621094 191.277344 9.496094 195.382812 8.46875 C 199.484375 7.4375 203.613281 6.511719 207.761719 5.6875 C 211.914062 4.863281 216.082031 4.140625 220.265625 3.519531 C 224.453125 2.898438 228.652344 2.378906 232.863281 1.964844 C 237.074219 1.550781 241.292969 1.238281 245.519531 1.03125 C 249.746094 0.824219 253.972656 0.722656 258.207031 0.722656 C 262.4375 0.722656 266.664062 0.824219 270.890625 1.03125 C 275.117188 1.238281 279.335938 1.550781 283.546875 1.964844 C 287.757812 2.378906 291.957031 2.898438 296.144531 3.519531 C 300.328125 4.140625 304.496094 4.863281 308.648438 5.6875 C 312.796875 6.511719 316.925781 7.4375 321.03125 8.46875 C 325.132812 9.496094 329.210938 10.621094 333.261719 11.851562 C 337.308594 13.078125 341.328125 14.40625 345.308594 15.832031 C 349.292969 17.253906 353.242188 18.777344 357.152344 20.394531 C 361.058594 22.015625 364.925781 23.730469 368.753906 25.539062 C 372.578125 27.347656 376.355469 29.246094 380.089844 31.242188 C 383.820312 33.234375 387.5 35.320312 391.128906 37.496094 C 394.757812 39.667969 398.332031 41.933594 401.851562 44.28125 C 405.371094 46.632812 408.828125 49.066406 412.226562 51.585938 C 415.625 54.105469 418.960938 56.710938 422.230469 59.394531 C 425.503906 62.078125 428.707031 64.839844 431.839844 67.679688 C 434.976562 70.519531 438.039062 73.4375 441.03125 76.425781 C 444.023438 79.417969 446.941406 82.480469 449.78125 85.617188 C 452.625 88.75 455.386719 91.953125 458.070312 95.222656 C 460.757812 98.492188 463.359375 101.824219 465.878906 105.222656 C 468.402344 108.621094 470.835938 112.078125 473.1875 115.597656 C 475.539062 119.113281 477.800781 122.6875 479.976562 126.3125 C 482.152344 129.941406 484.238281 133.621094 486.230469 137.351562 C 488.226562 141.082031 490.128906 144.859375 491.9375 148.683594 C 493.746094 152.507812 495.460938 156.375 497.082031 160.28125 C 498.699219 164.191406 500.222656 168.136719 501.648438 172.121094 C 503.074219 176.101562 504.398438 180.117188 505.628906 184.167969 C 506.855469 188.214844 507.984375 192.289062 509.011719 196.394531 C 510.042969 200.496094 510.96875 204.621094 511.792969 208.773438 C 512.621094 212.921875 513.34375 217.085938 513.964844 221.273438 C 514.585938 225.457031 515.101562 229.652344 515.515625 233.863281 C 515.933594 238.074219 516.242188 242.289062 516.449219 246.515625 C 516.65625 250.742188 516.761719 254.96875 516.761719 259.199219 C 516.761719 263.429688 516.65625 267.65625 516.449219 271.882812 C 516.242188 276.105469 515.933594 280.324219 515.515625 284.535156 C 515.101562 288.742188 514.585938 292.941406 513.964844 297.125 C 513.34375 301.308594 512.621094 305.476562 511.792969 309.625 C 510.96875 313.773438 510.042969 317.898438 509.011719 322.003906 C 507.984375 326.105469 506.855469 330.183594 505.628906 334.230469 C 504.398438 338.277344 503.074219 342.292969 501.648438 346.277344 C 500.222656 350.257812 498.699219 354.203125 497.082031 358.113281 C 495.460938 362.019531 493.746094 365.886719 491.9375 369.710938 C 490.128906 373.535156 488.226562 377.3125 486.230469 381.042969 C 484.238281 384.773438 482.152344 388.453125 479.976562 392.082031 C 477.800781 395.710938 475.539062 399.28125 473.1875 402.800781 C 470.835938 406.316406 468.402344 409.773438 465.878906 413.171875 C 463.359375 416.570312 460.757812 419.902344 458.074219 423.175781 C 455.386719 426.445312 452.625 429.644531 449.78125 432.78125 C 446.941406 435.914062 444.023438 438.976562 441.03125 441.96875 C 438.039062 444.960938 434.976562 447.875 431.839844 450.71875 C 428.707031 453.558594 425.503906 456.320312 422.230469 459.003906 C 418.960938 461.6875 415.625 464.289062 412.226562 466.808594 C 408.828125 469.328125 405.371094 471.765625 401.851562 474.113281 C 398.332031 476.464844 394.757812 478.726562 391.128906 480.902344 C 387.5 483.074219 383.820312 485.160156 380.089844 487.15625 C 376.355469 489.148438 372.578125 491.050781 368.753906 492.859375 C 364.925781 494.667969 361.058594 496.382812 357.152344 498 C 353.242188 499.617188 349.292969 501.140625 345.308594 502.566406 C 341.328125 503.992188 337.308594 505.316406 333.261719 506.546875 C 329.210938 507.773438 325.132812 508.902344 321.03125 509.929688 C 316.925781 510.957031 312.796875 511.882812 308.648438 512.707031 C 304.496094 513.535156 300.328125 514.257812 296.144531 514.878906 C 291.957031 515.5 287.757812 516.015625 283.546875 516.429688 C 279.335938 516.84375 275.117188 517.15625 270.890625 517.363281 C 266.664062 517.570312 262.4375 517.675781 258.207031 517.675781 C 253.972656 517.675781 249.746094 517.570312 245.519531 517.363281 C 241.292969 517.15625 237.074219 516.84375 232.863281 516.429688 C 228.652344 516.015625 224.453125 515.5 220.265625 514.878906 C 216.082031 514.257812 211.914062 513.535156 207.761719 512.707031 C 203.613281 511.882812 199.484375 510.957031 195.382812 509.929688 C 191.277344 508.902344 187.199219 507.773438 183.148438 506.546875 C 179.101562 505.316406 175.085938 503.992188 171.101562 502.566406 C 167.117188 501.140625 163.167969 499.617188 159.261719 498 C 155.351562 496.382812 151.484375 494.667969 147.65625 492.859375 C 143.832031 491.050781 140.054688 489.148438 136.324219 487.15625 C 132.589844 485.160156 128.910156 483.074219 125.28125 480.902344 C 121.652344 478.726562 118.078125 476.464844 114.558594 474.113281 C 111.039062 471.765625 107.582031 469.328125 104.183594 466.808594 C 100.785156 464.289062 97.449219 461.6875 94.179688 459.003906 C 90.90625 456.320312 87.703125 453.558594 84.570312 450.71875 C 81.433594 447.875 78.371094 444.960938 75.378906 441.96875 C 72.386719 438.976562 69.46875 435.914062 66.628906 432.78125 C 63.785156 429.644531 61.023438 426.445312 58.339844 423.175781 C 55.652344 419.902344 53.050781 416.570312 50.53125 413.171875 C 48.011719 409.773438 45.574219 406.316406 43.222656 402.800781 C 40.871094 399.28125 38.609375 395.710938 36.433594 392.082031 C 34.257812 388.453125 32.171875 384.773438 30.179688 381.042969 C 28.183594 377.3125 26.28125 373.535156 24.472656 369.710938 C 22.664062 365.886719 20.949219 362.019531 19.332031 358.113281 C 17.710938 354.203125 16.1875 350.257812 14.761719 346.277344 C 13.335938 342.292969 12.011719 338.277344 10.78125 334.230469 C 9.554688 330.183594 8.425781 326.105469 7.398438 322.003906 C 6.371094 317.898438 5.441406 313.773438 4.617188 309.625 C 3.792969 305.476562 3.066406 301.308594 2.445312 297.125 C 1.828125 292.941406 1.308594 288.742188 0.894531 284.535156 C 0.480469 280.324219 0.167969 276.105469 -0.0390625 271.882812 C -0.246094 267.65625 -0.351562 263.429688 -0.351562 259.199219 Z M -0.351562 259.199219 " clip-rule="nonzero"/></clipPath><clipPath id="c9c0f57810"><path d="M 207 275 L 272 275 L 272 338 L 207 338 Z M 207 275 " clip-rule="nonzero"/></clipPath><clipPath id="663dd00d9e"><path d="M -0.351562 259.199219 C -0.351562 254.96875 -0.246094 250.742188 -0.0390625 246.515625 C 0.167969 242.289062 0.480469 238.074219 0.894531 233.863281 C 1.308594 229.652344 1.828125 225.457031 2.445312 221.273438 C 3.066406 217.085938 3.792969 212.921875 4.617188 208.773438 C 5.441406 204.621094 6.371094 200.496094 7.398438 196.394531 C 8.425781 192.289062 9.554688 188.214844 10.78125 184.167969 C 12.011719 180.117188 13.335938 176.101562 14.761719 172.121094 C 16.1875 168.136719 17.710938 164.191406 19.332031 160.28125 C 20.949219 156.375 22.664062 152.507812 24.472656 148.683594 C 26.28125 144.859375 28.183594 141.082031 30.179688 137.351562 C 32.171875 133.621094 34.257812 129.941406 36.433594 126.3125 C 38.609375 122.6875 40.871094 119.113281 43.222656 115.597656 C 45.574219 112.078125 48.011719 108.621094 50.53125 105.222656 C 53.050781 101.824219 55.652344 98.492188 58.339844 95.222656 C 61.023438 91.953125 63.785156 88.75 66.628906 85.617188 C 69.46875 82.480469 72.386719 79.417969 75.378906 76.425781 C 78.371094 73.4375 81.433594 70.519531 84.570312 67.679688 C 87.703125 64.839844 90.90625 62.078125 94.179688 59.394531 C 97.449219 56.710938 100.785156 54.105469 104.183594 51.585938 C 107.582031 49.066406 111.039062 46.632812 114.558594 44.28125 C 118.078125 41.933594 121.652344 39.667969 125.28125 37.496094 C 128.910156 35.320312 132.589844 33.234375 136.324219 31.242188 C 140.054688 29.246094 143.832031 27.347656 147.65625 25.539062 C 151.484375 23.730469 155.351562 22.015625 159.261719 20.394531 C 163.167969 18.777344 167.117188 17.253906 171.101562 15.832031 C 175.085938 14.40625 179.101562 13.078125 183.148438 11.851562 C 187.199219 10.621094 191.277344 9.496094 195.382812 8.46875 C 199.484375 7.4375 203.613281 6.511719 207.761719 5.6875 C 211.914062 4.863281 216.082031 4.140625 220.265625 3.519531 C 224.453125 2.898438 228.652344 2.378906 232.863281 1.964844 C 237.074219 1.550781 241.292969 1.238281 245.519531 1.03125 C 249.746094 0.824219 253.972656 0.722656 258.207031 0.722656 C 262.4375 0.722656 266.664062 0.824219 270.890625 1.03125 C 275.117188 1.238281 279.335938 1.550781 283.546875 1.964844 C 287.757812 2.378906 291.957031 2.898438 296.144531 3.519531 C 300.328125 4.140625 304.496094 4.863281 308.648438 5.6875 C 312.796875 6.511719 316.925781 7.4375 321.03125 8.46875 C 325.132812 9.496094 329.210938 10.621094 333.261719 11.851562 C 337.308594 13.078125 341.328125 14.40625 345.308594 15.832031 C 349.292969 17.253906 353.242188 18.777344 357.152344 20.394531 C 361.058594 22.015625 364.925781 23.730469 368.753906 25.539062 C 372.578125 27.347656 376.355469 29.246094 380.089844 31.242188 C 383.820312 33.234375 387.5 35.320312 391.128906 37.496094 C 394.757812 39.667969 398.332031 41.933594 401.851562 44.28125 C 405.371094 46.632812 408.828125 49.066406 412.226562 51.585938 C 415.625 54.105469 418.960938 56.710938 422.230469 59.394531 C 425.503906 62.078125 428.707031 64.839844 431.839844 67.679688 C 434.976562 70.519531 438.039062 73.4375 441.03125 76.425781 C 444.023438 79.417969 446.941406 82.480469 449.78125 85.617188 C 452.625 88.75 455.386719 91.953125 458.070312 95.222656 C 460.757812 98.492188 463.359375 101.824219 465.878906 105.222656 C 468.402344 108.621094 470.835938 112.078125 473.1875 115.597656 C 475.539062 119.113281 477.800781 122.6875 479.976562 126.3125 C 482.152344 129.941406 484.238281 133.621094 486.230469 137.351562 C 488.226562 141.082031 490.128906 144.859375 491.9375 148.683594 C 493.746094 152.507812 495.460938 156.375 497.082031 160.28125 C 498.699219 164.191406 500.222656 168.136719 501.648438 172.121094 C 503.074219 176.101562 504.398438 180.117188 505.628906 184.167969 C 506.855469 188.214844 507.984375 192.289062 509.011719 196.394531 C 510.042969 200.496094 510.96875 204.621094 511.792969 208.773438 C 512.621094 212.921875 513.34375 217.085938 513.964844 221.273438 C 514.585938 225.457031 515.101562 229.652344 515.515625 233.863281 C 515.933594 238.074219 516.242188 242.289062 516.449219 246.515625 C 516.65625 250.742188 516.761719 254.96875 516.761719 259.199219 C 516.761719 263.429688 516.65625 267.65625 516.449219 271.882812 C 516.242188 276.105469 515.933594 280.324219 515.515625 284.535156 C 515.101562 288.742188 514.585938 292.941406 513.964844 297.125 C 513.34375 301.308594 512.621094 305.476562 511.792969 309.625 C 510.96875 313.773438 510.042969 317.898438 509.011719 322.003906 C 507.984375 326.105469 506.855469 330.183594 505.628906 334.230469 C 504.398438 338.277344 503.074219 342.292969 501.648438 346.277344 C 500.222656 350.257812 498.699219 354.203125 497.082031 358.113281 C 495.460938 362.019531 493.746094 365.886719 491.9375 369.710938 C 490.128906 373.535156 488.226562 377.3125 486.230469 381.042969 C 484.238281 384.773438 482.152344 388.453125 479.976562 392.082031 C 477.800781 395.710938 475.539062 399.28125 473.1875 402.800781 C 470.835938 406.316406 468.402344 409.773438 465.878906 413.171875 C 463.359375 416.570312 460.757812 419.902344 458.074219 423.175781 C 455.386719 426.445312 452.625 429.644531 449.78125 432.78125 C 446.941406 435.914062 444.023438 438.976562 441.03125 441.96875 C 438.039062 444.960938 434.976562 447.875 431.839844 450.71875 C 428.707031 453.558594 425.503906 456.320312 422.230469 459.003906 C 418.960938 461.6875 415.625 464.289062 412.226562 466.808594 C 408.828125 469.328125 405.371094 471.765625 401.851562 474.113281 C 398.332031 476.464844 394.757812 478.726562 391.128906 480.902344 C 387.5 483.074219 383.820312 485.160156 380.089844 487.15625 C 376.355469 489.148438 372.578125 491.050781 368.753906 492.859375 C 364.925781 494.667969 361.058594 496.382812 357.152344 498 C 353.242188 499.617188 349.292969 501.140625 345.308594 502.566406 C 341.328125 503.992188 337.308594 505.316406 333.261719 506.546875 C 329.210938 507.773438 325.132812 508.902344 321.03125 509.929688 C 316.925781 510.957031 312.796875 511.882812 308.648438 512.707031 C 304.496094 513.535156 300.328125 514.257812 296.144531 514.878906 C 291.957031 515.5 287.757812 516.015625 283.546875 516.429688 C 279.335938 516.84375 275.117188 517.15625 270.890625 517.363281 C 266.664062 517.570312 262.4375 517.675781 258.207031 517.675781 C 253.972656 517.675781 249.746094 517.570312 245.519531 517.363281 C 241.292969 517.15625 237.074219 516.84375 232.863281 516.429688 C 228.652344 516.015625 224.453125 515.5 220.265625 514.878906 C 216.082031 514.257812 211.914062 513.535156 207.761719 512.707031 C 203.613281 511.882812 199.484375 510.957031 195.382812 509.929688 C 191.277344 508.902344 187.199219 507.773438 183.148438 506.546875 C 179.101562 505.316406 175.085938 503.992188 171.101562 502.566406 C 167.117188 501.140625 163.167969 499.617188 159.261719 498 C 155.351562 496.382812 151.484375 494.667969 147.65625 492.859375 C 143.832031 491.050781 140.054688 489.148438 136.324219 487.15625 C 132.589844 485.160156 128.910156 483.074219 125.28125 480.902344 C 121.652344 478.726562 118.078125 476.464844 114.558594 474.113281 C 111.039062 471.765625 107.582031 469.328125 104.183594 466.808594 C 100.785156 464.289062 97.449219 461.6875 94.179688 459.003906 C 90.90625 456.320312 87.703125 453.558594 84.570312 450.71875 C 81.433594 447.875 78.371094 444.960938 75.378906 441.96875 C 72.386719 438.976562 69.46875 435.914062 66.628906 432.78125 C 63.785156 429.644531 61.023438 426.445312 58.339844 423.175781 C 55.652344 419.902344 53.050781 416.570312 50.53125 413.171875 C 48.011719 409.773438 45.574219 406.316406 43.222656 402.800781 C 40.871094 399.28125 38.609375 395.710938 36.433594 392.082031 C 34.257812 388.453125 32.171875 384.773438 30.179688 381.042969 C 28.183594 377.3125 26.28125 373.535156 24.472656 369.710938 C 22.664062 365.886719 20.949219 362.019531 19.332031 358.113281 C 17.710938 354.203125 16.1875 350.257812 14.761719 346.277344 C 13.335938 342.292969 12.011719 338.277344 10.78125 334.230469 C 9.554688 330.183594 8.425781 326.105469 7.398438 322.003906 C 6.371094 317.898438 5.441406 313.773438 4.617188 309.625 C 3.792969 305.476562 3.066406 301.308594 2.445312 297.125 C 1.828125 292.941406 1.308594 288.742188 0.894531 284.535156 C 0.480469 280.324219 0.167969 276.105469 -0.0390625 271.882812 C -0.246094 267.65625 -0.351562 263.429688 -0.351562 259.199219 Z M -0.351562 259.199219 " clip-rule="nonzero"/></clipPath><clipPath id="ece483f6a0"><path d="M 180 195 L 307 195 L 307 320 L 180 320 Z M 180 195 " clip-rule="nonzero"/></clipPath><clipPath id="46a89c705d"><path d="M -0.351562 259.199219 C -0.351562 254.96875 -0.246094 250.742188 -0.0390625 246.515625 C 0.167969 242.289062 0.480469 238.074219 0.894531 233.863281 C 1.308594 229.652344 1.828125 225.457031 2.445312 221.273438 C 3.066406 217.085938 3.792969 212.921875 4.617188 208.773438 C 5.441406 204.621094 6.371094 200.496094 7.398438 196.394531 C 8.425781 192.289062 9.554688 188.214844 10.78125 184.167969 C 12.011719 180.117188 13.335938 176.101562 14.761719 172.121094 C 16.1875 168.136719 17.710938 164.191406 19.332031 160.28125 C 20.949219 156.375 22.664062 152.507812 24.472656 148.683594 C 26.28125 144.859375 28.183594 141.082031 30.179688 137.351562 C 32.171875 133.621094 34.257812 129.941406 36.433594 126.3125 C 38.609375 122.6875 40.871094 119.113281 43.222656 115.597656 C 45.574219 112.078125 48.011719 108.621094 50.53125 105.222656 C 53.050781 101.824219 55.652344 98.492188 58.339844 95.222656 C 61.023438 91.953125 63.785156 88.75 66.628906 85.617188 C 69.46875 82.480469 72.386719 79.417969 75.378906 76.425781 C 78.371094 73.4375 81.433594 70.519531 84.570312 67.679688 C 87.703125 64.839844 90.90625 62.078125 94.179688 59.394531 C 97.449219 56.710938 100.785156 54.105469 104.183594 51.585938 C 107.582031 49.066406 111.039062 46.632812 114.558594 44.28125 C 118.078125 41.933594 121.652344 39.667969 125.28125 37.496094 C 128.910156 35.320312 132.589844 33.234375 136.324219 31.242188 C 140.054688 29.246094 143.832031 27.347656 147.65625 25.539062 C 151.484375 23.730469 155.351562 22.015625 159.261719 20.394531 C 163.167969 18.777344 167.117188 17.253906 171.101562 15.832031 C 175.085938 14.40625 179.101562 13.078125 183.148438 11.851562 C 187.199219 10.621094 191.277344 9.496094 195.382812 8.46875 C 199.484375 7.4375 203.613281 6.511719 207.761719 5.6875 C 211.914062 4.863281 216.082031 4.140625 220.265625 3.519531 C 224.453125 2.898438 228.652344 2.378906 232.863281 1.964844 C 237.074219 1.550781 241.292969 1.238281 245.519531 1.03125 C 249.746094 0.824219 253.972656 0.722656 258.207031 0.722656 C 262.4375 0.722656 266.664062 0.824219 270.890625 1.03125 C 275.117188 1.238281 279.335938 1.550781 283.546875 1.964844 C 287.757812 2.378906 291.957031 2.898438 296.144531 3.519531 C 300.328125 4.140625 304.496094 4.863281 308.648438 5.6875 C 312.796875 6.511719 316.925781 7.4375 321.03125 8.46875 C 325.132812 9.496094 329.210938 10.621094 333.261719 11.851562 C 337.308594 13.078125 341.328125 14.40625 345.308594 15.832031 C 349.292969 17.253906 353.242188 18.777344 357.152344 20.394531 C 361.058594 22.015625 364.925781 23.730469 368.753906 25.539062 C 372.578125 27.347656 376.355469 29.246094 380.089844 31.242188 C 383.820312 33.234375 387.5 35.320312 391.128906 37.496094 C 394.757812 39.667969 398.332031 41.933594 401.851562 44.28125 C 405.371094 46.632812 408.828125 49.066406 412.226562 51.585938 C 415.625 54.105469 418.960938 56.710938 422.230469 59.394531 C 425.503906 62.078125 428.707031 64.839844 431.839844 67.679688 C 434.976562 70.519531 438.039062 73.4375 441.03125 76.425781 C 444.023438 79.417969 446.941406 82.480469 449.78125 85.617188 C 452.625 88.75 455.386719 91.953125 458.070312 95.222656 C 460.757812 98.492188 463.359375 101.824219 465.878906 105.222656 C 468.402344 108.621094 470.835938 112.078125 473.1875 115.597656 C 475.539062 119.113281 477.800781 122.6875 479.976562 126.3125 C 482.152344 129.941406 484.238281 133.621094 486.230469 137.351562 C 488.226562 141.082031 490.128906 144.859375 491.9375 148.683594 C 493.746094 152.507812 495.460938 156.375 497.082031 160.28125 C 498.699219 164.191406 500.222656 168.136719 501.648438 172.121094 C 503.074219 176.101562 504.398438 180.117188 505.628906 184.167969 C 506.855469 188.214844 507.984375 192.289062 509.011719 196.394531 C 510.042969 200.496094 510.96875 204.621094 511.792969 208.773438 C 512.621094 212.921875 513.34375 217.085938 513.964844 221.273438 C 514.585938 225.457031 515.101562 229.652344 515.515625 233.863281 C 515.933594 238.074219 516.242188 242.289062 516.449219 246.515625 C 516.65625 250.742188 516.761719 254.96875 516.761719 259.199219 C 516.761719 263.429688 516.65625 267.65625 516.449219 271.882812 C 516.242188 276.105469 515.933594 280.324219 515.515625 284.535156 C 515.101562 288.742188 514.585938 292.941406 513.964844 297.125 C 513.34375 301.308594 512.621094 305.476562 511.792969 309.625 C 510.96875 313.773438 510.042969 317.898438 509.011719 322.003906 C 507.984375 326.105469 506.855469 330.183594 505.628906 334.230469 C 504.398438 338.277344 503.074219 342.292969 501.648438 346.277344 C 500.222656 350.257812 498.699219 354.203125 497.082031 358.113281 C 495.460938 362.019531 493.746094 365.886719 491.9375 369.710938 C 490.128906 373.535156 488.226562 377.3125 486.230469 381.042969 C 484.238281 384.773438 482.152344 388.453125 479.976562 392.082031 C 477.800781 395.710938 475.539062 399.28125 473.1875 402.800781 C 470.835938 406.316406 468.402344 409.773438 465.878906 413.171875 C 463.359375 416.570312 460.757812 419.902344 458.074219 423.175781 C 455.386719 426.445312 452.625 429.644531 449.78125 432.78125 C 446.941406 435.914062 444.023438 438.976562 441.03125 441.96875 C 438.039062 444.960938 434.976562 447.875 431.839844 450.71875 C 428.707031 453.558594 425.503906 456.320312 422.230469 459.003906 C 418.960938 461.6875 415.625 464.289062 412.226562 466.808594 C 408.828125 469.328125 405.371094 471.765625 401.851562 474.113281 C 398.332031 476.464844 394.757812 478.726562 391.128906 480.902344 C 387.5 483.074219 383.820312 485.160156 380.089844 487.15625 C 376.355469 489.148438 372.578125 491.050781 368.753906 492.859375 C 364.925781 494.667969 361.058594 496.382812 357.152344 498 C 353.242188 499.617188 349.292969 501.140625 345.308594 502.566406 C 341.328125 503.992188 337.308594 505.316406 333.261719 506.546875 C 329.210938 507.773438 325.132812 508.902344 321.03125 509.929688 C 316.925781 510.957031 312.796875 511.882812 308.648438 512.707031 C 304.496094 513.535156 300.328125 514.257812 296.144531 514.878906 C 291.957031 515.5 287.757812 516.015625 283.546875 516.429688 C 279.335938 516.84375 275.117188 517.15625 270.890625 517.363281 C 266.664062 517.570312 262.4375 517.675781 258.207031 517.675781 C 253.972656 517.675781 249.746094 517.570312 245.519531 517.363281 C 241.292969 517.15625 237.074219 516.84375 232.863281 516.429688 C 228.652344 516.015625 224.453125 515.5 220.265625 514.878906 C 216.082031 514.257812 211.914062 513.535156 207.761719 512.707031 C 203.613281 511.882812 199.484375 510.957031 195.382812 509.929688 C 191.277344 508.902344 187.199219 507.773438 183.148438 506.546875 C 179.101562 505.316406 175.085938 503.992188 171.101562 502.566406 C 167.117188 501.140625 163.167969 499.617188 159.261719 498 C 155.351562 496.382812 151.484375 494.667969 147.65625 492.859375 C 143.832031 491.050781 140.054688 489.148438 136.324219 487.15625 C 132.589844 485.160156 128.910156 483.074219 125.28125 480.902344 C 121.652344 478.726562 118.078125 476.464844 114.558594 474.113281 C 111.039062 471.765625 107.582031 469.328125 104.183594 466.808594 C 100.785156 464.289062 97.449219 461.6875 94.179688 459.003906 C 90.90625 456.320312 87.703125 453.558594 84.570312 450.71875 C 81.433594 447.875 78.371094 444.960938 75.378906 441.96875 C 72.386719 438.976562 69.46875 435.914062 66.628906 432.78125 C 63.785156 429.644531 61.023438 426.445312 58.339844 423.175781 C 55.652344 419.902344 53.050781 416.570312 50.53125 413.171875 C 48.011719 409.773438 45.574219 406.316406 43.222656 402.800781 C 40.871094 399.28125 38.609375 395.710938 36.433594 392.082031 C 34.257812 388.453125 32.171875 384.773438 30.179688 381.042969 C 28.183594 377.3125 26.28125 373.535156 24.472656 369.710938 C 22.664062 365.886719 20.949219 362.019531 19.332031 358.113281 C 17.710938 354.203125 16.1875 350.257812 14.761719 346.277344 C 13.335938 342.292969 12.011719 338.277344 10.78125 334.230469 C 9.554688 330.183594 8.425781 326.105469 7.398438 322.003906 C 6.371094 317.898438 5.441406 313.773438 4.617188 309.625 C 3.792969 305.476562 3.066406 301.308594 2.445312 297.125 C 1.828125 292.941406 1.308594 288.742188 0.894531 284.535156 C 0.480469 280.324219 0.167969 276.105469 -0.0390625 271.882812 C -0.246094 267.65625 -0.351562 263.429688 -0.351562 259.199219 Z M -0.351562 259.199219 " clip-rule="nonzero"/></clipPath><clipPath id="5c1e892b6f"><path d="M 188 364 L 517 364 L 517 518 L 188 518 Z M 188 364 " clip-rule="nonzero"/></clipPath><clipPath id="ec5e4e18e1"><path d="M -0.351562 259.199219 C -0.351562 254.96875 -0.246094 250.742188 -0.0390625 246.515625 C 0.167969 242.289062 0.480469 238.074219 0.894531 233.863281 C 1.308594 229.652344 1.828125 225.457031 2.445312 221.273438 C 3.066406 217.085938 3.792969 212.921875 4.617188 208.773438 C 5.441406 204.621094 6.371094 200.496094 7.398438 196.394531 C 8.425781 192.289062 9.554688 188.214844 10.78125 184.167969 C 12.011719 180.117188 13.335938 176.101562 14.761719 172.121094 C 16.1875 168.136719 17.710938 164.191406 19.332031 160.28125 C 20.949219 156.375 22.664062 152.507812 24.472656 148.683594 C 26.28125 144.859375 28.183594 141.082031 30.179688 137.351562 C 32.171875 133.621094 34.257812 129.941406 36.433594 126.3125 C 38.609375 122.6875 40.871094 119.113281 43.222656 115.597656 C 45.574219 112.078125 48.011719 108.621094 50.53125 105.222656 C 53.050781 101.824219 55.652344 98.492188 58.339844 95.222656 C 61.023438 91.953125 63.785156 88.75 66.628906 85.617188 C 69.46875 82.480469 72.386719 79.417969 75.378906 76.425781 C 78.371094 73.4375 81.433594 70.519531 84.570312 67.679688 C 87.703125 64.839844 90.90625 62.078125 94.179688 59.394531 C 97.449219 56.710938 100.785156 54.105469 104.183594 51.585938 C 107.582031 49.066406 111.039062 46.632812 114.558594 44.28125 C 118.078125 41.933594 121.652344 39.667969 125.28125 37.496094 C 128.910156 35.320312 132.589844 33.234375 136.324219 31.242188 C 140.054688 29.246094 143.832031 27.347656 147.65625 25.539062 C 151.484375 23.730469 155.351562 22.015625 159.261719 20.394531 C 163.167969 18.777344 167.117188 17.253906 171.101562 15.832031 C 175.085938 14.40625 179.101562 13.078125 183.148438 11.851562 C 187.199219 10.621094 191.277344 9.496094 195.382812 8.46875 C 199.484375 7.4375 203.613281 6.511719 207.761719 5.6875 C 211.914062 4.863281 216.082031 4.140625 220.265625 3.519531 C 224.453125 2.898438 228.652344 2.378906 232.863281 1.964844 C 237.074219 1.550781 241.292969 1.238281 245.519531 1.03125 C 249.746094 0.824219 253.972656 0.722656 258.207031 0.722656 C 262.4375 0.722656 266.664062 0.824219 270.890625 1.03125 C 275.117188 1.238281 279.335938 1.550781 283.546875 1.964844 C 287.757812 2.378906 291.957031 2.898438 296.144531 3.519531 C 300.328125 4.140625 304.496094 4.863281 308.648438 5.6875 C 312.796875 6.511719 316.925781 7.4375 321.03125 8.46875 C 325.132812 9.496094 329.210938 10.621094 333.261719 11.851562 C 337.308594 13.078125 341.328125 14.40625 345.308594 15.832031 C 349.292969 17.253906 353.242188 18.777344 357.152344 20.394531 C 361.058594 22.015625 364.925781 23.730469 368.753906 25.539062 C 372.578125 27.347656 376.355469 29.246094 380.089844 31.242188 C 383.820312 33.234375 387.5 35.320312 391.128906 37.496094 C 394.757812 39.667969 398.332031 41.933594 401.851562 44.28125 C 405.371094 46.632812 408.828125 49.066406 412.226562 51.585938 C 415.625 54.105469 418.960938 56.710938 422.230469 59.394531 C 425.503906 62.078125 428.707031 64.839844 431.839844 67.679688 C 434.976562 70.519531 438.039062 73.4375 441.03125 76.425781 C 444.023438 79.417969 446.941406 82.480469 449.78125 85.617188 C 452.625 88.75 455.386719 91.953125 458.070312 95.222656 C 460.757812 98.492188 463.359375 101.824219 465.878906 105.222656 C 468.402344 108.621094 470.835938 112.078125 473.1875 115.597656 C 475.539062 119.113281 477.800781 122.6875 479.976562 126.3125 C 482.152344 129.941406 484.238281 133.621094 486.230469 137.351562 C 488.226562 141.082031 490.128906 144.859375 491.9375 148.683594 C 493.746094 152.507812 495.460938 156.375 497.082031 160.28125 C 498.699219 164.191406 500.222656 168.136719 501.648438 172.121094 C 503.074219 176.101562 504.398438 180.117188 505.628906 184.167969 C 506.855469 188.214844 507.984375 192.289062 509.011719 196.394531 C 510.042969 200.496094 510.96875 204.621094 511.792969 208.773438 C 512.621094 212.921875 513.34375 217.085938 513.964844 221.273438 C 514.585938 225.457031 515.101562 229.652344 515.515625 233.863281 C 515.933594 238.074219 516.242188 242.289062 516.449219 246.515625 C 516.65625 250.742188 516.761719 254.96875 516.761719 259.199219 C 516.761719 263.429688 516.65625 267.65625 516.449219 271.882812 C 516.242188 276.105469 515.933594 280.324219 515.515625 284.535156 C 515.101562 288.742188 514.585938 292.941406 513.964844 297.125 C 513.34375 301.308594 512.621094 305.476562 511.792969 309.625 C 510.96875 313.773438 510.042969 317.898438 509.011719 322.003906 C 507.984375 326.105469 506.855469 330.183594 505.628906 334.230469 C 504.398438 338.277344 503.074219 342.292969 501.648438 346.277344 C 500.222656 350.257812 498.699219 354.203125 497.082031 358.113281 C 495.460938 362.019531 493.746094 365.886719 491.9375 369.710938 C 490.128906 373.535156 488.226562 377.3125 486.230469 381.042969 C 484.238281 384.773438 482.152344 388.453125 479.976562 392.082031 C 477.800781 395.710938 475.539062 399.28125 473.1875 402.800781 C 470.835938 406.316406 468.402344 409.773438 465.878906 413.171875 C 463.359375 416.570312 460.757812 419.902344 458.074219 423.175781 C 455.386719 426.445312 452.625 429.644531 449.78125 432.78125 C 446.941406 435.914062 444.023438 438.976562 441.03125 441.96875 C 438.039062 444.960938 434.976562 447.875 431.839844 450.71875 C 428.707031 453.558594 425.503906 456.320312 422.230469 459.003906 C 418.960938 461.6875 415.625 464.289062 412.226562 466.808594 C 408.828125 469.328125 405.371094 471.765625 401.851562 474.113281 C 398.332031 476.464844 394.757812 478.726562 391.128906 480.902344 C 387.5 483.074219 383.820312 485.160156 380.089844 487.15625 C 376.355469 489.148438 372.578125 491.050781 368.753906 492.859375 C 364.925781 494.667969 361.058594 496.382812 357.152344 498 C 353.242188 499.617188 349.292969 501.140625 345.308594 502.566406 C 341.328125 503.992188 337.308594 505.316406 333.261719 506.546875 C 329.210938 507.773438 325.132812 508.902344 321.03125 509.929688 C 316.925781 510.957031 312.796875 511.882812 308.648438 512.707031 C 304.496094 513.535156 300.328125 514.257812 296.144531 514.878906 C 291.957031 515.5 287.757812 516.015625 283.546875 516.429688 C 279.335938 516.84375 275.117188 517.15625 270.890625 517.363281 C 266.664062 517.570312 262.4375 517.675781 258.207031 517.675781 C 253.972656 517.675781 249.746094 517.570312 245.519531 517.363281 C 241.292969 517.15625 237.074219 516.84375 232.863281 516.429688 C 228.652344 516.015625 224.453125 515.5 220.265625 514.878906 C 216.082031 514.257812 211.914062 513.535156 207.761719 512.707031 C 203.613281 511.882812 199.484375 510.957031 195.382812 509.929688 C 191.277344 508.902344 187.199219 507.773438 183.148438 506.546875 C 179.101562 505.316406 175.085938 503.992188 171.101562 502.566406 C 167.117188 501.140625 163.167969 499.617188 159.261719 498 C 155.351562 496.382812 151.484375 494.667969 147.65625 492.859375 C 143.832031 491.050781 140.054688 489.148438 136.324219 487.15625 C 132.589844 485.160156 128.910156 483.074219 125.28125 480.902344 C 121.652344 478.726562 118.078125 476.464844 114.558594 474.113281 C 111.039062 471.765625 107.582031 469.328125 104.183594 466.808594 C 100.785156 464.289062 97.449219 461.6875 94.179688 459.003906 C 90.90625 456.320312 87.703125 453.558594 84.570312 450.71875 C 81.433594 447.875 78.371094 444.960938 75.378906 441.96875 C 72.386719 438.976562 69.46875 435.914062 66.628906 432.78125 C 63.785156 429.644531 61.023438 426.445312 58.339844 423.175781 C 55.652344 419.902344 53.050781 416.570312 50.53125 413.171875 C 48.011719 409.773438 45.574219 406.316406 43.222656 402.800781 C 40.871094 399.28125 38.609375 395.710938 36.433594 392.082031 C 34.257812 388.453125 32.171875 384.773438 30.179688 381.042969 C 28.183594 377.3125 26.28125 373.535156 24.472656 369.710938 C 22.664062 365.886719 20.949219 362.019531 19.332031 358.113281 C 17.710938 354.203125 16.1875 350.257812 14.761719 346.277344 C 13.335938 342.292969 12.011719 338.277344 10.78125 334.230469 C 9.554688 330.183594 8.425781 326.105469 7.398438 322.003906 C 6.371094 317.898438 5.441406 313.773438 4.617188 309.625 C 3.792969 305.476562 3.066406 301.308594 2.445312 297.125 C 1.828125 292.941406 1.308594 288.742188 0.894531 284.535156 C 0.480469 280.324219 0.167969 276.105469 -0.0390625 271.882812 C -0.246094 267.65625 -0.351562 263.429688 -0.351562 259.199219 Z M -0.351562 259.199219 " clip-rule="nonzero"/></clipPath><clipPath id="da92313b58"><path d="M 203 364 L 517 364 L 517 518 L 203 518 Z M 203 364 " clip-rule="nonzero"/></clipPath><clipPath id="c595b94673"><path d="M -0.351562 259.199219 C -0.351562 254.96875 -0.246094 250.742188 -0.0390625 246.515625 C 0.167969 242.289062 0.480469 238.074219 0.894531 233.863281 C 1.308594 229.652344 1.828125 225.457031 2.445312 221.273438 C 3.066406 217.085938 3.792969 212.921875 4.617188 208.773438 C 5.441406 204.621094 6.371094 200.496094 7.398438 196.394531 C 8.425781 192.289062 9.554688 188.214844 10.78125 184.167969 C 12.011719 180.117188 13.335938 176.101562 14.761719 172.121094 C 16.1875 168.136719 17.710938 164.191406 19.332031 160.28125 C 20.949219 156.375 22.664062 152.507812 24.472656 148.683594 C 26.28125 144.859375 28.183594 141.082031 30.179688 137.351562 C 32.171875 133.621094 34.257812 129.941406 36.433594 126.3125 C 38.609375 122.6875 40.871094 119.113281 43.222656 115.597656 C 45.574219 112.078125 48.011719 108.621094 50.53125 105.222656 C 53.050781 101.824219 55.652344 98.492188 58.339844 95.222656 C 61.023438 91.953125 63.785156 88.75 66.628906 85.617188 C 69.46875 82.480469 72.386719 79.417969 75.378906 76.425781 C 78.371094 73.4375 81.433594 70.519531 84.570312 67.679688 C 87.703125 64.839844 90.90625 62.078125 94.179688 59.394531 C 97.449219 56.710938 100.785156 54.105469 104.183594 51.585938 C 107.582031 49.066406 111.039062 46.632812 114.558594 44.28125 C 118.078125 41.933594 121.652344 39.667969 125.28125 37.496094 C 128.910156 35.320312 132.589844 33.234375 136.324219 31.242188 C 140.054688 29.246094 143.832031 27.347656 147.65625 25.539062 C 151.484375 23.730469 155.351562 22.015625 159.261719 20.394531 C 163.167969 18.777344 167.117188 17.253906 171.101562 15.832031 C 175.085938 14.40625 179.101562 13.078125 183.148438 11.851562 C 187.199219 10.621094 191.277344 9.496094 195.382812 8.46875 C 199.484375 7.4375 203.613281 6.511719 207.761719 5.6875 C 211.914062 4.863281 216.082031 4.140625 220.265625 3.519531 C 224.453125 2.898438 228.652344 2.378906 232.863281 1.964844 C 237.074219 1.550781 241.292969 1.238281 245.519531 1.03125 C 249.746094 0.824219 253.972656 0.722656 258.207031 0.722656 C 262.4375 0.722656 266.664062 0.824219 270.890625 1.03125 C 275.117188 1.238281 279.335938 1.550781 283.546875 1.964844 C 287.757812 2.378906 291.957031 2.898438 296.144531 3.519531 C 300.328125 4.140625 304.496094 4.863281 308.648438 5.6875 C 312.796875 6.511719 316.925781 7.4375 321.03125 8.46875 C 325.132812 9.496094 329.210938 10.621094 333.261719 11.851562 C 337.308594 13.078125 341.328125 14.40625 345.308594 15.832031 C 349.292969 17.253906 353.242188 18.777344 357.152344 20.394531 C 361.058594 22.015625 364.925781 23.730469 368.753906 25.539062 C 372.578125 27.347656 376.355469 29.246094 380.089844 31.242188 C 383.820312 33.234375 387.5 35.320312 391.128906 37.496094 C 394.757812 39.667969 398.332031 41.933594 401.851562 44.28125 C 405.371094 46.632812 408.828125 49.066406 412.226562 51.585938 C 415.625 54.105469 418.960938 56.710938 422.230469 59.394531 C 425.503906 62.078125 428.707031 64.839844 431.839844 67.679688 C 434.976562 70.519531 438.039062 73.4375 441.03125 76.425781 C 444.023438 79.417969 446.941406 82.480469 449.78125 85.617188 C 452.625 88.75 455.386719 91.953125 458.070312 95.222656 C 460.757812 98.492188 463.359375 101.824219 465.878906 105.222656 C 468.402344 108.621094 470.835938 112.078125 473.1875 115.597656 C 475.539062 119.113281 477.800781 122.6875 479.976562 126.3125 C 482.152344 129.941406 484.238281 133.621094 486.230469 137.351562 C 488.226562 141.082031 490.128906 144.859375 491.9375 148.683594 C 493.746094 152.507812 495.460938 156.375 497.082031 160.28125 C 498.699219 164.191406 500.222656 168.136719 501.648438 172.121094 C 503.074219 176.101562 504.398438 180.117188 505.628906 184.167969 C 506.855469 188.214844 507.984375 192.289062 509.011719 196.394531 C 510.042969 200.496094 510.96875 204.621094 511.792969 208.773438 C 512.621094 212.921875 513.34375 217.085938 513.964844 221.273438 C 514.585938 225.457031 515.101562 229.652344 515.515625 233.863281 C 515.933594 238.074219 516.242188 242.289062 516.449219 246.515625 C 516.65625 250.742188 516.761719 254.96875 516.761719 259.199219 C 516.761719 263.429688 516.65625 267.65625 516.449219 271.882812 C 516.242188 276.105469 515.933594 280.324219 515.515625 284.535156 C 515.101562 288.742188 514.585938 292.941406 513.964844 297.125 C 513.34375 301.308594 512.621094 305.476562 511.792969 309.625 C 510.96875 313.773438 510.042969 317.898438 509.011719 322.003906 C 507.984375 326.105469 506.855469 330.183594 505.628906 334.230469 C 504.398438 338.277344 503.074219 342.292969 501.648438 346.277344 C 500.222656 350.257812 498.699219 354.203125 497.082031 358.113281 C 495.460938 362.019531 493.746094 365.886719 491.9375 369.710938 C 490.128906 373.535156 488.226562 377.3125 486.230469 381.042969 C 484.238281 384.773438 482.152344 388.453125 479.976562 392.082031 C 477.800781 395.710938 475.539062 399.28125 473.1875 402.800781 C 470.835938 406.316406 468.402344 409.773438 465.878906 413.171875 C 463.359375 416.570312 460.757812 419.902344 458.074219 423.175781 C 455.386719 426.445312 452.625 429.644531 449.78125 432.78125 C 446.941406 435.914062 444.023438 438.976562 441.03125 441.96875 C 438.039062 444.960938 434.976562 447.875 431.839844 450.71875 C 428.707031 453.558594 425.503906 456.320312 422.230469 459.003906 C 418.960938 461.6875 415.625 464.289062 412.226562 466.808594 C 408.828125 469.328125 405.371094 471.765625 401.851562 474.113281 C 398.332031 476.464844 394.757812 478.726562 391.128906 480.902344 C 387.5 483.074219 383.820312 485.160156 380.089844 487.15625 C 376.355469 489.148438 372.578125 491.050781 368.753906 492.859375 C 364.925781 494.667969 361.058594 496.382812 357.152344 498 C 353.242188 499.617188 349.292969 501.140625 345.308594 502.566406 C 341.328125 503.992188 337.308594 505.316406 333.261719 506.546875 C 329.210938 507.773438 325.132812 508.902344 321.03125 509.929688 C 316.925781 510.957031 312.796875 511.882812 308.648438 512.707031 C 304.496094 513.535156 300.328125 514.257812 296.144531 514.878906 C 291.957031 515.5 287.757812 516.015625 283.546875 516.429688 C 279.335938 516.84375 275.117188 517.15625 270.890625 517.363281 C 266.664062 517.570312 262.4375 517.675781 258.207031 517.675781 C 253.972656 517.675781 249.746094 517.570312 245.519531 517.363281 C 241.292969 517.15625 237.074219 516.84375 232.863281 516.429688 C 228.652344 516.015625 224.453125 515.5 220.265625 514.878906 C 216.082031 514.257812 211.914062 513.535156 207.761719 512.707031 C 203.613281 511.882812 199.484375 510.957031 195.382812 509.929688 C 191.277344 508.902344 187.199219 507.773438 183.148438 506.546875 C 179.101562 505.316406 175.085938 503.992188 171.101562 502.566406 C 167.117188 501.140625 163.167969 499.617188 159.261719 498 C 155.351562 496.382812 151.484375 494.667969 147.65625 492.859375 C 143.832031 491.050781 140.054688 489.148438 136.324219 487.15625 C 132.589844 485.160156 128.910156 483.074219 125.28125 480.902344 C 121.652344 478.726562 118.078125 476.464844 114.558594 474.113281 C 111.039062 471.765625 107.582031 469.328125 104.183594 466.808594 C 100.785156 464.289062 97.449219 461.6875 94.179688 459.003906 C 90.90625 456.320312 87.703125 453.558594 84.570312 450.71875 C 81.433594 447.875 78.371094 444.960938 75.378906 441.96875 C 72.386719 438.976562 69.46875 435.914062 66.628906 432.78125 C 63.785156 429.644531 61.023438 426.445312 58.339844 423.175781 C 55.652344 419.902344 53.050781 416.570312 50.53125 413.171875 C 48.011719 409.773438 45.574219 406.316406 43.222656 402.800781 C 40.871094 399.28125 38.609375 395.710938 36.433594 392.082031 C 34.257812 388.453125 32.171875 384.773438 30.179688 381.042969 C 28.183594 377.3125 26.28125 373.535156 24.472656 369.710938 C 22.664062 365.886719 20.949219 362.019531 19.332031 358.113281 C 17.710938 354.203125 16.1875 350.257812 14.761719 346.277344 C 13.335938 342.292969 12.011719 338.277344 10.78125 334.230469 C 9.554688 330.183594 8.425781 326.105469 7.398438 322.003906 C 6.371094 317.898438 5.441406 313.773438 4.617188 309.625 C 3.792969 305.476562 3.066406 301.308594 2.445312 297.125 C 1.828125 292.941406 1.308594 288.742188 0.894531 284.535156 C 0.480469 280.324219 0.167969 276.105469 -0.0390625 271.882812 C -0.246094 267.65625 -0.351562 263.429688 -0.351562 259.199219 Z M -0.351562 259.199219 " clip-rule="nonzero"/></clipPath><clipPath id="0f62110937"><path d="M 372 125 L 646.5 125 L 646.5 321 L 372 321 Z M 372 125 " clip-rule="nonzero"/></clipPath></defs><g clip-path="url(#296fb9d15c)"><g clip-path="url(#bb9a9ce877)"><path fill="#8f4399" d="M 516.761719 259.199219 C 516.761719 263.429688 516.65625 267.65625 516.449219 271.882812 C 516.242188 276.105469 515.929688 280.324219 515.515625 284.535156 C 515.101562 288.742188 514.585938 292.941406 513.964844 297.125 C 513.34375 301.308594 512.621094 305.476562 511.792969 309.625 C 510.96875 313.773438 510.042969 317.898438 509.011719 322.003906 C 507.984375 326.105469 506.855469 330.183594 505.628906 334.230469 C 504.398438 338.277344 503.074219 342.292969 501.648438 346.277344 C 500.222656 350.257812 498.699219 354.203125 497.082031 358.113281 C 495.460938 362.019531 493.746094 365.886719 491.9375 369.710938 C 490.128906 373.535156 488.226562 377.3125 486.230469 381.042969 C 484.238281 384.773438 482.152344 388.453125 479.976562 392.082031 C 477.800781 395.710938 475.539062 399.28125 473.1875 402.800781 C 470.835938 406.316406 468.402344 409.773438 465.878906 413.171875 C 463.359375 416.570312 460.757812 419.902344 458.070312 423.175781 C 455.386719 426.445312 452.625 429.644531 449.78125 432.78125 C 446.941406 435.914062 444.023438 438.976562 441.03125 441.96875 C 438.039062 444.960938 434.976562 447.875 431.839844 450.71875 C 428.707031 453.558594 425.503906 456.320312 422.230469 459.003906 C 418.960938 461.6875 415.625 464.289062 412.226562 466.808594 C 408.828125 469.328125 405.371094 471.765625 401.851562 474.113281 C 398.332031 476.464844 394.757812 478.726562 391.128906 480.902344 C 387.5 483.074219 383.820312 485.160156 380.089844 487.15625 C 376.355469 489.148438 372.578125 491.050781 368.753906 492.859375 C 364.925781 494.667969 361.058594 496.382812 357.152344 498 C 353.242188 499.617188 349.292969 501.140625 345.308594 502.566406 C 341.328125 503.992188 337.308594 505.316406 333.261719 506.546875 C 329.210938 507.773438 325.132812 508.902344 321.03125 509.929688 C 316.925781 510.957031 312.796875 511.882812 308.648438 512.707031 C 304.496094 513.535156 300.328125 514.257812 296.144531 514.878906 C 291.957031 515.5 287.757812 516.015625 283.546875 516.429688 C 279.335938 516.84375 275.117188 517.15625 270.890625 517.363281 C 266.664062 517.570312 262.4375 517.675781 258.207031 517.675781 C 253.972656 517.675781 249.746094 517.570312 245.519531 517.363281 C 241.292969 517.15625 237.074219 516.84375 232.863281 516.429688 C 228.652344 516.015625 224.453125 515.5 220.265625 514.878906 C 216.082031 514.257812 211.914062 513.535156 207.761719 512.707031 C 203.613281 511.882812 199.484375 510.957031 195.382812 509.929688 C 191.277344 508.902344 187.199219 507.773438 183.148438 506.546875 C 179.101562 505.316406 175.085938 503.992188 171.101562 502.566406 C 167.117188 501.140625 163.167969 499.617188 159.261719 498 C 155.351562 496.382812 151.484375 494.667969 147.65625 492.859375 C 143.832031 491.050781 140.054688 489.148438 136.324219 487.15625 C 132.589844 485.160156 128.910156 483.074219 125.28125 480.902344 C 121.652344 478.726562 118.078125 476.464844 114.558594 474.113281 C 111.039062 471.765625 107.582031 469.328125 104.183594 466.808594 C 100.785156 464.289062 97.449219 461.6875 94.179688 459.003906 C 90.90625 456.320312 87.703125 453.558594 84.570312 450.71875 C 81.433594 447.875 78.371094 444.960938 75.378906 441.96875 C 72.386719 438.976562 69.46875 435.914062 66.628906 432.78125 C 63.785156 429.644531 61.023438 426.445312 58.339844 423.175781 C 55.652344 419.902344 53.050781 416.570312 50.53125 413.171875 C 48.011719 409.773438 45.574219 406.316406 43.222656 402.800781 C 40.871094 399.28125 38.609375 395.710938 36.433594 392.082031 C 34.257812 388.453125 32.171875 384.773438 30.179688 381.042969 C 28.183594 377.3125 26.28125 373.535156 24.472656 369.710938 C 22.664062 365.886719 20.949219 362.019531 19.332031 358.113281 C 17.710938 354.203125 16.1875 350.257812 14.761719 346.277344 C 13.335938 342.292969 12.011719 338.277344 10.78125 334.230469 C 9.554688 330.183594 8.425781 326.105469 7.398438 322.003906 C 6.371094 317.898438 5.441406 313.773438 4.617188 309.625 C 3.792969 305.476562 3.066406 301.308594 2.445312 297.125 C 1.828125 292.941406 1.308594 288.742188 0.894531 284.535156 C 0.480469 280.324219 0.167969 276.105469 -0.0390625 271.882812 C -0.246094 267.65625 -0.351562 263.429688 -0.351562 259.199219 C -0.351562 254.96875 -0.246094 250.742188 -0.0390625 246.515625 C 0.167969 242.289062 0.480469 238.074219 0.894531 233.863281 C 1.308594 229.652344 1.828125 225.457031 2.445312 221.273438 C 3.066406 217.085938 3.792969 212.921875 4.617188 208.773438 C 5.441406 204.621094 6.371094 200.496094 7.398438 196.394531 C 8.425781 192.289062 9.554688 188.214844 10.78125 184.167969 C 12.011719 180.117188 13.335938 176.101562 14.761719 172.121094 C 16.1875 168.136719 17.710938 164.191406 19.332031 160.28125 C 20.949219 156.375 22.664062 152.507812 24.472656 148.683594 C 26.28125 144.859375 28.183594 141.082031 30.179688 137.351562 C 32.171875 133.621094 34.257812 129.941406 36.433594 126.3125 C 38.609375 122.6875 40.871094 119.113281 43.222656 115.597656 C 45.574219 112.078125 48.011719 108.621094 50.53125 105.222656 C 53.050781 101.824219 55.652344 98.492188 58.339844 95.222656 C 61.023438 91.953125 63.785156 88.75 66.628906 85.617188 C 69.46875 82.480469 72.386719 79.417969 75.378906 76.425781 C 78.371094 73.4375 81.433594 70.519531 84.570312 67.679688 C 87.703125 64.839844 90.90625 62.078125 94.179688 59.394531 C 97.449219 56.710938 100.785156 54.105469 104.183594 51.585938 C 107.582031 49.066406 111.039062 46.632812 114.558594 44.28125 C 118.078125 41.933594 121.652344 39.667969 125.28125 37.496094 C 128.910156 35.320312 132.589844 33.234375 136.324219 31.242188 C 140.054688 29.246094 143.832031 27.347656 147.65625 25.539062 C 151.484375 23.730469 155.351562 22.015625 159.261719 20.394531 C 163.167969 18.777344 167.117188 17.253906 171.101562 15.832031 C 175.085938 14.40625 179.101562 13.078125 183.148438 11.851562 C 187.199219 10.621094 191.277344 9.496094 195.382812 8.46875 C 199.484375 7.4375 203.613281 6.511719 207.761719 5.6875 C 211.914062 4.863281 216.082031 4.140625 220.265625 3.519531 C 224.453125 2.898438 228.652344 2.378906 232.863281 1.964844 C 237.074219 1.550781 241.292969 1.238281 245.519531 1.03125 C 249.746094 0.824219 253.972656 0.722656 258.207031 0.722656 C 262.4375 0.722656 266.664062 0.824219 270.890625 1.03125 C 275.117188 1.238281 279.335938 1.550781 283.546875 1.964844 C 287.757812 2.378906 291.957031 2.898438 296.144531 3.519531 C 300.328125 4.140625 304.496094 4.863281 308.648438 5.6875 C 312.796875 6.511719 316.925781 7.4375 321.03125 8.46875 C 325.132812 9.496094 329.210938 10.621094 333.261719 11.851562 C 337.308594 13.078125 341.328125 14.40625 345.308594 15.832031 C 349.292969 17.253906 353.242188 18.777344 357.152344 20.394531 C 361.058594 22.015625 364.925781 23.730469 368.753906 25.539062 C 372.578125 27.347656 376.355469 29.246094 380.089844 31.242188 C 383.820312 33.234375 387.5 35.320312 391.128906 37.496094 C 394.757812 39.667969 398.332031 41.933594 401.851562 44.28125 C 405.371094 46.632812 408.828125 49.066406 412.226562 51.585938 C 415.625 54.105469 418.960938 56.710938 422.230469 59.394531 C 425.503906 62.078125 428.707031 64.839844 431.839844 67.679688 C 434.976562 70.519531 438.039062 73.4375 441.03125 76.425781 C 444.023438 79.417969 446.941406 82.480469 449.78125 85.617188 C 452.625 88.75 455.386719 91.953125 458.070312 95.222656 C 460.757812 98.492188 463.359375 101.824219 465.878906 105.222656 C 468.402344 108.621094 470.835938 112.078125 473.1875 115.597656 C 475.539062 119.113281 477.800781 122.6875 479.976562 126.3125 C 482.152344 129.941406 484.238281 133.621094 486.230469 137.351562 C 488.226562 141.082031 490.128906 144.859375 491.9375 148.683594 C 493.746094 152.507812 495.460938 156.375 497.082031 160.28125 C 498.699219 164.191406 500.222656 168.136719 501.648438 172.121094 C 503.074219 176.101562 504.398438 180.117188 505.628906 184.167969 C 506.855469 188.214844 507.984375 192.289062 509.011719 196.394531 C 510.042969 200.496094 510.96875 204.621094 511.792969 208.773438 C 512.621094 212.921875 513.34375 217.085938 513.964844 221.273438 C 514.585938 225.457031 515.101562 229.652344 515.515625 233.863281 C 515.929688 238.074219 516.242188 242.289062 516.449219 246.515625 C 516.65625 250.742188 516.761719 254.96875 516.761719 259.199219 Z M 516.761719 259.199219 " fill-opacity="1" fill-rule="nonzero"/></g></g><g clip-path="url(#1a826fa495)"><g clip-path="url(#e42572acb3)"><path fill="#ffffff" d="M 226.972656 340.199219 C 226.972656 340.199219 141.398438 343.839844 104.980469 372.355469 C 68.566406 400.875 34.574219 500.988281 34.574219 500.988281 C 34.574219 500.988281 210.09375 583.503906 297.4375 573.191406 C 384.78125 562.875 446.078125 500.988281 446.078125 500.988281 C 446.078125 500.988281 386.058594 370.433594 338.714844 356.480469 C 310.175781 348.0625 281.128906 342.136719 251.574219 338.703125 " fill-opacity="1" fill-rule="nonzero"/></g></g><g clip-path="url(#67e20e246f)"><g clip-path="url(#5199c21262)"><path fill="#371952" d="M 198.355469 344.117188 C 205.101562 393.140625 217.082031 553.578125 217.082031 553.578125 L 316.566406 549.945312 L 258.207031 332.886719 Z M 198.355469 344.117188 " fill-opacity="1" fill-rule="nonzero"/></g></g><g clip-path="url(#23acc4a71c)"><g clip-path="url(#55295d7876)"><path fill="#371952" d="M 315.113281 174.484375 C 341.621094 189.003906 318.746094 239.089844 327.457031 272.125 C 336.171875 305.15625 334.722656 342.539062 274.8125 331.652344 C 214.898438 320.765625 182.589844 353.429688 164.070312 314.953125 C 145.550781 276.476562 165.160156 219.128906 170.605469 185.371094 C 176.050781 151.613281 284.976562 118.945312 315.113281 174.484375 Z M 315.113281 174.484375 " fill-opacity="1" fill-rule="nonzero"/></g></g><g clip-path="url(#c447c958b4)"><g clip-path="url(#a01f42d135)"><path fill="#f7a8a7" d="M 262.019531 337.4375 C 261.019531 344.261719 260.414062 349.054688 260.414062 349.054688 C 260.414062 349.054688 263.75 363.921875 236.738281 364.828125 C 234.832031 364.914062 232.921875 364.867188 231.019531 364.695312 C 229.117188 364.523438 227.234375 364.222656 225.371094 363.792969 C 223.507812 363.367188 221.679688 362.816406 219.894531 362.144531 C 218.105469 361.46875 216.367188 360.679688 214.6875 359.773438 C 213.003906 358.863281 211.390625 357.847656 209.847656 356.722656 C 208.300781 355.597656 206.839844 354.375 205.460938 353.050781 C 204.082031 351.730469 202.796875 350.320312 201.605469 348.824219 C 200.417969 347.328125 199.332031 345.757812 198.355469 344.117188 C 198.355469 344.117188 204.292969 314.050781 207 292.804688 C 207.933594 287.09375 208.035156 281.367188 207.308594 275.625 L 271.652344 293.234375 C 267.929688 300.007812 264.105469 323.171875 262.019531 337.4375 Z M 262.019531 337.4375 " fill-opacity="1" fill-rule="nonzero"/></g></g><g clip-path="url(#c9c0f57810)"><g clip-path="url(#663dd00d9e)"><path fill="#f38296" d="M 271.648438 293.234375 C 267.941406 300.007812 264.105469 323.175781 262.019531 337.4375 C 232.441406 338.488281 212.507812 316.351562 207 292.804688 C 207.933594 287.09375 208.035156 281.367188 207.308594 275.625 Z M 271.648438 293.234375 " fill-opacity="1" fill-rule="nonzero"/></g></g><g clip-path="url(#ece483f6a0)"><g clip-path="url(#46a89c705d)"><path fill="#f7a8a7" d="M 306.84375 195.234375 C 275.085938 239.453125 217.621094 227.261719 217.621094 227.261719 L 211.097656 254.542969 C 211.097656 254.542969 201.175781 223.96875 186.445312 235.203125 C 171.710938 246.441406 185.605469 266.675781 201.84375 266.832031 C 201.84375 266.832031 215.769531 326.105469 267.34375 319.34375 C 297.429688 315.402344 306.539062 281.394531 306.84375 261.671875 C 307.144531 241.949219 306.84375 195.234375 306.84375 195.234375 Z M 306.84375 195.234375 " fill-opacity="1" fill-rule="nonzero"/></g></g><g clip-path="url(#5c1e892b6f)"><g clip-path="url(#ec5e4e18e1)"><path fill="#692c8f" d="M 456.6875 564.09375 L 199.953125 564.09375 C 191.277344 564.09375 186.769531 557.0625 189.867188 548.390625 L 250.066406 380.183594 C 250.488281 379.097656 250.984375 378.042969 251.554688 377.027344 C 252.125 376.007812 252.761719 375.035156 253.472656 374.109375 C 254.179688 373.183594 254.949219 372.308594 255.78125 371.492188 C 256.613281 370.675781 257.5 369.917969 258.441406 369.226562 C 259.378906 368.535156 260.363281 367.914062 261.390625 367.363281 C 262.417969 366.808594 263.480469 366.332031 264.574219 365.929688 C 265.671875 365.53125 266.789062 365.207031 267.929688 364.964844 C 269.074219 364.722656 270.226562 364.5625 271.390625 364.484375 L 528.125 364.484375 C 536.796875 364.484375 541.308594 371.515625 538.210938 380.183594 L 478.011719 548.402344 C 477.589844 549.492188 477.09375 550.542969 476.523438 551.558594 C 475.953125 552.578125 475.316406 553.550781 474.605469 554.476562 C 473.898438 555.402344 473.125 556.273438 472.292969 557.089844 C 471.460938 557.90625 470.574219 558.664062 469.636719 559.351562 C 468.695312 560.042969 467.714844 560.667969 466.683594 561.21875 C 465.65625 561.769531 464.597656 562.246094 463.5 562.648438 C 462.40625 563.046875 461.285156 563.371094 460.144531 563.613281 C 459.003906 563.855469 457.851562 564.015625 456.6875 564.09375 Z M 456.6875 564.09375 " fill-opacity="1" fill-rule="nonzero"/></g></g><g clip-path="url(#da92313b58)"><g clip-path="url(#c595b94673)"><path fill="#7c3b96" d="M 471.253906 564.09375 L 214.519531 564.09375 C 205.847656 564.09375 201.335938 557.0625 204.433594 548.390625 L 264.636719 380.183594 C 265.054688 379.097656 265.550781 378.042969 266.121094 377.027344 C 266.691406 376.007812 267.332031 375.035156 268.039062 374.109375 C 268.746094 373.183594 269.515625 372.308594 270.347656 371.492188 C 271.179688 370.675781 272.066406 369.917969 273.007812 369.226562 C 273.945312 368.535156 274.929688 367.914062 275.957031 367.363281 C 276.984375 366.808594 278.046875 366.332031 279.144531 365.929688 C 280.238281 365.53125 281.355469 365.207031 282.5 364.964844 C 283.640625 364.722656 284.792969 364.5625 285.957031 364.484375 L 542.691406 364.484375 C 551.367188 364.484375 555.875 371.515625 552.777344 380.183594 L 492.578125 548.402344 C 492.160156 549.492188 491.664062 550.542969 491.09375 551.558594 C 490.519531 552.578125 489.882812 553.550781 489.171875 554.476562 C 488.464844 555.402344 487.695312 556.273438 486.863281 557.089844 C 486.027344 557.90625 485.144531 558.664062 484.203125 559.351562 C 483.265625 560.042969 482.28125 560.667969 481.253906 561.21875 C 480.226562 561.769531 479.164062 562.246094 478.066406 562.648438 C 476.972656 563.046875 475.855469 563.371094 474.710938 563.613281 C 473.570312 563.855469 472.417969 564.015625 471.253906 564.09375 Z M 471.253906 564.09375 " fill-opacity="1" fill-rule="nonzero"/></g></g><g clip-path="url(#0f62110937)"><path fill="#9664aa" d="M 388.046875 125.589844 L 630.984375 125.589844 C 632.023438 125.589844 633.046875 125.691406 634.0625 125.894531 C 635.078125 126.097656 636.066406 126.394531 637.023438 126.792969 C 637.980469 127.1875 638.890625 127.675781 639.75 128.25 C 640.613281 128.824219 641.410156 129.480469 642.140625 130.210938 C 642.875 130.945312 643.527344 131.742188 644.105469 132.601562 C 644.679688 133.464844 645.167969 134.371094 645.5625 135.328125 C 645.960938 136.285156 646.257812 137.273438 646.460938 138.289062 C 646.664062 139.304688 646.765625 140.328125 646.765625 141.363281 L 646.765625 304.46875 C 646.765625 305.503906 646.664062 306.527344 646.460938 307.542969 C 646.257812 308.558594 645.960938 309.546875 645.5625 310.503906 C 645.167969 311.460938 644.679688 312.367188 644.105469 313.230469 C 643.527344 314.089844 642.875 314.886719 642.140625 315.621094 C 641.410156 316.351562 640.613281 317.007812 639.75 317.582031 C 638.890625 318.15625 637.980469 318.644531 637.023438 319.039062 C 636.066406 319.4375 635.078125 319.734375 634.0625 319.9375 C 633.046875 320.140625 632.023438 320.242188 630.984375 320.242188 L 388.046875 320.242188 C 387.011719 320.242188 385.984375 320.140625 384.96875 319.9375 C 383.953125 319.734375 382.96875 319.4375 382.007812 319.039062 C 381.050781 318.644531 380.144531 318.15625 379.28125 317.582031 C 378.421875 317.007812 377.625 316.351562 376.890625 315.621094 C 376.160156 314.886719 375.503906 314.089844 374.929688 313.230469 C 374.351562 312.367188 373.867188 311.460938 373.472656 310.503906 C 373.074219 309.546875 372.773438 308.558594 372.574219 307.542969 C 372.371094 306.527344 372.269531 305.503906 372.269531 304.46875 L 372.269531 141.363281 C 372.269531 140.328125 372.371094 139.304688 372.574219 138.289062 C 372.773438 137.273438 373.074219 136.285156 373.46875 135.328125 C 373.867188 134.371094 374.351562 133.464844 374.929688 132.601562 C 375.503906 131.742188 376.160156 130.945312 376.890625 130.210938 C 377.625 129.480469 378.421875 128.824219 379.28125 128.25 C 380.144531 127.675781 381.050781 127.1875 382.007812 126.792969 C 382.96875 126.394531 383.953125 126.097656 384.96875 125.894531 C 385.984375 125.691406 387.011719 125.589844 388.046875 125.589844 Z M 388.046875 125.589844 " fill-opacity="1" fill-rule="nonzero"/></g><path fill="#ffffff" d="M 502.527344 221.664062 C 502.527344 223.121094 502.320312 224.546875 501.914062 225.945312 C 501.503906 227.34375 500.90625 228.65625 500.121094 229.878906 C 499.335938 231.105469 498.394531 232.199219 497.292969 233.152344 C 496.195312 234.109375 494.984375 234.890625 493.660156 235.5 L 440.960938 259.773438 C 440.65625 259.914062 440.347656 260.035156 440.027344 260.136719 C 439.710938 260.238281 439.386719 260.316406 439.058594 260.378906 C 438.730469 260.4375 438.402344 260.480469 438.066406 260.5 C 437.734375 260.515625 437.402344 260.515625 437.070312 260.492188 C 436.734375 260.46875 436.40625 260.425781 436.078125 260.363281 C 435.75 260.296875 435.429688 260.214844 435.113281 260.109375 C 434.796875 260.003906 434.488281 259.882812 434.183594 259.738281 C 433.882812 259.59375 433.59375 259.433594 433.3125 259.253906 C 433.03125 259.074219 432.761719 258.875 432.507812 258.664062 C 432.25 258.449219 432.007812 258.222656 431.78125 257.976562 C 431.554688 257.734375 431.34375 257.476562 431.148438 257.207031 C 430.953125 256.933594 430.773438 256.652344 430.613281 256.359375 C 430.453125 256.070312 430.3125 255.765625 430.191406 255.457031 C 430.070312 255.144531 429.96875 254.828125 429.886719 254.507812 C 429.804688 254.183594 429.742188 253.855469 429.699219 253.523438 C 429.660156 253.195312 429.636719 252.863281 429.640625 252.527344 L 429.640625 252.453125 C 429.636719 251.691406 429.746094 250.945312 429.957031 250.214844 C 430.171875 249.484375 430.484375 248.796875 430.894531 248.15625 C 431.304688 247.511719 431.796875 246.941406 432.367188 246.441406 C 432.941406 245.941406 433.574219 245.53125 434.265625 245.210938 L 484.109375 222.136719 L 484.109375 220.4375 L 434.332031 197.960938 C 433.632812 197.644531 432.992188 197.234375 432.410156 196.734375 C 431.828125 196.234375 431.328125 195.660156 430.914062 195.015625 C 430.496094 194.371094 430.179688 193.679688 429.964844 192.945312 C 429.746094 192.207031 429.636719 191.457031 429.640625 190.6875 C 429.636719 190.355469 429.660156 190.023438 429.699219 189.691406 C 429.742188 189.359375 429.800781 189.03125 429.882812 188.707031 C 429.964844 188.382812 430.070312 188.066406 430.191406 187.753906 C 430.3125 187.441406 430.453125 187.140625 430.613281 186.847656 C 430.773438 186.554688 430.953125 186.273438 431.148438 186 C 431.34375 185.730469 431.554688 185.472656 431.785156 185.226562 C 432.011719 184.984375 432.253906 184.753906 432.511719 184.542969 C 432.769531 184.328125 433.039062 184.128906 433.320312 183.949219 C 433.601562 183.769531 433.894531 183.609375 434.195312 183.464844 C 434.5 183.324219 434.808594 183.199219 435.125 183.09375 C 435.445312 182.992188 435.765625 182.90625 436.09375 182.84375 C 436.421875 182.78125 436.753906 182.738281 437.085938 182.714844 C 437.421875 182.691406 437.753906 182.691406 438.089844 182.710938 C 438.421875 182.730469 438.753906 182.773438 439.082031 182.835938 C 439.410156 182.894531 439.734375 182.976562 440.050781 183.082031 C 440.371094 183.183594 440.679688 183.304688 440.984375 183.445312 L 493.699219 207.839844 C 495.015625 208.449219 496.222656 209.234375 497.316406 210.191406 C 498.414062 211.148438 499.351562 212.238281 500.132812 213.464844 C 500.914062 214.6875 501.507812 216 501.917969 217.394531 C 502.324219 218.789062 502.527344 220.210938 502.527344 221.664062 Z M 502.527344 221.664062 " fill-opacity="1" fill-rule="nonzero"/><path fill="#ffffff" d="M 520.632812 254.558594 C 520.632812 253.992188 520.6875 253.4375 520.796875 252.882812 C 520.90625 252.332031 521.070312 251.792969 521.285156 251.273438 C 521.5 250.753906 521.765625 250.257812 522.078125 249.789062 C 522.390625 249.320312 522.746094 248.886719 523.144531 248.488281 C 523.542969 248.089844 523.976562 247.734375 524.445312 247.421875 C 524.914062 247.109375 525.410156 246.84375 525.929688 246.628906 C 526.453125 246.414062 526.988281 246.25 527.542969 246.140625 C 528.09375 246.03125 528.652344 245.976562 529.214844 245.976562 L 580.820312 245.976562 C 581.386719 245.976562 581.945312 246.03125 582.496094 246.140625 C 583.050781 246.25 583.585938 246.414062 584.105469 246.628906 C 584.628906 246.84375 585.121094 247.109375 585.589844 247.421875 C 586.058594 247.734375 586.492188 248.089844 586.890625 248.488281 C 587.289062 248.886719 587.648438 249.320312 587.960938 249.789062 C 588.273438 250.257812 588.539062 250.753906 588.753906 251.273438 C 588.96875 251.792969 589.132812 252.332031 589.242188 252.882812 C 589.351562 253.4375 589.40625 253.992188 589.40625 254.558594 C 589.40625 255.121094 589.351562 255.679688 589.242188 256.230469 C 589.132812 256.785156 588.96875 257.320312 588.753906 257.839844 C 588.539062 258.363281 588.273438 258.855469 587.960938 259.324219 C 587.648438 259.792969 587.289062 260.226562 586.890625 260.625 C 586.492188 261.023438 586.058594 261.378906 585.589844 261.695312 C 585.121094 262.007812 584.628906 262.269531 584.105469 262.488281 C 583.585938 262.703125 583.050781 262.863281 582.496094 262.976562 C 581.945312 263.085938 581.386719 263.140625 580.820312 263.140625 L 529.210938 263.140625 C 528.648438 263.140625 528.089844 263.085938 527.535156 262.972656 C 526.984375 262.863281 526.445312 262.699219 525.925781 262.484375 C 525.40625 262.269531 524.910156 262.003906 524.445312 261.691406 C 523.976562 261.378906 523.542969 261.023438 523.144531 260.625 C 522.746094 260.226562 522.390625 259.792969 522.078125 259.324219 C 521.765625 258.855469 521.5 258.359375 521.285156 257.839844 C 521.070312 257.320312 520.90625 256.785156 520.796875 256.230469 C 520.6875 255.679688 520.632812 255.121094 520.632812 254.558594 Z M 520.632812 254.558594 " fill-opacity="1" fill-rule="nonzero"/></svg>