<svg xmlns="http://www.w3.org/2000/svg" xmlns:xlink="http://www.w3.org/1999/xlink" width="1366" zoomAndPan="magnify" viewBox="0 0 1024.5 576" height="768" preserveAspectRatio="xMidYMid meet" version="1.0"><path fill="#ccf3e5" d="M 717.488281 292.152344 C 717.488281 321.472656 701.789062 347.964844 676.527344 366.878906 C 662.738281 377.203125 650.339844 389.246094 639.125 402.324219 C 615 430.460938 573.632812 449.019531 526.65625 449.019531 C 469.6875 449.019531 420.96875 421.726562 401.238281 383.152344 C 392.128906 365.339844 377.566406 350.851562 359.484375 342.292969 C 319.195312 323.226562 292.109375 287.707031 292.109375 247.035156 C 292.109375 186.222656 352.664062 136.921875 427.371094 136.921875 C 468.785156 136.921875 505.851562 152.078125 530.664062 175.945312 C 540.425781 185.335938 553.828125 189.910156 567.320312 188.726562 C 572.367188 188.285156 577.492188 188.054688 582.691406 188.054688 C 657.136719 188.054688 717.488281 234.660156 717.488281 292.152344 Z M 717.488281 292.152344 " fill-opacity="1" fill-rule="nonzero"/><path fill="#d4d4d4" d="M 434.691406 243.054688 C 420.722656 248.558594 411.210938 274.097656 411.371094 296.804688 C 411.371094 296.804688 436.082031 440.949219 436.082031 440.949219 C 436.082031 440.949219 459.429688 440.785156 459.429688 440.785156 C 451.667969 360.644531 444.082031 275.304688 434.691406 243.054688 Z M 434.691406 243.054688 " fill-opacity="1" fill-rule="nonzero"/><path stroke-linecap="round" transform="matrix(0.479861, 0, 0, 0.479861, 435.319535, 342.0028)" fill="none" stroke-linejoin="round" d="M -1.308981 -206.201586 C -30.418969 -194.731794 -50.240787 -141.51001 -49.907032 -94.189998 C -49.907032 -94.189998 1.588993 206.198054 1.588993 206.198054 C 1.588993 206.198054 50.244027 205.856158 50.244027 205.856158 C 34.069098 38.848183 18.260485 -138.986493 -1.308981 -206.201586 Z M -1.308981 -206.201586 " stroke="#231f1f" stroke-width="2" stroke-opacity="1" stroke-miterlimit="4"/><path stroke-linecap="round" transform="matrix(0.479861, 0, 0, 0.479861, 369.95287, 305.791052)" fill-opacity="1" fill="#d4d4d4" fill-rule="nonzero" stroke-linejoin="round" d="M 135.920406 -130.7386 C 110.481728 -146.368124 85.588455 -159.986975 61.761572 -169.59262 C 61.761572 -169.59262 -50.103489 -178.701701 -50.103489 -178.701701 C -79.783304 -167.427279 -108.608379 -153.727025 -135.919344 -135.671669 C -135.919344 -135.671669 -78.716914 168.062078 -78.716914 168.062078 C -3.654498 178.050321 56.445905 178.701551 94.412624 165.530421 C 94.412624 165.530421 135.920406 -130.7386 135.920406 -130.7386 Z M 135.920406 -130.7386 " stroke="#231f1f" stroke-width="2" stroke-opacity="1" stroke-miterlimit="4"/><path stroke-linecap="butt" transform="matrix(0.479861, 0, 0, 0.479861, 370.819956, 215.470139)" fill-opacity="1" fill="#ffffff" fill-rule="nonzero" stroke-linejoin="miter" d="M -37.681062 -57.482097 C -37.681062 -57.482097 -34.074875 -5.538351 -34.074875 -5.538351 C -34.074875 -5.538351 17.559537 57.484448 17.559537 57.484448 C 17.559537 57.484448 37.674408 19.900327 37.674408 19.900327 C 37.674408 19.900327 37.674408 -30.219974 37.674408 -30.219974 C 37.674408 -30.219974 -37.681062 -57.482097 -37.681062 -57.482097 Z M -37.681062 -57.482097 " stroke="#231f1f" stroke-width="2" stroke-opacity="1" stroke-miterlimit="10"/><path stroke-linecap="round" transform="matrix(0.479861, 0, 0, 0.479861, 370.819956, 202.389612)" fill-opacity="1" fill="#231f1f" fill-rule="nonzero" stroke-linejoin="round" d="M 36.119596 2.997771 C 36.119596 2.997771 36.119596 20.760073 36.119596 20.760073 C -2.44951 21.500848 -21.67708 5.049146 -36.118109 -21.496624 C -11.680697 -4.190182 10.648357 3.40479 36.119596 2.997771 Z M 36.119596 2.997771 " stroke="#231f1f" stroke-width="2" stroke-opacity="1" stroke-miterlimit="4"/><path stroke-linecap="round" transform="matrix(0.479861, 0, 0, 0.479861, 359.052341, 227.083759)" fill-opacity="1" fill="#d4d4d4" fill-rule="nonzero" stroke-linejoin="round" d="M 42.082499 33.282402 C 42.082499 33.282402 15.373922 18.475056 15.373922 18.475056 C 15.373922 18.475056 0.444471 39.737721 0.444471 39.737721 C 0.444471 39.737721 -42.080859 -17.212357 -42.080859 -17.212357 C -42.080859 -17.212357 -21.070546 -39.73678 -21.070546 -39.73678 C -21.070546 -39.73678 -10.251985 -39.73678 -10.251985 -39.73678 C -10.251985 -39.73678 -9.551912 -29.740397 -9.551912 -29.740397 C -9.551912 -29.740397 42.082499 33.282402 42.082499 33.282402 Z M 42.082499 33.282402 " stroke="#231f1f" stroke-width="2" stroke-opacity="1" stroke-miterlimit="4"/><path stroke-linecap="round" transform="matrix(0.479861, 0, 0, 0.479861, 389.416505, 231.820451)" fill-opacity="1" fill="#d4d4d4" fill-rule="nonzero" stroke-linejoin="round" d="M -21.194491 23.411436 C -21.194491 23.411436 -2.634431 11.640451 -2.634431 11.640451 C -2.634431 11.640451 17.911881 32.398412 17.911881 32.398412 C 17.911881 32.398412 21.200593 -15.442583 21.200593 -15.442583 C 21.200593 -15.442583 -1.079619 -32.398989 -1.079619 -32.398989 C -1.079619 -32.398989 -1.079619 -14.172685 -1.079619 -14.172685 C -1.079619 -14.172685 -21.194491 23.411436 -21.194491 23.411436 Z M -21.194491 23.411436 " stroke="#231f1f" stroke-width="2" stroke-opacity="1" stroke-miterlimit="4"/><path stroke-linecap="round" transform="matrix(0.479861, 0, 0, 0.479861, 377.56347, 246.425504)" fill-opacity="1" fill="#02c37e" fill-rule="nonzero" stroke-linejoin="round" d="M 17.524211 -15.913859 C 19.095303 -1.847288 17.556772 9.996961 12.802792 19.553764 C 12.802792 19.553764 -9.599526 19.553764 -9.599526 19.553764 C -16.062985 9.622504 -18.423694 -4.167295 -19.091205 -19.552608 C -19.091205 -19.552608 3.506481 -7.024567 3.506481 -7.024567 C 3.506481 -7.024567 17.524211 -15.913859 17.524211 -15.913859 Z M 17.524211 -15.913859 " stroke="#231f1f" stroke-width="2" stroke-opacity="1" stroke-miterlimit="4"/><path stroke-linecap="round" transform="matrix(0.479861, 0, 0, 0.479861, 379.42678, 317.470848)" fill-opacity="1" fill="#02c37e" fill-rule="nonzero" stroke-linejoin="round" d="M 8.919773 -128.500223 C 8.919773 -128.500223 25.819195 -22.952094 25.819195 -22.952094 C 21.154759 24.481883 12.1108 75.953486 1.894627 128.49962 C -9.729831 80.609782 -20.344883 30.595306 -25.815216 -30.164468 C -25.815216 -30.164468 -13.474404 -128.500223 -13.474404 -128.500223 C -13.474404 -128.500223 8.919773 -128.500223 8.919773 -128.500223 Z M 8.919773 -128.500223 " stroke="#231f1f" stroke-width="2" stroke-opacity="1" stroke-miterlimit="4"/><path stroke-linecap="round" transform="matrix(0.479861, 0, 0, 0.479861, 373.293163, 396.361932)" fill-opacity="1" fill="#231f1f" fill-rule="nonzero" stroke-linejoin="round" d="M 87.451666 -23.213543 C 87.451666 -23.213543 87.451666 7.027958 87.451666 7.027958 C 34.295004 23.219167 -24.641326 21.216635 -87.452475 7.027958 C -87.452475 7.027958 -85.677873 -20.681886 -85.677873 -20.681886 C -18.46278 -10.433151 40.2619 -10.091255 87.451666 -23.213543 Z M 87.451666 -23.213543 " stroke="#231f1f" stroke-width="2" stroke-opacity="1" stroke-miterlimit="4"/><path stroke-linecap="round" transform="matrix(0.479861, 0, 0, 0.479861, 372.685638, 426.425717)" fill-opacity="1" fill="#231f1f" fill-rule="nonzero" stroke-linejoin="round" d="M 88.717709 -55.623061 C 88.717709 -55.623061 97.574439 55.623331 97.574439 55.623331 C 97.574439 55.623331 -97.574819 55.623331 -97.574819 55.623331 C -97.574819 55.623331 -86.186431 -55.623061 -86.186431 -55.623061 C -86.186431 -55.623061 88.717709 -55.623061 88.717709 -55.623061 Z M 88.717709 -55.623061 " stroke="#231f1f" stroke-width="2" stroke-opacity="1" stroke-miterlimit="4"/><path stroke-linecap="round" transform="matrix(0.479861, 0, 0, 0.479861, 294.675138, 315.810086)" fill-opacity="1" fill="#d4d4d4" fill-rule="nonzero" stroke-linejoin="round" d="M 58.196897 -23.040376 C 58.196897 -23.040376 13.677175 115.663508 13.677175 115.663508 C -0.177747 156.031638 -65.748484 133.515355 -51.885422 93.155366 C -30.370405 -0.0600914 -5.558536 -82.049969 21.597762 -156.029715 C 52.921932 -128.474539 65.743026 -84.687451 58.196897 -23.040376 Z M 58.196897 -23.040376 " stroke="#231f1f" stroke-width="2" stroke-opacity="1" stroke-miterlimit="4"/><path fill="#231f1f" d="M 353.09375 189.988281 C 353.09375 189.988281 354.890625 193.824219 354.890625 193.824219 C 354.890625 193.824219 367.246094 202.34375 367.246094 202.34375 C 367.246094 202.34375 388.960938 206.421875 388.960938 206.421875 C 388.960938 206.421875 389.203125 196.34375 389.203125 196.34375 C 389.203125 196.34375 353.09375 189.988281 353.09375 189.988281 Z M 353.09375 189.988281 " fill-opacity="1" fill-rule="nonzero"/><path stroke-linecap="round" transform="matrix(0.479861, 0, 0, 0.479861, 412.790523, 141.481341)" fill-opacity="1" fill="#231f1f" fill-rule="nonzero" stroke-linejoin="round" d="M 6.883715 -30.577073 C 13.306472 -10.462202 9.187441 9.937583 -3.37316 30.573439 C -3.37316 30.573439 -13.30442 -27.451168 -13.30442 -27.451168 C -13.30442 -27.451168 6.883715 -30.577073 6.883715 -30.577073 Z M 6.883715 -30.577073 " stroke="#231f1f" stroke-width="2" stroke-opacity="1" stroke-miterlimit="4"/><path stroke-linecap="butt" transform="matrix(0.479861, 0, 0, 0.479861, 381.195537, 158.209777)" fill-opacity="1" fill="#ffffff" fill-rule="nonzero" stroke-linejoin="miter" d="M -62.534844 -13.396643 C -62.534844 -13.396643 -61.965018 24.374706 -61.965018 24.374706 C -61.965018 24.374706 -58.741429 69.749168 -58.741429 69.749168 C -28.744139 90.824604 2.98705 101.480357 37.852285 93.274857 C 45.317011 91.516536 51.316469 85.948518 53.669038 78.6466 C 64.023597 46.46769 65.195811 1.874704 57.438032 -54.78232 C 30.672472 -101.483663 -28.556911 -98.634531 -65.196748 -60.097986 C -65.196748 -60.097986 -62.534844 -13.396643 -62.534844 -13.396643 Z M -62.534844 -13.396643 " stroke="#231f1f" stroke-width="2" stroke-opacity="1" stroke-miterlimit="10"/><path stroke-linecap="butt" transform="matrix(0.479861, 0, 0, 0.479861, 344.699218, 158.279835)" fill-opacity="1" fill="#ffffff" fill-rule="nonzero" stroke-linejoin="miter" d="M 13.521169 -13.542639 C 6.178549 -25.696222 -14.196815 -17.718652 -7.993848 2.656711 C -1.383862 19.68638 6.292514 24.057762 14.19682 25.693978 C 14.19682 25.693978 13.521169 -13.542639 13.521169 -13.542639 Z M 13.521169 -13.542639 " stroke="#231f1f" stroke-width="2" stroke-opacity="1" stroke-miterlimit="10"/><path stroke-linecap="round" transform="matrix(0.479861, 0, 0, 0.479861, 350.862558, 138.544123)" fill-opacity="1" fill="#231f1f" fill-rule="nonzero" stroke-linejoin="round" d="M 17.934757 -35.323501 C 32.742103 -12.489744 20.80017 32.518401 1.352809 44.297526 C 1.352809 44.297526 0.677158 27.585332 0.677158 27.585332 C -4.24777 22.456895 -9.555296 19.379832 -16.352511 24.280339 C -30.842382 -3.608593 -32.74723 -26.849369 -18.94115 -44.302337 C -18.94115 -44.302337 17.934757 -35.323501 17.934757 -35.323501 Z M 17.934757 -35.323501 " stroke="#231f1f" stroke-width="2" stroke-opacity="1" stroke-miterlimit="4"/><path stroke-linecap="round" transform="matrix(0.479861, 0, 0, 0.479861, 383.525726, 113.884541)" fill-opacity="1" fill="#231f1f" fill-rule="nonzero" stroke-linejoin="round" d="M 64.735649 -37.205124 C 87.00772 -3.683052 75.489087 21.959136 53.575192 45.175491 C 35.047694 25.361813 2.258255 22.91156 -43.498804 36.261778 C -43.498804 36.261778 -87.009119 7.086667 -87.009119 7.086667 C -83.15058 -32.272056 -39.672827 -45.174553 -6.215877 -25.621368 C 29.927397 -10.594232 54.063615 -13.720137 64.735649 -37.205124 Z M 64.735649 -37.205124 " stroke="#231f1f" stroke-width="2" stroke-opacity="1" stroke-miterlimit="4"/><path stroke-linecap="round" transform="matrix(0.479861, 0, 0, 0.479861, 397.553988, 163.697466)" fill="none" stroke-linejoin="round" d="M -2.847674 -28.634194 C -1.830127 -7.518056 2.736624 10.390773 10.820019 25.092294 C 3.021538 27.892584 -4.141994 28.633358 -10.817103 27.746057 " stroke="#231f1f" stroke-width="2" stroke-opacity="1" stroke-miterlimit="4"/><path stroke-linecap="round" transform="matrix(0.479861, 0, 0, 0.479861, 377.02795, 149.314593)" fill="none" stroke-linejoin="round" d="M 10.442839 -3.667531 C 1.203511 -5.059535 -5.756511 -2.15342 -10.437228 5.058954 " stroke="#231f1f" stroke-width="2" stroke-opacity="1" stroke-miterlimit="4"/><path stroke-linecap="round" transform="matrix(0.479861, 0, 0, 0.479861, 404.280197, 148.74405)" fill="none" stroke-linejoin="round" d="M 8.256537 2.804548 C 4.056102 -0.81792 -1.031634 -2.804172 -8.260288 -0.858622 " stroke="#231f1f" stroke-width="2" stroke-opacity="1" stroke-miterlimit="4"/><path stroke-linecap="round" transform="matrix(0.479861, 0, 0, 0.479861, 380.00353, 158.915664)" fill-opacity="1" fill="#231f1f" fill-rule="nonzero" stroke-linejoin="round" d="M -4.240353 -0.00333759 C -4.240353 4.644818 -2.343645 8.413812 0.00078384 8.413812 C 2.345212 8.413812 4.24192 4.644818 4.24192 -0.00333759 C 4.24192 -4.651493 2.345212 -8.412347 0.00078384 -8.412347 C -2.343645 -8.412347 -4.240353 -4.651493 -4.240353 -0.00333759 Z M -4.240353 -0.00333759 " stroke="#231f1f" stroke-width="2" stroke-opacity="1" stroke-miterlimit="4"/><path stroke-linecap="round" transform="matrix(0.479861, 0, 0, 0.479861, 404.280197, 156.519718)" fill-opacity="1" fill="#231f1f" fill-rule="nonzero" stroke-linejoin="round" d="M -3.351641 -0.000389811 C -3.351641 3.776745 -1.853812 6.837527 0.00219429 6.837527 C 1.85006 6.837527 3.35603 3.776745 3.35603 -0.000389811 C 3.35603 -3.777525 1.85006 -6.838307 0.00219429 -6.838307 C -1.853812 -6.838307 -3.351641 -3.777525 -3.351641 -0.000389811 Z M -3.351641 -0.000389811 " stroke="#231f1f" stroke-width="2" stroke-opacity="1" stroke-miterlimit="4"/><path stroke-linecap="round" transform="matrix(0.479861, 0, 0, 0.479861, 382.341921, 186.213532)" fill="none" stroke-linejoin="round" d="M 15.380984 7.589566 C 3.609999 5.049768 -6.988772 0.56442 -15.37336 -7.592237 " stroke="#231f1f" stroke-width="2" stroke-opacity="1" stroke-miterlimit="4"/><path stroke-linecap="round" transform="matrix(0.479861, 0.000228198, -0.000228198, 0.479861, 600.881519, 206.19759)" fill-opacity="1" fill="#231f1f" fill-rule="nonzero" stroke-linejoin="round" d="M 24.513543 -102.357248 C -28.994923 -140.28225 -96.741876 -77.528412 -87.17064 -12.947196 C -101.106562 22.144465 -94.625454 59.253371 -77.846285 97.374927 C -31.938892 122.474305 74.057313 140.283891 101.100436 56.343722 C 95.298873 10.304497 89.335269 -34.122856 81.710564 -62.407047 C 75.510425 -90.691916 53.453463 -100.523145 24.513543 -102.357248 Z M 24.513543 -102.357248 " stroke="#231f1f" stroke-width="2" stroke-opacity="1" stroke-miterlimit="4"/><path stroke-linecap="round" transform="matrix(0.479861, 0.000228198, -0.000228198, 0.479861, 600.881519, 206.19759)" fill-opacity="1" fill="#231f1f" fill-rule="nonzero" stroke-linejoin="round" d="M 24.513543 -102.357248 C -28.994923 -140.28225 -96.741876 -77.528412 -87.17064 -12.947196 C -101.106562 22.144465 -94.625454 59.253371 -77.846285 97.374927 C -31.938892 122.474305 74.057313 140.283891 101.100436 56.343722 C 95.298873 10.304497 89.335269 -34.122856 81.710564 -62.407047 C 75.510425 -90.691916 53.453463 -100.523145 24.513543 -102.357248 Z M 24.513543 -102.357248 " stroke="#231f1f" stroke-width="2" stroke-opacity="1" stroke-miterlimit="4"/><path stroke-linecap="butt" transform="matrix(0.479861, 0, 0, 0.479861, 549.188621, 353.556888)" fill-opacity="1" fill="#d4d4d4" fill-rule="nonzero" stroke-linejoin="miter" d="M 4.702801 51.173964 C -6.359972 85.217021 -44.424374 72.843648 -33.361602 38.800591 C -33.361602 38.800591 3.986448 -85.218053 3.986448 -85.218053 C 3.986448 -85.218053 44.427841 -55.823151 44.427841 -55.823151 C 44.427841 -55.823151 4.702801 51.173964 4.702801 51.173964 Z M 4.702801 51.173964 " stroke="#231f1f" stroke-width="2" stroke-opacity="1" stroke-miterlimit="10"/><path stroke-linecap="round" transform="matrix(0.479861, 0, 0, 0.479861, 560.844916, 304.282821)" fill-opacity="1" fill="#02c37e" fill-rule="nonzero" stroke-linejoin="round" d="M 12.73726 -64.002919 C -10.015094 -40.542352 -27.378518 -7.785475 -40.451964 32.379145 C -40.451964 32.379145 20.332231 64.00451 20.332231 64.00451 C 20.332231 64.00451 33.576625 14.511018 33.576625 14.511018 C 40.455243 -25.254724 38.86787 -56.701001 12.73726 -64.002919 Z M 12.73726 -64.002919 " stroke="#231f1f" stroke-width="2" stroke-opacity="1" stroke-miterlimit="4"/><path fill="#231f1f" d="M 574.871094 382.753906 C 574.871094 382.753906 638.292969 381.507812 638.292969 381.507812 C 653.964844 434.234375 643.648438 448.152344 643.542969 459.453125 C 619.371094 466.144531 595.027344 465.953125 570.746094 458.257812 C 554.992188 417.199219 569.988281 397.765625 574.871094 382.753906 Z M 574.871094 382.753906 " fill-opacity="1" fill-rule="nonzero"/><path stroke-linecap="round" transform="matrix(0.479861, 0, 0, 0.479861, 607.136178, 472.711701)" fill="none" stroke-linejoin="round" d="M -67.238388 -187.466333 C -67.238388 -187.466333 64.928774 -190.063114 64.928774 -190.063114 C 102.089595 -67.184123 71.091039 -49.185749 75.617089 -26.881116 C 25.244436 -12.93665 -25.234042 -14.084443 -75.834626 -30.120986 C -90.414041 -66.679419 -103.910786 -98.182678 -67.238388 -187.466333 Z M -67.238388 -187.466333 " stroke="#231f1f" stroke-width="2" stroke-opacity="1" stroke-miterlimit="4"/><path stroke-linecap="round" transform="matrix(0.479861, 0, 0, 0.479861, 610.059511, 325.270528)" fill-opacity="1" fill="#02c37e" fill-rule="nonzero" stroke-linejoin="round" d="M -89.920517 -107.406212 C -71.531405 -118.574809 -52.377098 -125.917429 -32.009875 -127.203608 C -32.009875 -127.203608 -15.102312 -110.62166 -15.102312 -110.62166 C -15.102312 -110.62166 28.709198 -138.339644 28.709198 -138.339644 C 28.709198 -138.339644 101.695818 -107.406212 101.695818 -107.406212 C 76.68858 -32.034461 62.01148 42.857008 58.836733 117.194931 C 14.772872 138.34363 -29.282848 137.26096 -73.330428 119.791711 C -69.382345 77.364066 -67.933358 39.804366 -76.187701 21.228026 C -98.695843 4.939132 -101.699642 -26.116407 -84.938606 -72.142098 C -84.181551 -81.593076 -86.501558 -93.974589 -89.920517 -107.406212 Z M -89.920517 -107.406212 " stroke="#231f1f" stroke-width="2" stroke-opacity="1" stroke-miterlimit="4"/><path stroke-linecap="round" transform="matrix(0.479861, 0, 0, 0.479861, 609.267226, 248.856984)" fill-opacity="1" fill="#d4d4d4" fill-rule="nonzero" stroke-linejoin="round" d="M -30.358802 -19.190025 C -30.358802 -19.190025 -30.358802 32.037367 -30.358802 32.037367 C -30.358802 32.037367 -13.451239 48.619315 -13.451239 48.619315 C -13.451239 48.619315 30.36027 20.901332 30.36027 20.901332 C 30.36027 20.901332 29.945111 -48.617488 29.945111 -48.617488 C 29.945111 -48.617488 -30.358802 -19.190025 -30.358802 -19.190025 Z M -30.358802 -19.190025 " stroke="#231f1f" stroke-width="2" stroke-opacity="1" stroke-miterlimit="4"/><path stroke-linecap="round" transform="matrix(0.479861, 0, 0, 0.479861, 608.898214, 238.976163)" fill-opacity="1" fill="#231f1f" fill-rule="nonzero" stroke-linejoin="round" d="M -29.589805 5.609552 C -29.589805 5.609552 -29.589805 22.932275 -29.589805 22.932275 C -4.566286 23.339293 18.308173 4.958322 29.590736 -23.337628 C 12.487804 -7.887193 -10.386656 4.730392 -29.589805 5.609552 Z M -29.589805 5.609552 " stroke="#231f1f" stroke-width="2" stroke-opacity="1" stroke-miterlimit="4"/><path stroke-linecap="round" transform="matrix(0.479861, 0, 0, 0.479861, 592.240816, 228.85925)" fill="none" stroke-linejoin="round" d="M -13.811362 -0.781215 C -2.699748 6.349755 6.507019 4.493749 13.808937 -6.349233 " stroke="#231f1f" stroke-width="2" stroke-opacity="1" stroke-miterlimit="4"/><path stroke-linecap="round" transform="matrix(0.479861, 0, 0, 0.479861, 609.267226, 248.856984)" fill-opacity="1" fill="#d4d4d4" fill-rule="nonzero" stroke-linejoin="round" d="M -30.358802 -19.190025 C -30.358802 -19.190025 -30.358802 32.037367 -30.358802 32.037367 C -30.358802 32.037367 -13.451239 48.619315 -13.451239 48.619315 C -13.451239 48.619315 30.36027 20.901332 30.36027 20.901332 C 30.36027 20.901332 29.945111 -48.617488 29.945111 -48.617488 C 29.945111 -48.617488 -30.358802 -19.190025 -30.358802 -19.190025 Z M -30.358802 -19.190025 " stroke="#231f1f" stroke-width="2" stroke-opacity="1" stroke-miterlimit="4"/><path stroke-linecap="round" transform="matrix(0.479861, 0, 0, 0.479861, 608.898214, 238.976163)" fill-opacity="1" fill="#231f1f" fill-rule="nonzero" stroke-linejoin="round" d="M -29.589805 5.609552 C -29.589805 5.609552 -29.589805 22.932275 -29.589805 22.932275 C -4.566286 23.339293 18.308173 4.958322 29.590736 -23.337628 C 12.487804 -7.887193 -10.386656 4.730392 -29.589805 5.609552 Z M -29.589805 5.609552 " stroke="#231f1f" stroke-width="2" stroke-opacity="1" stroke-miterlimit="4"/><path stroke-linecap="round" transform="matrix(0.479861, 0, 0, 0.479861, 593.946768, 269.05482)" fill-opacity="1" fill="#02c37e" fill-rule="nonzero" stroke-linejoin="round" d="M 1.56806 -17.355561 C -14.077744 -10.908382 -18.473548 -3.565762 -15.111572 4.729282 C -13.052057 9.800737 -8.696955 13.561591 -3.576658 14.969876 C 5.060282 17.355007 12.117989 13.349941 18.475623 6.528305 C 18.475623 6.528305 1.56806 -10.053643 1.56806 -10.053643 C 1.56806 -10.053643 1.56806 -17.355561 1.56806 -17.355561 Z M 1.56806 -17.355561 " stroke="#231f1f" stroke-width="2" stroke-opacity="1" stroke-miterlimit="4"/><path stroke-linecap="round" transform="matrix(0.479861, 0, 0, 0.479861, 617.460379, 268.119536)" fill-opacity="1" fill="#02c37e" fill-rule="nonzero" stroke-linejoin="round" d="M -30.52525 8.477378 C -30.52525 8.477378 13.286259 -19.240605 13.286259 -19.240605 C 13.286259 -19.240605 13.286259 -24.873746 13.286259 -24.873746 C 30.527578 -10.562963 29.949611 3.096589 12.512923 16.145614 C -7.398439 24.872098 -20.821921 20.443733 -30.52525 8.477378 Z M -30.52525 8.477378 " stroke="#231f1f" stroke-width="2" stroke-opacity="1" stroke-miterlimit="4"/><path stroke-linecap="round" transform="matrix(0.479861, 0, 0, 0.479861, 598.848967, 337.301131)" fill="none" stroke-linejoin="round" d="M -42.788553 -3.338284 C -30.814059 0.699343 -17.911561 -2.524246 -5.717276 -5.698993 C -3.568217 -6.260679 -1.362175 -6.822365 0.827587 -6.545593 C 3.91279 -6.146714 6.582833 -4.152322 9.301719 -2.507966 C 19.436489 3.646159 31.280737 5.290516 42.79123 6.829047 " stroke="#231f1f" stroke-width="2" stroke-opacity="1" stroke-miterlimit="4"/><path stroke-linecap="butt" transform="matrix(0.479861, 0, 0, 0.479861, 660.352332, 355.743155)" fill-opacity="1" fill="#d4d4d4" fill-rule="nonzero" stroke-linejoin="miter" d="M -12.708732 49.125159 C -8.304789 84.649765 31.412111 79.724837 27.008167 44.200231 C 27.008167 44.200231 13.869598 -84.645656 13.869598 -84.645656 C 13.869598 -84.645656 -31.407178 -63.464395 -31.407178 -63.464395 C -31.407178 -63.464395 -12.708732 49.125159 -12.708732 49.125159 Z M -12.708732 49.125159 " stroke="#231f1f" stroke-width="2" stroke-opacity="1" stroke-miterlimit="10"/><path stroke-linecap="round" transform="matrix(0.479861, 0, 0, 0.479861, 658.516796, 303.538575)" fill-opacity="1" fill="#02c37e" fill-rule="nonzero" stroke-linejoin="round" d="M 0.713913 -62.118201 C 18.598321 -34.774675 29.425022 0.684807 34.643004 42.607749 C 34.643004 42.607749 -31.033558 62.120233 -31.033558 62.120233 C -31.033558 62.120233 -34.647885 11.014946 -34.647885 11.014946 C -33.850128 -29.328763 -26.32842 -59.904019 0.713913 -62.118201 Z M 0.713913 -62.118201 " stroke="#231f1f" stroke-width="2" stroke-opacity="1" stroke-miterlimit="4"/><path fill="#231f1f" d="M 623.734375 223.097656 C 623.734375 223.097656 594.460938 232.933594 594.460938 232.933594 C 594.460938 232.933594 595.0625 241.8125 595.0625 241.8125 C 595.0625 241.8125 593.863281 246.25 595.0625 245.53125 C 596.261719 244.8125 617.253906 235.8125 622.054688 230.175781 C 626.851562 224.535156 623.734375 223.097656 623.734375 223.097656 Z M 623.734375 223.097656 " fill-opacity="1" fill-rule="nonzero"/><path stroke-linecap="round" transform="matrix(0.479861, 0.000228198, -0.000228198, 0.479861, 592.194495, 206.334532)" fill-opacity="1" fill="#d4d4d4" fill-rule="nonzero" stroke-linejoin="round" d="M -50.006681 -38.517984 C -67.869161 76.074485 7.881075 101.623674 65.365313 43.710102 C 65.365313 43.710102 67.863733 -9.065164 67.863733 -9.065164 C 67.863733 -9.065164 67.863302 -44.20718 67.863302 -44.20718 C 44.766162 -101.62657 -37.152021 -87.76525 -50.006681 -38.517984 Z M -50.006681 -38.517984 " stroke="#231f1f" stroke-width="2" stroke-opacity="1" stroke-miterlimit="4"/><path stroke-linecap="round" transform="matrix(0.479861, 0.000228198, -0.000228198, 0.479861, 630.032931, 208.533507)" fill-opacity="1" fill="#d4d4d4" fill-rule="nonzero" stroke-linejoin="round" d="M -10.991346 -13.610191 C 2.704883 -22.082698 10.699422 -20.637512 12.178912 -7.849681 C 12.64483 -3.820414 12.215337 0.2744 11.215937 4.198538 C 6.820137 21.327986 -2.671186 22.081415 -12.643508 21.329102 C -12.643508 21.329102 -10.991346 -13.610191 -10.991346 -13.610191 Z M -10.991346 -13.610191 " stroke="#231f1f" stroke-width="2" stroke-opacity="1" stroke-miterlimit="4"/><path stroke-linecap="round" transform="matrix(0.479861, 0.000228198, -0.000228198, 0.479861, 585.252475, 207.127328)" fill="none" stroke-linejoin="round" d="M 1.782791 -23.287183 C 0.530637 -3.090307 -2.58062 10.59515 -7.143272 19.217981 C -4.357533 22.855405 1.072304 23.284263 7.144859 22.931339 " stroke="#231f1f" stroke-width="2" stroke-opacity="1" stroke-miterlimit="4"/><path stroke-linecap="round" transform="matrix(0.479861, 0.000228198, -0.000228198, 0.479861, 602.433801, 194.166286)" fill="none" stroke-linejoin="round" d="M -11.146009 -2.93801 C -1.923341 -3.740153 5.160131 -0.91881 11.145526 3.742781 " stroke="#231f1f" stroke-width="2" stroke-opacity="1" stroke-miterlimit="4"/><path stroke-linecap="round" transform="matrix(0.479861, 0.000228198, -0.000228198, 0.479861, 577.845323, 193.96122)" fill="none" stroke-linejoin="round" d="M -8.305111 2.844354 C -2.763543 -1.42384 2.77124 -2.842898 8.307374 -1.420965 " stroke="#231f1f" stroke-width="2" stroke-opacity="1" stroke-miterlimit="4"/><path stroke-linecap="round" transform="matrix(0.479861, 0.000228198, -0.000228198, 0.479861, 599.508165, 205.075981)" fill-opacity="1" fill="#231f1f" fill-rule="nonzero" stroke-linejoin="round" d="M 3.572893 0.00276858 C 3.574778 3.967132 1.972649 7.175204 0.00267745 7.17614 C -1.975434 7.177081 -3.572477 3.962391 -3.574363 -0.00197292 C -3.568107 -3.96634 -1.974119 -7.174408 0.00399298 -7.175349 C 1.973964 -7.176285 3.571007 -3.961595 3.572893 0.00276858 Z M 3.572893 0.00276858 " stroke="#231f1f" stroke-width="2" stroke-opacity="1" stroke-miterlimit="4"/><path stroke-linecap="round" transform="matrix(0.479861, 0.000228198, -0.000228198, 0.479861, 602.077191, 202.460034)" fill-opacity="1" fill="#231f1f" fill-rule="nonzero" stroke-linejoin="round" d="M -5.347102 -1.721335 C -1.260544 -1.536049 2.272036 -2.262223 5.34839 -3.753375 C 4.576591 -0.521278 1.655275 1.751277 -1.88484 3.747354 C -1.88484 3.747354 -5.347102 -1.721335 -5.347102 -1.721335 Z M -5.347102 -1.721335 " stroke="#231f1f" stroke-width="2" stroke-opacity="1" stroke-miterlimit="4"/><path stroke-linecap="round" transform="matrix(0.479861, 0.000228198, -0.000228198, 0.479861, 577.904478, 204.876653)" fill-opacity="1" fill="#231f1f" fill-rule="nonzero" stroke-linejoin="round" d="M -3.569934 -0.00174671 C -3.568049 3.962617 -1.971006 7.177307 -0.00103431 7.17637 C 1.968937 7.175434 3.571066 3.967362 3.569181 0.00299867 C 3.575436 -3.961369 1.970253 -7.176055 0.00028123 -7.175118 C -1.96969 -7.174182 -3.571819 -3.96611 -3.569934 -0.00174671 Z M -3.569934 -0.00174671 " stroke="#231f1f" stroke-width="2" stroke-opacity="1" stroke-miterlimit="4"/><path stroke-linecap="round" transform="matrix(0.479861, 0.000228198, -0.000228198, 0.479861, 575.33845, 202.258264)" fill-opacity="1" fill="#231f1f" fill-rule="nonzero" stroke-linejoin="round" d="M 5.350315 -1.721104 C 1.25579 -1.540069 -2.277478 -2.262882 -5.347109 -3.751112 C -4.572236 -0.51975 -1.656901 1.750029 1.876975 3.750882 C 1.876975 3.750882 5.350315 -1.721104 5.350315 -1.721104 Z M 5.350315 -1.721104 " stroke="#231f1f" stroke-width="2" stroke-opacity="1" stroke-miterlimit="4"/><path stroke-linecap="round" transform="matrix(0.479861, 0.000228198, -0.000228198, 0.479861, 596.664425, 178.079078)" fill-opacity="1" fill="#231f1f" fill-rule="nonzero" stroke-linejoin="round" d="M 16.655693 -14.524202 C 16.516816 18.68047 32.229893 40.310125 58.578747 54.16066 C 58.578747 54.16066 66.084075 -14.523287 66.084075 -14.523287 C -3.347786 -54.158336 -35.441615 -29.290496 -66.077116 -1.899833 C -66.077116 -1.899833 -59.293731 20.369019 -59.293731 20.369019 C -31.512025 17.40899 -5.532369 8.084041 16.655693 -14.524202 Z M 16.655693 -14.524202 " stroke="#231f1f" stroke-width="2" stroke-opacity="1" stroke-miterlimit="4"/><path stroke-linecap="round" transform="matrix(0.479861, 0.000228198, -0.000228198, 0.479861, 592.194495, 206.334532)" fill-opacity="1" fill="#d4d4d4" fill-rule="nonzero" stroke-linejoin="round" d="M -50.006681 -38.517984 C -67.869161 76.074485 7.881075 101.623674 65.365313 43.710102 C 65.365313 43.710102 67.863733 -9.065164 67.863733 -9.065164 C 67.863733 -9.065164 67.863302 -44.20718 67.863302 -44.20718 C 44.766162 -101.62657 -37.152021 -87.76525 -50.006681 -38.517984 Z M -50.006681 -38.517984 " stroke="#231f1f" stroke-width="2" stroke-opacity="1" stroke-miterlimit="4"/><path stroke-linecap="round" transform="matrix(0.479861, 0.000228198, -0.000228198, 0.479861, 630.032931, 208.533507)" fill-opacity="1" fill="#d4d4d4" fill-rule="nonzero" stroke-linejoin="round" d="M -10.991346 -13.610191 C 2.704883 -22.082698 10.699422 -20.637512 12.178912 -7.849681 C 12.64483 -3.820414 12.215337 0.2744 11.215937 4.198538 C 6.820137 21.327986 -2.671186 22.081415 -12.643508 21.329102 C -12.643508 21.329102 -10.991346 -13.610191 -10.991346 -13.610191 Z M -10.991346 -13.610191 " stroke="#231f1f" stroke-width="2" stroke-opacity="1" stroke-miterlimit="4"/><path stroke-linecap="round" transform="matrix(0.479861, 0.000228198, -0.000228198, 0.479861, 585.252475, 207.127328)" fill="none" stroke-linejoin="round" d="M 1.782791 -23.287183 C 0.530637 -3.090307 -2.58062 10.59515 -7.143272 19.217981 C -4.357533 22.855405 1.072304 23.284263 7.144859 22.931339 " stroke="#231f1f" stroke-width="2" stroke-opacity="1" stroke-miterlimit="4"/><path stroke-linecap="round" transform="matrix(0.479861, 0.000228198, -0.000228198, 0.479861, 596.664425, 178.079078)" fill-opacity="1" fill="#231f1f" fill-rule="nonzero" stroke-linejoin="round" d="M 16.655693 -14.524202 C 16.516816 18.68047 32.229893 40.310125 58.578747 54.16066 C 58.578747 54.16066 66.084075 -14.523287 66.084075 -14.523287 C -3.347786 -54.158336 -35.441615 -29.290496 -66.077116 -1.899833 C -66.077116 -1.899833 -59.293731 20.369019 -59.293731 20.369019 C -31.512025 17.40899 -5.532369 8.084041 16.655693 -14.524202 Z M 16.655693 -14.524202 " stroke="#231f1f" stroke-width="2" stroke-opacity="1" stroke-miterlimit="4"/><path stroke-linecap="round" transform="matrix(0.479861, 0.000228198, -0.000228198, 0.479861, 603.556477, 192.530486)" fill="none" stroke-linejoin="round" d="M -11.141167 -2.939927 C -1.918499 -3.74207 5.156833 -0.920723 11.142228 3.740868 " stroke="#231f1f" stroke-width="2" stroke-opacity="1" stroke-miterlimit="4"/><path stroke-linecap="round" transform="matrix(0.479861, 0.000228198, -0.000228198, 0.479861, 576.196823, 191.312082)" fill="none" stroke-linejoin="round" d="M -8.304981 2.845812 C -2.763417 -1.430522 2.771366 -2.84958 8.307504 -1.419506 " stroke="#231f1f" stroke-width="2" stroke-opacity="1" stroke-miterlimit="4"/><path stroke-linecap="round" transform="matrix(0.479861, 0.000228198, -0.000228198, 0.479861, 599.509749, 202.755848)" fill-opacity="1" fill="#231f1f" fill-rule="nonzero" stroke-linejoin="round" d="M 3.569593 0.00239646 C 3.571478 3.96676 1.969349 7.174831 -0.000622077 7.175768 C -1.970593 7.176705 -3.575777 3.962019 -3.569522 -0.00234892 C -3.571407 -3.966713 -1.969278 -7.174784 0.00069346 -7.175721 C 1.970665 -7.176657 3.575848 -3.961971 3.569593 0.00239646 Z M 3.569593 0.00239646 " stroke="#231f1f" stroke-width="2" stroke-opacity="1" stroke-miterlimit="4"/><path stroke-linecap="round" transform="matrix(0.479861, 0.000228198, -0.000228198, 0.479861, 602.078295, 200.139903)" fill-opacity="1" fill="#231f1f" fill-rule="nonzero" stroke-linejoin="round" d="M -5.349402 -1.721712 C -1.254703 -1.536431 2.277876 -2.262604 5.34609 -3.753753 C 4.574291 -0.521655 1.661116 1.750896 -1.879 3.746972 C -1.879 3.746972 -5.349402 -1.721712 -5.349402 -1.721712 Z M -5.349402 -1.721712 " stroke="#231f1f" stroke-width="2" stroke-opacity="1" stroke-miterlimit="4"/><path stroke-linecap="round" transform="matrix(0.479861, 0.000228198, -0.000228198, 0.479861, 577.906349, 201.925028)" fill-opacity="1" fill="#231f1f" fill-rule="nonzero" stroke-linejoin="round" d="M -3.573831 0.00326953 C -3.571945 3.967633 -1.974906 7.174183 0.00320536 7.173242 C 1.973181 7.180446 3.575306 3.964234 3.57342 -0.000129344 C 3.571535 -3.964493 1.974492 -7.179183 -0.00361948 -7.178243 C -1.973591 -7.177306 -3.575716 -3.961094 -3.573831 0.00326953 Z M -3.573831 0.00326953 " stroke="#231f1f" stroke-width="2" stroke-opacity="1" stroke-miterlimit="4"/><path stroke-linecap="round" transform="matrix(0.479861, 0.000228198, -0.000228198, 0.479861, 575.339841, 199.306639)" fill-opacity="1" fill="#231f1f" fill-rule="nonzero" stroke-linejoin="round" d="M 5.347414 -1.724229 C 1.261034 -1.535057 -2.280379 -2.266007 -5.350006 -3.746096 C -4.575137 -0.522875 -1.659798 1.755045 1.882215 3.747754 C 1.882215 3.747754 5.347414 -1.724229 5.347414 -1.724229 Z M 5.347414 -1.724229 " stroke="#231f1f" stroke-width="2" stroke-opacity="1" stroke-miterlimit="4"/><path stroke-linecap="round" transform="matrix(0.479861, 0.000228198, -0.000228198, 0.479861, 598.185547, 225.506394)" fill-opacity="1" fill="#231f1f" fill-rule="nonzero" stroke-linejoin="round" d="M 17.461472 -7.803831 C 18.35026 -4.678348 12.778921 5.459073 3.133871 8.190687 C -6.511175 10.930441 -16.575391 5.236961 -17.456039 2.111475 C -18.34483 -1.022149 -9.911411 -1.05058 -0.266365 -3.790334 C 9.378685 -6.521948 16.572685 -10.929314 17.461472 -7.803831 Z M 17.461472 -7.803831 " stroke="#231f1f" stroke-width="2" stroke-opacity="1" stroke-miterlimit="4"/><path stroke-linecap="round" transform="matrix(0.479861, 0, 0, 0.479861, 496.330517, 67.744415)" fill-opacity="1" fill="#ffffff" fill-rule="nonzero" stroke-linejoin="round" d="M 71.491947 -5.833151 C 71.491947 14.574774 62.944551 32.988307 49.236156 46.01291 C 39.247914 56.351189 31.286625 66.74645 30.179534 77.328941 C 30.179534 77.328941 -30.238344 77.328941 -30.238344 77.328941 C -31.394278 66.29873 -39.982376 55.480169 -50.556725 44.71859 C -50.605568 44.677888 -50.64627 44.637186 -50.686971 44.588344 C -63.548767 31.661426 -71.493775 13.84214 -71.493775 -5.833151 C -71.493775 -45.32212 -39.485813 -77.330082 0.00315622 -77.330082 C 39.483985 -77.330082 71.491947 -45.32212 71.491947 -5.833151 Z M 71.491947 -5.833151 " stroke="#231f1f" stroke-width="2" stroke-opacity="1" stroke-miterlimit="4"/><path stroke-linecap="round" transform="matrix(0.479861, 0, 0, 0.479861, 496.377558, 82.605715)" fill="none" stroke-linejoin="round" d="M -10.197082 48.996415 C -8.520165 26.740624 -8.145707 4.379009 -9.06557 -17.893063 C -9.456308 -27.311479 -10.115678 -36.900843 -13.314847 -45.619187 C -14.47078 -48.785793 -16.807068 -52.302436 -19.900412 -51.691908 C -21.870383 -51.30117 -23.294949 -49.184672 -23.53916 -47.019332 C -23.775231 -44.845851 -23.034457 -42.688651 -21.992488 -40.840785 C -19.21662 -35.907717 -14.381236 -32.757391 -9.374904 -30.828122 C -4.197624 -28.833729 1.435517 -27.962709 6.873288 -28.980256 C 12.319201 -29.997803 17.553463 -33.009743 20.980562 -37.771863 C 22.559795 -39.969765 23.780851 -42.729353 23.349411 -45.47266 C 22.917971 -48.207827 20.280489 -50.568536 17.870938 -49.656814 C 16.902233 -49.290497 16.120757 -48.49274 15.477667 -47.613579 C 13.043694 -44.284165 12.327341 -39.888361 11.847059 -35.687927 C 8.476943 -6.520956 12.278499 23.077455 9.421226 52.301408 " stroke="#231f1f" stroke-width="2" stroke-opacity="1" stroke-miterlimit="4"/><path stroke-linecap="butt" transform="matrix(0.479861, 0, 0, 0.479861, 496.183636, 107.174116)" fill-opacity="1" fill="#02c37e" fill-rule="nonzero" stroke-linejoin="miter" d="M 31.421766 4.838854 C 31.421766 4.838854 -31.421944 4.838854 -31.421944 4.838854 C -31.421944 4.838854 -31.421944 -4.840054 -31.421944 -4.840054 C -31.421944 -4.840054 31.421766 -4.840054 31.421766 -4.840054 C 31.421766 -4.840054 31.421766 4.838854 31.421766 4.838854 Z M 31.421766 4.838854 " stroke="#231f1f" stroke-width="2" stroke-opacity="1" stroke-miterlimit="10"/><path stroke-linecap="butt" transform="matrix(0.479861, 0, 0, 0.479861, 496.183636, 116.050105)" fill-opacity="1" fill="#02c37e" fill-rule="nonzero" stroke-linejoin="miter" d="M 31.421766 4.844933 C 31.421766 4.844933 -31.421944 4.844933 -31.421944 4.844933 C -31.421944 4.844933 -31.421944 -4.842116 -31.421944 -4.842116 C -31.421944 -4.842116 31.421766 -4.842116 31.421766 -4.842116 C 31.421766 -4.842116 31.421766 4.844933 31.421766 4.844933 Z M 31.421766 4.844933 " stroke="#231f1f" stroke-width="2" stroke-opacity="1" stroke-miterlimit="10"/><path stroke-linecap="butt" transform="matrix(0.479861, 0, 0, 0.479861, 496.183636, 111.614761)" fill-opacity="1" fill="#02c37e" fill-rule="nonzero" stroke-linejoin="miter" d="M 33.367317 4.409 C 33.367317 4.409 -33.367494 4.409 -33.367494 4.409 C -33.367494 4.409 -33.367494 -4.407028 -33.367494 -4.407028 C -33.367494 -4.407028 33.367317 -4.407028 33.367317 -4.407028 C 33.367317 -4.407028 33.367317 4.409 33.367317 4.409 Z M 33.367317 4.409 " stroke="#231f1f" stroke-width="2" stroke-opacity="1" stroke-miterlimit="10"/><path stroke-linecap="butt" transform="matrix(0.479861, 0, 0, 0.479861, 496.183636, 120.69469)" fill-opacity="1" fill="#02c37e" fill-rule="nonzero" stroke-linejoin="miter" d="M 27.864422 4.836682 C 27.864422 4.836682 -27.864599 4.836682 -27.864599 4.836682 C -27.864599 4.836682 -27.864599 -4.834086 -27.864599 -4.834086 C -27.864599 -4.834086 27.864422 -4.834086 27.864422 -4.834086 C 27.864422 -4.834086 27.864422 4.836682 27.864422 4.836682 Z M 27.864422 4.836682 " stroke="#231f1f" stroke-width="2" stroke-opacity="1" stroke-miterlimit="10"/><path stroke-linecap="butt" transform="matrix(0.479861, 0.000109662, -0.000109662, 0.479861, 383.626839, 305.896967)" fill-opacity="1" fill="#ffffff" fill-rule="nonzero" stroke-linejoin="miter" d="M -49.000701 0.266614 C -39.275969 -12.9393 -26.661023 -24.485238 -12.686455 -35.25001 C -10.790081 -36.70757 -8.559856 -37.750048 -6.174787 -38.019226 C -2.316345 -38.443407 0.329651 -36.807796 1.958491 -33.462473 C 4.336601 -28.56251 2.921528 -22.644132 -1.04198 -18.898653 C -1.04198 -18.898653 -15.089241 -5.642909 -15.089241 -5.642909 C -7.681755 -6.767974 -0.754801 -8.98374 5.821939 -11.980901 C 14.31147 -15.84138 20.879119 -22.998272 24.426353 -31.619742 C 24.458894 -31.709294 24.499575 -31.798847 24.532116 -31.888399 C 27.851543 -39.972552 39.191007 -40.325179 42.994362 -32.454304 C 43.442293 -31.534544 43.84953 -30.582213 44.224214 -29.589172 C 49.0055 -16.96454 45.882857 -2.693746 37.020316 7.500032 C 29.720316 15.894428 20.100032 23.076439 6.946402 28.411392 C 6.946402 28.411392 -33.150374 40.321787 -33.150374 40.321787 C -33.150374 40.321787 -49.000701 0.266614 -49.000701 0.266614 Z M -49.000701 0.266614 " stroke="#231f1f" stroke-width="2" stroke-opacity="1" stroke-miterlimit="10"/><path fill="#d4d4d4" d="M 294.152344 380.0625 C 277.964844 391.792969 258.441406 364.859375 274.628906 353.128906 C 274.628906 353.128906 361.097656 301.875 361.097656 301.875 C 361.097656 301.875 372.433594 325.695312 372.433594 325.695312 C 372.433594 325.695312 294.152344 380.0625 294.152344 380.0625 Z M 294.152344 380.0625 " fill-opacity="1" fill-rule="nonzero"/><path stroke-linecap="butt" transform="matrix(0.479861, 0.000109662, -0.000109662, 0.479861, 333.295791, 340.971498)" fill="none" stroke-linejoin="miter" d="M 57.918701 -81.487856 C 57.918701 -81.487856 81.553418 -31.853238 81.553418 -31.853238 C 81.553418 -31.853238 -81.553837 81.481803 -81.553837 81.481803 " stroke="#231f1f" stroke-width="2" stroke-opacity="1" stroke-miterlimit="10"/><path stroke-linecap="round" transform="matrix(0.479861, 0.000109662, -0.000109662, 0.479861, 278.765297, 372.58187)" fill="none" stroke-linejoin="round" d="M -16.393943 -35.21933 C -32.063876 1.68458 -0.447129 35.215708 32.06919 15.581828 " stroke="#231f1f" stroke-width="2" stroke-opacity="1" stroke-miterlimit="4"/><path stroke-linecap="round" transform="matrix(0.479861, 0.000109662, -0.000109662, 0.479861, 326.606946, 322.319692)" fill="none" stroke-linejoin="round" d="M -71.864728 42.616308 C -71.864728 42.616308 71.866711 -42.621864 71.866711 -42.621864 " stroke="#231f1f" stroke-width="2" stroke-opacity="1" stroke-miterlimit="4"/><path stroke-linecap="round" transform="matrix(0.479861, 0.0000582554, -0.0000582554, 0.479861, 498.217364, 314.075533)" fill-opacity="1" fill="#d4d4d4" fill-rule="nonzero" stroke-linejoin="round" d="M 31.924564 26.824068 C 29.83895 13.010102 25.180934 -1.161729 19.326262 -15.504363 C 18.536409 -17.449817 17.388396 -19.256841 15.833414 -20.656797 C 13.325904 -22.919518 10.940742 -23.17972 8.653467 -21.771157 C 5.332441 -19.72752 4.063054 -15.51065 5.23572 -11.79064 C 5.23572 -11.79064 10.675597 5.547702 10.675597 5.547702 C 5.978048 1.005942 1.988654 -4.008046 -1.487939 -9.380272 C -5.982267 -16.299047 -8.002068 -24.431039 -7.433161 -32.009799 C -7.327499 -33.344833 -7.229973 -34.655446 -7.132445 -35.941637 C -6.726084 -41.363178 -12.148079 -45.514112 -17.178582 -43.453986 C -19.205435 -42.623421 -21.126415 -41.393991 -22.949662 -39.765694 C -29.241488 -34.123649 -31.926761 -25.461962 -30.631426 -17.101952 C -28.953195 -6.283595 -24.759531 4.998459 -16.332777 17.061474 C -16.332777 17.061474 7.074261 45.50925 7.074261 45.50925 " stroke="#231f1f" stroke-width="2" stroke-opacity="1" stroke-miterlimit="4"/><path fill="#d4d4d4" d="M 547.402344 372.957031 C 555.734375 382.707031 540.988281 395.3125 532.652344 385.566406 C 532.652344 385.566406 501.609375 335.914062 501.609375 335.914062 C 501.609375 335.914062 513.535156 326.949219 513.535156 326.949219 C 513.535156 326.949219 547.402344 372.957031 547.402344 372.957031 Z M 547.402344 372.957031 " fill-opacity="1" fill-rule="nonzero"/><path stroke-linecap="round" transform="matrix(0.479861, 0.0000582554, -0.0000582554, 0.479861, 525.33855, 342.984704)" fill="none" stroke-linejoin="round" d="M 24.606972 33.420716 C 24.606972 33.420716 -24.60158 -33.413946 -24.60158 -33.413946 " stroke="#231f1f" stroke-width="2" stroke-opacity="1" stroke-miterlimit="4"/><path stroke-linecap="round" transform="matrix(0.479861, 0.0000582554, -0.0000582554, 0.479861, 525.914725, 363.796363)" fill="none" stroke-linejoin="round" d="M 50.660559 36.024226 C 43.889871 53.372192 25.566456 58.095835 14.046277 45.365684 C 14.046277 45.365684 -50.65786 -58.098793 -50.65786 -58.098793 " stroke="#231f1f" stroke-width="2" stroke-opacity="1" stroke-miterlimit="4"/><path stroke-linecap="round" transform="matrix(0.479861, -0.0000582554, 0.0000582554, 0.479861, 718.601134, 326.772255)" fill-opacity="1" fill="#d4d4d4" fill-rule="nonzero" stroke-linejoin="round" d="M -36.299451 19.795454 C -31.633417 6.633031 -24.378759 -6.398832 -15.911192 -19.373565 C -14.763186 -21.123606 -13.289588 -22.68638 -11.490433 -23.768832 C -8.600388 -25.510522 -6.215281 -25.314863 -4.23739 -23.499319 C -1.364157 -20.861488 -0.925109 -16.481912 -2.77339 -13.055037 C -2.77339 -13.055037 -11.404132 2.939756 -11.404132 2.939756 C -5.933366 -0.625065 -1.056773 -4.800487 3.372151 -9.407402 C 9.095558 -15.349183 12.621264 -22.951867 13.501341 -30.497889 C 13.65617 -31.832892 13.802855 -33.135335 13.957677 -34.413355 C 14.585143 -39.81849 20.690795 -42.862249 25.240904 -39.882319 C 27.072343 -38.685461 28.724649 -37.114168 30.205962 -35.168438 C 35.317301 -28.435726 36.301193 -19.424209 33.442954 -11.463267 C 29.745972 -1.157999 23.492914 9.122538 12.933601 19.369991 C 12.933601 19.369991 -15.454745 42.859673 -15.454745 42.859673 " stroke="#231f1f" stroke-width="2" stroke-opacity="1" stroke-miterlimit="4"/><path fill="#d4d4d4" d="M 659.199219 375.023438 C 649.167969 383.011719 661.257812 398.1875 671.289062 390.199219 C 671.289062 390.199219 711.1875 347.339844 711.1875 347.339844 C 711.1875 347.339844 701.183594 336.273438 701.183594 336.273438 C 701.183594 336.273438 659.199219 375.023438 659.199219 375.023438 Z M 659.199219 375.023438 " fill-opacity="1" fill-rule="nonzero"/><path stroke-linecap="round" transform="matrix(0.479861, -0.0000582554, 0.0000582554, 0.479861, 686.54877, 349.779728)" fill="none" stroke-linejoin="round" d="M -30.501218 28.140752 C -30.501218 28.140752 30.50146 -28.142549 30.50146 -28.142549 " stroke="#231f1f" stroke-width="2" stroke-opacity="1" stroke-miterlimit="4"/><path stroke-linecap="round" transform="matrix(0.479861, -0.0000582554, 0.0000582554, 0.479861, 683.040243, 371.246231)" fill="none" stroke-linejoin="round" d="M -58.664853 23.371754 C -55.305102 41.696151 -38.219435 49.806041 -24.493508 39.493849 C -24.493508 39.493849 58.663145 -49.812272 58.663145 -49.812272 " stroke="#231f1f" stroke-width="2" stroke-opacity="1" stroke-miterlimit="4"/><path stroke-linecap="round" transform="matrix(0.479861, 0, 0, 0.479861, 493.98734, 433.335232)" fill-opacity="1" fill="#d4d4d4" fill-rule="nonzero" stroke-linejoin="round" d="M 513.529504 50.691598 C 513.529504 50.691598 -513.533723 50.691598 -513.533723 50.691598 C -513.533723 50.691598 -415.86548 -50.688658 -415.86548 -50.688658 C -415.86548 -50.688658 440.477761 -50.688658 440.477761 -50.688658 C 440.477761 -50.688658 513.529504 50.691598 513.529504 50.691598 Z M 513.529504 50.691598 " stroke="#231f1f" stroke-width="2" stroke-opacity="1" stroke-miterlimit="4"/><path stroke-linecap="round" transform="matrix(0.479861, 0, 0, 0.479861, 367.191755, 435.630432)" fill-opacity="1" fill="#ffffff" fill-rule="nonzero" stroke-linejoin="round" d="M -88.852943 33.795666 C -88.852943 33.795666 -32.171497 -35.747575 -32.171497 -35.747575 C -32.171497 -35.747575 88.851488 -35.747575 88.851488 -35.747575 C 88.851488 -35.747575 50.551014 35.741216 50.551014 35.741216 C 50.551014 35.741216 -88.852943 33.795666 -88.852943 33.795666 Z M -88.852943 33.795666 " stroke="#231f1f" stroke-width="2" stroke-opacity="1" stroke-miterlimit="4"/><path stroke-linecap="round" transform="matrix(0.479861, 0, 0, 0.479861, 245.163548, 406.611316)" fill="none" stroke-linejoin="round" d="M 194.214186 78.859928 C 194.214186 78.859928 292.509239 78.859928 292.509239 78.859928 " stroke="#231f1f" stroke-width="2" stroke-opacity="1" stroke-miterlimit="4"/><path stroke-linecap="round" transform="matrix(0.479861, 0, 0, 0.479861, 245.163548, 406.611316)" fill="none" stroke-linejoin="round" d="M 208.508688 63.026895 C 208.508688 63.026895 306.811881 63.026895 306.811881 63.026895 " stroke="#231f1f" stroke-width="2" stroke-opacity="1" stroke-miterlimit="4"/><path stroke-linecap="round" transform="matrix(0.479861, 0, 0, 0.479861, 245.163548, 406.611316)" fill="none" stroke-linejoin="round" d="M 199.277501 70.68699 C 199.277501 70.68699 302.871939 70.68699 302.871939 70.68699 " stroke="#231f1f" stroke-width="2" stroke-opacity="1" stroke-miterlimit="4"/><path stroke-linecap="round" transform="matrix(0.479861, 0, 0, 0.479861, 374.644934, 426.93151)" fill-opacity="1" fill="#02c37e" fill-rule="nonzero" stroke-linejoin="round" d="M -42.721539 -9.698986 C -42.721539 -9.698986 -57.406779 9.699532 -57.406779 9.699532 C -57.406779 9.699532 44.47004 9.699532 44.47004 9.699532 C 44.47004 9.699532 57.405099 -9.698986 57.405099 -9.698986 C 57.405099 -9.698986 -42.721539 -9.698986 -42.721539 -9.698986 Z M -42.721539 -9.698986 " stroke="#231f1f" stroke-width="2" stroke-opacity="1" stroke-miterlimit="4"/><path stroke-linecap="round" transform="matrix(0.479861, 0, 0, 0.479861, 349.222383, 431.587085)" fill-opacity="1" fill="#ffffff" fill-rule="nonzero" stroke-linejoin="round" d="M -88.851645 33.796453 C -88.851645 33.796453 -32.1702 -35.746788 -32.1702 -35.746788 C -32.1702 -35.746788 88.852785 -35.746788 88.852785 -35.746788 C 88.852785 -35.746788 50.552311 35.742003 50.552311 35.742003 C 50.552311 35.742003 -88.851645 33.796453 -88.851645 33.796453 Z M -88.851645 33.796453 " stroke="#231f1f" stroke-width="2" stroke-opacity="1" stroke-miterlimit="4"/><path stroke-linecap="round" transform="matrix(0.479861, 0, 0, 0.479861, 245.163548, 406.611316)" fill="none" stroke-linejoin="round" d="M 156.768452 70.434638 C 156.768452 70.434638 255.063505 70.434638 255.063505 70.434638 " stroke="#231f1f" stroke-width="2" stroke-opacity="1" stroke-miterlimit="4"/><path stroke-linecap="round" transform="matrix(0.479861, 0, 0, 0.479861, 245.163548, 406.611316)" fill="none" stroke-linejoin="round" d="M 171.062954 54.601605 C 171.062954 54.601605 269.366147 54.601605 269.366147 54.601605 " stroke="#231f1f" stroke-width="2" stroke-opacity="1" stroke-miterlimit="4"/><path stroke-linecap="round" transform="matrix(0.479861, 0, 0, 0.479861, 245.163548, 406.611316)" fill="none" stroke-linejoin="round" d="M 161.831767 62.2617 C 161.831767 62.2617 265.426205 62.2617 265.426205 62.2617 " stroke="#231f1f" stroke-width="2" stroke-opacity="1" stroke-miterlimit="4"/><path stroke-linecap="round" transform="matrix(0.479861, 0, 0, 0.479861, 245.163548, 406.611316)" fill="none" stroke-linejoin="round" d="M 175.621565 43.880728 C 175.621565 43.880728 273.916618 43.880728 273.916618 43.880728 " stroke="#231f1f" stroke-width="2" stroke-opacity="1" stroke-miterlimit="4"/><path stroke-linecap="round" transform="matrix(0.479861, 0, 0, 0.479861, 245.163548, 406.611316)" fill="none" stroke-linejoin="round" d="M 189.916067 28.047695 C 189.916067 28.047695 288.21112 28.047695 288.21112 28.047695 " stroke="#231f1f" stroke-width="2" stroke-opacity="1" stroke-miterlimit="4"/><path stroke-linecap="round" transform="matrix(0.479861, 0, 0, 0.479861, 245.163548, 406.611316)" fill="none" stroke-linejoin="round" d="M 180.68488 35.70779 C 180.68488 35.70779 284.279318 35.70779 284.279318 35.70779 " stroke="#231f1f" stroke-width="2" stroke-opacity="1" stroke-miterlimit="4"/><path stroke-linecap="round" transform="matrix(0.479861, 0, 0, 0.479861, 555.767075, 433.608771)" fill-opacity="1" fill="#ffffff" fill-rule="nonzero" stroke-linejoin="round" d="M -252.257024 -31.534561 C -252.257024 -31.534561 245.103731 -31.534561 245.103731 -31.534561 C 245.103731 -31.534561 282.891361 31.52894 282.891361 31.52894 C 282.891361 31.52894 -282.889262 31.52894 -282.889262 31.52894 C -282.889262 31.52894 -252.257024 -31.534561 -252.257024 -31.534561 Z M -252.257024 -31.534561 " stroke="#231f1f" stroke-width="2" stroke-opacity="1" stroke-miterlimit="4"/><path fill="#ffffff" d="M 438.394531 422.277344 C 438.394531 422.277344 427.859375 444.453125 427.859375 444.453125 C 427.859375 444.453125 518.523438 444.453125 518.523438 444.453125 C 518.523438 444.453125 521.707031 422.277344 521.707031 422.277344 C 521.707031 422.277344 438.394531 422.277344 438.394531 422.277344 Z M 438.394531 422.277344 " fill-opacity="1" fill-rule="nonzero"/><path stroke-linecap="round" transform="matrix(0.479861, 0, 0, 0.479861, 439.216481, 423.575836)" fill="none" stroke-linejoin="round" d="M 4.286566 -2.705974 C 4.286566 -2.705974 -1.712891 -2.705974 -1.712891 -2.705974 C -1.712891 -2.705974 -4.285251 2.707376 -4.285251 2.707376 " stroke="#231f1f" stroke-width="2" stroke-opacity="1" stroke-miterlimit="4"/><path fill="#231f1f" d="M 434.90625 430.742188 L 432.886719 434.984375 L 432.167969 436.496094 C 432.113281 436.617188 432.023438 436.699219 431.898438 436.742188 C 431.773438 436.789062 431.648438 436.78125 431.53125 436.722656 C 431.410156 436.667969 431.328125 436.578125 431.285156 436.453125 C 431.238281 436.328125 431.246094 436.203125 431.300781 436.085938 L 432.019531 434.574219 L 434.039062 430.328125 C 434.09375 430.207031 434.183594 430.125 434.308594 430.082031 C 434.433594 430.039062 434.558594 430.042969 434.675781 430.101562 C 434.796875 430.15625 434.878906 430.25 434.921875 430.375 C 434.96875 430.5 434.960938 430.621094 434.90625 430.742188 Z M 434.90625 430.742188 " fill-opacity="1" fill-rule="nonzero"/><path stroke-linecap="round" transform="matrix(0.479861, 0, 0, 0.479861, 429.298234, 443.151289)" fill="none" stroke-linejoin="round" d="M -0.426132 -2.708548 C -0.426132 -2.708548 -2.998491 2.712943 -2.998491 2.712943 C -2.998491 2.712943 3.000967 2.712943 3.000967 2.712943 " stroke="#231f1f" stroke-width="2" stroke-opacity="1" stroke-miterlimit="4"/><path fill="#231f1f" d="M 436.398438 443.972656 L 441.914062 443.972656 C 442.046875 443.972656 442.160156 444.019531 442.253906 444.113281 C 442.347656 444.207031 442.394531 444.320312 442.394531 444.453125 C 442.394531 444.582031 442.347656 444.695312 442.253906 444.789062 C 442.160156 444.882812 442.046875 444.929688 441.914062 444.929688 L 436.398438 444.929688 C 436.265625 444.929688 436.152344 444.882812 436.058594 444.789062 C 435.964844 444.695312 435.917969 444.582031 435.917969 444.453125 C 435.917969 444.320312 435.964844 444.207031 436.058594 444.113281 C 436.152344 444.019531 436.265625 443.972656 436.398438 443.972656 Z M 447.664062 443.972656 L 453.335938 443.972656 C 453.46875 443.972656 453.582031 444.019531 453.675781 444.113281 C 453.769531 444.207031 453.816406 444.320312 453.816406 444.453125 C 453.816406 444.582031 453.769531 444.695312 453.675781 444.789062 C 453.582031 444.882812 453.46875 444.929688 453.335938 444.929688 L 447.664062 444.929688 C 447.53125 444.929688 447.417969 444.882812 447.324219 444.789062 C 447.230469 444.695312 447.183594 444.582031 447.183594 444.453125 C 447.183594 444.320312 447.230469 444.207031 447.324219 444.113281 C 447.417969 444.019531 447.53125 443.972656 447.664062 443.972656 Z M 458.992188 443.972656 L 464.59375 443.972656 C 464.726562 443.972656 464.839844 444.019531 464.933594 444.113281 C 465.027344 444.207031 465.074219 444.320312 465.074219 444.453125 C 465.074219 444.582031 465.027344 444.695312 464.933594 444.789062 C 464.839844 444.882812 464.726562 444.929688 464.59375 444.929688 L 458.992188 444.929688 C 458.859375 444.929688 458.746094 444.882812 458.652344 444.789062 C 458.558594 444.695312 458.511719 444.582031 458.511719 444.453125 C 458.511719 444.320312 458.558594 444.207031 458.652344 444.113281 C 458.746094 444.019531 458.859375 443.972656 458.992188 443.972656 Z M 470.277344 443.972656 L 476.050781 443.972656 C 476.183594 443.972656 476.296875 444.019531 476.390625 444.113281 C 476.484375 444.207031 476.53125 444.320312 476.53125 444.453125 C 476.53125 444.582031 476.484375 444.695312 476.390625 444.789062 C 476.296875 444.882812 476.183594 444.929688 476.050781 444.929688 L 470.277344 444.929688 C 470.144531 444.929688 470.03125 444.882812 469.9375 444.789062 C 469.84375 444.695312 469.796875 444.582031 469.796875 444.453125 C 469.796875 444.320312 469.84375 444.207031 469.9375 444.113281 C 470.03125 444.019531 470.144531 443.972656 470.277344 443.972656 Z M 481.792969 443.972656 L 487.390625 443.972656 C 487.523438 443.972656 487.636719 444.019531 487.730469 444.113281 C 487.824219 444.207031 487.871094 444.320312 487.871094 444.453125 C 487.871094 444.582031 487.824219 444.695312 487.730469 444.789062 C 487.636719 444.882812 487.523438 444.929688 487.390625 444.929688 L 481.792969 444.929688 C 481.660156 444.929688 481.546875 444.882812 481.453125 444.789062 C 481.359375 444.695312 481.3125 444.582031 481.3125 444.453125 C 481.3125 444.320312 481.359375 444.207031 481.453125 444.113281 C 481.546875 444.019531 481.660156 443.972656 481.792969 443.972656 Z M 493.066406 443.972656 L 498.757812 443.972656 C 498.886719 443.972656 499 444.019531 499.09375 444.113281 C 499.1875 444.207031 499.234375 444.320312 499.234375 444.453125 C 499.234375 444.582031 499.1875 444.695312 499.09375 444.789062 C 499 444.882812 498.886719 444.929688 498.757812 444.929688 L 493.066406 444.929688 C 492.933594 444.929688 492.820312 444.882812 492.726562 444.789062 C 492.632812 444.695312 492.585938 444.582031 492.585938 444.453125 C 492.585938 444.320312 492.632812 444.207031 492.726562 444.113281 C 492.820312 444.019531 492.933594 443.972656 493.066406 443.972656 Z M 504.429688 443.972656 L 510.023438 443.972656 C 510.152344 443.972656 510.265625 444.019531 510.359375 444.113281 C 510.453125 444.207031 510.5 444.320312 510.5 444.453125 C 510.5 444.582031 510.453125 444.695312 510.359375 444.789062 C 510.265625 444.882812 510.152344 444.929688 510.023438 444.929688 L 504.429688 444.929688 C 504.296875 444.929688 504.183594 444.882812 504.089844 444.789062 C 503.996094 444.695312 503.949219 444.582031 503.949219 444.453125 C 503.949219 444.320312 503.996094 444.207031 504.089844 444.113281 C 504.183594 444.019531 504.296875 443.972656 504.429688 443.972656 Z M 504.429688 443.972656 " fill-opacity="1" fill-rule="nonzero"/><path stroke-linecap="round" transform="matrix(0.479861, 0, 0, 0.479861, 517.286496, 443.02655)" fill="none" stroke-linejoin="round" d="M -3.429892 2.972892 C -3.429892 2.972892 2.577707 2.972892 2.577707 2.972892 C 2.577707 2.972892 3.424306 -2.969583 3.424306 -2.969583 " stroke="#231f1f" stroke-width="2" stroke-opacity="1" stroke-miterlimit="4"/><path fill="#231f1f" d="M 519.246094 436.042969 L 519.835938 431.921875 L 520.046875 430.453125 C 520.066406 430.324219 520.128906 430.21875 520.234375 430.136719 C 520.339844 430.058594 520.460938 430.027344 520.589844 430.046875 C 520.722656 430.066406 520.828125 430.128906 520.90625 430.234375 C 520.984375 430.339844 521.015625 430.460938 520.996094 430.589844 L 520.785156 432.058594 L 520.195312 436.175781 C 520.175781 436.308594 520.113281 436.414062 520.007812 436.492188 C 519.902344 436.574219 519.78125 436.601562 519.652344 436.585938 C 519.519531 436.566406 519.414062 436.503906 519.335938 436.398438 C 519.257812 436.289062 519.226562 436.171875 519.246094 436.042969 Z M 519.246094 436.042969 " fill-opacity="1" fill-rule="nonzero"/><path stroke-linecap="round" transform="matrix(0.479861, 0, 0, 0.479861, 520.267401, 423.700599)" fill="none" stroke-linejoin="round" d="M 2.145357 2.968362 C 2.145357 2.968362 3.000097 -2.965973 3.000097 -2.965973 C 3.000097 -2.965973 -2.999361 -2.965973 -2.999361 -2.965973 " stroke="#231f1f" stroke-width="2" stroke-opacity="1" stroke-miterlimit="4"/><path fill="#231f1f" d="M 512.863281 422.753906 L 506.949219 422.753906 C 506.816406 422.753906 506.703125 422.707031 506.609375 422.613281 C 506.515625 422.523438 506.46875 422.410156 506.46875 422.277344 C 506.46875 422.144531 506.515625 422.03125 506.609375 421.9375 C 506.703125 421.84375 506.816406 421.796875 506.949219 421.796875 L 512.863281 421.796875 C 512.996094 421.796875 513.109375 421.84375 513.203125 421.9375 C 513.296875 422.03125 513.34375 422.144531 513.34375 422.277344 C 513.34375 422.410156 513.296875 422.523438 513.203125 422.613281 C 513.109375 422.707031 512.996094 422.753906 512.863281 422.753906 Z M 500.996094 422.753906 L 495.023438 422.753906 C 494.890625 422.753906 494.777344 422.707031 494.683594 422.613281 C 494.589844 422.523438 494.542969 422.410156 494.542969 422.277344 C 494.542969 422.144531 494.589844 422.03125 494.683594 421.9375 C 494.777344 421.84375 494.890625 421.796875 495.023438 421.796875 L 500.996094 421.796875 C 501.128906 421.796875 501.242188 421.84375 501.335938 421.9375 C 501.429688 422.03125 501.476562 422.144531 501.476562 422.277344 C 501.476562 422.410156 501.429688 422.523438 501.335938 422.613281 C 501.242188 422.707031 501.128906 422.753906 500.996094 422.753906 Z M 489.070312 422.753906 L 483.117188 422.753906 C 482.984375 422.753906 482.871094 422.707031 482.777344 422.613281 C 482.683594 422.523438 482.636719 422.410156 482.636719 422.277344 C 482.636719 422.144531 482.683594 422.03125 482.777344 421.9375 C 482.871094 421.84375 482.984375 421.796875 483.117188 421.796875 L 489.070312 421.796875 C 489.203125 421.796875 489.316406 421.84375 489.410156 421.9375 C 489.503906 422.03125 489.550781 422.144531 489.550781 422.277344 C 489.550781 422.410156 489.503906 422.523438 489.410156 422.613281 C 489.316406 422.707031 489.203125 422.753906 489.070312 422.753906 Z M 477.039062 422.753906 L 471 422.753906 C 470.867188 422.753906 470.753906 422.707031 470.660156 422.613281 C 470.566406 422.523438 470.519531 422.410156 470.519531 422.277344 C 470.519531 422.144531 470.566406 422.03125 470.660156 421.9375 C 470.753906 421.84375 470.867188 421.796875 471 421.796875 L 477.039062 421.796875 C 477.167969 421.796875 477.28125 421.84375 477.375 421.9375 C 477.46875 422.03125 477.515625 422.144531 477.515625 422.277344 C 477.515625 422.410156 477.46875 422.523438 477.375 422.613281 C 477.28125 422.707031 477.167969 422.753906 477.039062 422.753906 Z M 465.109375 422.753906 L 459.117188 422.753906 C 458.984375 422.753906 458.871094 422.707031 458.777344 422.613281 C 458.683594 422.523438 458.636719 422.410156 458.636719 422.277344 C 458.636719 422.144531 458.683594 422.03125 458.777344 421.9375 C 458.871094 421.84375 458.984375 421.796875 459.117188 421.796875 L 465.109375 421.796875 C 465.242188 421.796875 465.351562 421.84375 465.445312 421.9375 C 465.539062 422.03125 465.585938 422.144531 465.585938 422.277344 C 465.585938 422.410156 465.539062 422.523438 465.445312 422.613281 C 465.351562 422.707031 465.242188 422.753906 465.109375 422.753906 Z M 453.097656 422.753906 L 447.234375 422.753906 C 447.101562 422.753906 446.988281 422.707031 446.894531 422.613281 C 446.800781 422.523438 446.753906 422.410156 446.753906 422.277344 C 446.753906 422.144531 446.800781 422.03125 446.894531 421.9375 C 446.988281 421.84375 447.101562 421.796875 447.234375 421.796875 L 453.097656 421.796875 C 453.230469 421.796875 453.34375 421.84375 453.4375 421.9375 C 453.53125 422.03125 453.578125 422.144531 453.578125 422.277344 C 453.578125 422.410156 453.53125 422.523438 453.4375 422.613281 C 453.34375 422.707031 453.230469 422.753906 453.097656 422.753906 Z M 453.097656 422.753906 " fill-opacity="1" fill-rule="nonzero"/><path stroke-linecap="round" transform="matrix(0.479861, 0, 0, 0.479861, 245.163548, 406.611316)" fill="none" stroke-linejoin="round" d="M 591.106408 42.342197 C 591.106408 42.342197 693.235578 42.342197 693.235578 42.342197 " stroke="#231f1f" stroke-width="2" stroke-opacity="1" stroke-miterlimit="4"/><path stroke-linecap="butt" transform="matrix(0.479861, 0, 0, 0.479861, 245.163548, 406.611316)" fill="none" stroke-linejoin="miter" d="M 591.106408 53.836409 C 591.106408 53.836409 693.235578 53.836409 693.235578 53.836409 " stroke="#231f1f" stroke-width="2" stroke-opacity="1" stroke-miterlimit="10"/><path stroke-linecap="butt" transform="matrix(0.479861, 0, 0, 0.479861, 245.163548, 406.611316)" fill="none" stroke-linejoin="miter" d="M 588.045626 68.472807 C 588.045626 68.472807 697.663943 68.472807 697.663943 68.472807 " stroke="#231f1f" stroke-width="2" stroke-opacity="1" stroke-miterlimit="10"/><path stroke-linecap="round" transform="matrix(0.479861, 0, 0, 0.479861, 473.190139, 433.669701)" fill-opacity="1" fill="#ffffff" fill-rule="nonzero" stroke-linejoin="round" d="M -66.211186 -14.04576 C -66.211186 -14.04576 -77.786802 14.046681 -77.786802 14.046681 C -77.786802 14.046681 -18.5737 14.046681 -18.5737 14.046681 C -18.5737 14.046681 -15.146601 -2.551548 -15.146601 -2.551548 C -15.146601 -2.551548 75.740708 -2.551548 75.740708 -2.551548 C 75.740708 -2.551548 77.783943 -14.04576 77.783943 -14.04576 " stroke="#231f1f" stroke-width="2" stroke-opacity="1" stroke-miterlimit="4"/><path stroke-linecap="butt" transform="matrix(0.479861, 0, 0, 0.479861, 493.987796, 465.512815)" fill-opacity="1" fill="#d4d4d4" fill-rule="nonzero" stroke-linejoin="round" d="M 513.536695 16.368014 C 513.536695 16.368014 -513.534673 16.368014 -513.534673 16.368014 C -513.534673 16.368014 -513.534673 -16.364442 -513.534673 -16.364442 C -513.534673 -16.364442 513.536695 -16.364442 513.536695 -16.364442 C 513.536695 -16.364442 513.536695 16.368014 513.536695 16.368014 Z M 513.536695 16.368014 " stroke="#231f1f" stroke-width="2" stroke-opacity="1" stroke-miterlimit="4"/><path stroke-linecap="round" transform="matrix(0.479861, 0, 0, 0.479861, 638.328562, 428.4018)" fill-opacity="1" fill="#ffffff" fill-rule="nonzero" stroke-linejoin="round" d="M 88.851305 33.791838 C 88.851305 33.791838 32.16986 -35.743262 32.16986 -35.743262 C 32.16986 -35.743262 -88.853125 -35.743262 -88.853125 -35.743262 C -88.853125 -35.743262 -50.552651 35.745529 -50.552651 35.745529 C -50.552651 35.745529 88.851305 33.791838 88.851305 33.791838 Z M 88.851305 33.791838 " stroke="#231f1f" stroke-width="2" stroke-opacity="1" stroke-miterlimit="4"/><path stroke-linecap="round" transform="matrix(0.479861, 0, 0, 0.479861, 245.163548, 406.611316)" fill="none" stroke-linejoin="round" d="M 879.414141 63.79209 C 879.414141 63.79209 781.119088 63.79209 781.119088 63.79209 " stroke="#231f1f" stroke-width="2" stroke-opacity="1" stroke-miterlimit="4"/><path stroke-linecap="round" transform="matrix(0.479861, 0, 0, 0.479861, 245.163548, 406.611316)" fill="none" stroke-linejoin="round" d="M 865.119639 47.959057 C 865.119639 47.959057 766.816446 47.959057 766.816446 47.959057 " stroke="#231f1f" stroke-width="2" stroke-opacity="1" stroke-miterlimit="4"/><path stroke-linecap="round" transform="matrix(0.479861, 0, 0, 0.479861, 245.163548, 406.611316)" fill="none" stroke-linejoin="round" d="M 874.350826 55.619152 C 874.350826 55.619152 770.756388 55.619152 770.756388 55.619152 " stroke="#231f1f" stroke-width="2" stroke-opacity="1" stroke-miterlimit="4"/><path stroke-linecap="round" transform="matrix(0.479861, 0, 0, 0.479861, 630.875375, 419.702878)" fill-opacity="1" fill="#02c37e" fill-rule="nonzero" stroke-linejoin="round" d="M 42.728057 -9.702814 C 42.728057 -9.702814 57.405156 9.703844 57.405156 9.703844 C 57.405156 9.703844 -44.463522 9.703844 -44.463522 9.703844 C -44.463522 9.703844 -57.406721 -9.702814 -57.406721 -9.702814 C -57.406721 -9.702814 42.728057 -9.702814 42.728057 -9.702814 Z M 42.728057 -9.702814 " stroke="#231f1f" stroke-width="2" stroke-opacity="1" stroke-miterlimit="4"/><path stroke-linecap="round" transform="matrix(0.479861, 0, 0, 0.479861, 680.964704, 433.608771)" fill-opacity="1" fill="#ffffff" fill-rule="nonzero" stroke-linejoin="round" d="M 88.852507 33.791965 C 88.852507 33.791965 32.171062 -35.743136 32.171062 -35.743136 C 32.171062 -35.743136 -88.851923 -35.743136 -88.851923 -35.743136 C -88.851923 -35.743136 -50.551449 35.745655 -50.551449 35.745655 C -50.551449 35.745655 88.852507 33.791965 88.852507 33.791965 Z M 88.852507 33.791965 " stroke="#231f1f" stroke-width="2" stroke-opacity="1" stroke-miterlimit="4"/><path stroke-linecap="round" transform="matrix(0.479861, 0, 0, 0.479861, 245.163548, 406.611316)" fill="none" stroke-linejoin="round" d="M 968.266356 74.643213 C 968.266356 74.643213 869.971303 74.643213 869.971303 74.643213 " stroke="#231f1f" stroke-width="2" stroke-opacity="1" stroke-miterlimit="4"/><path stroke-linecap="round" transform="matrix(0.479861, 0, 0, 0.479861, 245.163548, 406.611316)" fill="none" stroke-linejoin="round" d="M 953.971854 58.81018 C 953.971854 58.81018 855.668661 58.81018 855.668661 58.81018 " stroke="#231f1f" stroke-width="2" stroke-opacity="1" stroke-miterlimit="4"/><path stroke-linecap="round" transform="matrix(0.479861, 0, 0, 0.479861, 245.163548, 406.611316)" fill="none" stroke-linejoin="round" d="M 963.203041 66.470275 C 963.203041 66.470275 859.608603 66.470275 859.608603 66.470275 " stroke="#231f1f" stroke-width="2" stroke-opacity="1" stroke-miterlimit="4"/><path stroke-linecap="round" transform="matrix(0.479861, 0, 0, 0.479861, 245.163548, 406.611316)" fill="none" stroke-linejoin="round" d="M 949.413243 48.089303 C 949.413243 48.089303 851.11819 48.089303 851.11819 48.089303 " stroke="#231f1f" stroke-width="2" stroke-opacity="1" stroke-miterlimit="4"/><path stroke-linecap="round" transform="matrix(0.479861, 0, 0, 0.479861, 245.163548, 406.611316)" fill="none" stroke-linejoin="round" d="M 935.11874 32.26441 C 935.11874 32.26441 836.823688 32.26441 836.823688 32.26441 " stroke="#231f1f" stroke-width="2" stroke-opacity="1" stroke-miterlimit="4"/><path stroke-linecap="round" transform="matrix(0.479861, 0, 0, 0.479861, 245.163548, 406.611316)" fill="none" stroke-linejoin="round" d="M 944.349928 39.916365 C 944.349928 39.916365 840.75549 39.916365 840.75549 39.916365 " stroke="#231f1f" stroke-width="2" stroke-opacity="1" stroke-miterlimit="4"/></svg>