<svg xmlns="http://www.w3.org/2000/svg" xmlns:xlink="http://www.w3.org/1999/xlink" width="1366" zoomAndPan="magnify" viewBox="0 0 1024.5 576" height="768" preserveAspectRatio="xMidYMid meet" version="1.0"><defs><clipPath id="588f780f2d"><path d="M 0 0.140625 L 1024 0.140625 L 1024 575.859375 L 0 575.859375 Z M 0 0.140625 " clip-rule="nonzero"/></clipPath><clipPath id="6ea9640445"><path d="M 0 0.511719 L 330 0.511719 L 330 330.890625 L 0 330.890625 Z M 0 0.511719 " clip-rule="nonzero"/></clipPath><clipPath id="d26a07e6d8"><path d="M -0.222656 165.472656 C -0.222656 160.070312 0.0390625 154.679688 0.570312 149.304688 C 1.101562 143.925781 1.894531 138.589844 2.949219 133.289062 C 4.003906 127.992188 5.316406 122.757812 6.882812 117.585938 C 8.453125 112.417969 10.273438 107.335938 12.34375 102.34375 C 14.410156 97.355469 16.71875 92.476562 19.269531 87.710938 C 21.816406 82.945312 24.59375 78.316406 27.597656 73.824219 C 30.601562 69.335938 33.816406 65 37.246094 60.824219 C 40.675781 56.648438 44.304688 52.648438 48.125 48.828125 C 51.949219 45.007812 55.949219 41.386719 60.128906 37.957031 C 64.308594 34.53125 68.648438 31.316406 73.144531 28.3125 C 77.636719 25.3125 82.269531 22.539062 87.039062 19.992188 C 91.804688 17.445312 96.6875 15.136719 101.683594 13.070312 C 106.679688 11.003906 111.761719 9.183594 116.9375 7.617188 C 122.109375 6.046875 127.347656 4.738281 132.652344 3.683594 C 137.953125 2.628906 143.296875 1.835938 148.675781 1.308594 C 154.054688 0.777344 159.449219 0.511719 164.855469 0.511719 C 170.261719 0.511719 175.65625 0.777344 181.039062 1.308594 C 186.417969 1.835938 191.757812 2.628906 197.0625 3.683594 C 202.363281 4.738281 207.601562 6.046875 212.777344 7.617188 C 217.949219 9.183594 223.035156 11.003906 228.03125 13.070312 C 233.023438 15.136719 237.90625 17.445312 242.675781 19.992188 C 247.441406 22.539062 252.074219 25.3125 256.570312 28.3125 C 261.066406 31.316406 265.402344 34.53125 269.582031 37.957031 C 273.761719 41.386719 277.761719 45.007812 281.585938 48.828125 C 285.410156 52.648438 289.035156 56.648438 292.464844 60.824219 C 295.894531 65 299.113281 69.335938 302.117188 73.824219 C 305.121094 78.316406 307.894531 82.945312 310.445312 87.710938 C 312.992188 92.476562 315.300781 97.355469 317.371094 102.34375 C 319.441406 107.335938 321.257812 112.417969 322.828125 117.585938 C 324.398438 122.757812 325.710938 127.992188 326.765625 133.289062 C 327.820312 138.589844 328.613281 143.925781 329.140625 149.304688 C 329.671875 154.679688 329.9375 160.070312 329.9375 165.472656 C 329.9375 170.875 329.671875 176.265625 329.140625 181.640625 C 328.613281 187.019531 327.820312 192.355469 326.765625 197.65625 C 325.710938 202.953125 324.398438 208.1875 322.828125 213.359375 C 321.257812 218.527344 319.441406 223.609375 317.371094 228.597656 C 315.300781 233.589844 312.992188 238.46875 310.445312 243.234375 C 307.894531 248 305.121094 252.625 302.117188 257.117188 C 299.113281 261.609375 295.894531 265.945312 292.464844 270.121094 C 289.035156 274.296875 285.410156 278.296875 281.585938 282.117188 C 277.761719 285.9375 273.761719 289.558594 269.582031 292.988281 C 265.402344 296.414062 261.066406 299.628906 256.570312 302.628906 C 252.074219 305.632812 247.441406 308.40625 242.675781 310.953125 C 237.90625 313.5 233.023438 315.808594 228.03125 317.875 C 223.035156 319.941406 217.949219 321.761719 212.777344 323.328125 C 207.601562 324.898438 202.363281 326.207031 197.0625 327.261719 C 191.757812 328.316406 186.417969 329.109375 181.039062 329.636719 C 175.65625 330.167969 170.261719 330.429688 164.855469 330.429688 C 159.449219 330.429688 154.054688 330.167969 148.675781 329.636719 C 143.296875 329.109375 137.953125 328.316406 132.652344 327.261719 C 127.347656 326.207031 122.109375 324.898438 116.9375 323.328125 C 111.761719 321.761719 106.679688 319.941406 101.683594 317.875 C 96.6875 315.808594 91.804688 313.5 87.039062 310.953125 C 82.269531 308.40625 77.636719 305.632812 73.144531 302.628906 C 68.648438 299.628906 64.308594 296.414062 60.128906 292.988281 C 55.949219 289.558594 51.949219 285.9375 48.125 282.117188 C 44.304688 278.296875 40.675781 274.296875 37.246094 270.121094 C 33.816406 265.945312 30.601562 261.609375 27.597656 257.117188 C 24.59375 252.625 21.816406 248 19.269531 243.234375 C 16.71875 238.46875 14.410156 233.589844 12.34375 228.597656 C 10.273438 223.609375 8.453125 218.527344 6.882812 213.359375 C 5.316406 208.1875 4.003906 202.953125 2.949219 197.65625 C 1.894531 192.355469 1.101562 187.019531 0.570312 181.640625 C 0.0390625 176.265625 -0.222656 170.875 -0.222656 165.472656 Z M -0.222656 165.472656 " clip-rule="nonzero"/></clipPath><clipPath id="4c3d1637ee"><path d="M 22 216 L 285 216 L 285 330.890625 L 22 330.890625 Z M 22 216 " clip-rule="nonzero"/></clipPath><clipPath id="f17a995092"><path d="M -0.222656 165.472656 C -0.222656 160.070312 0.0390625 154.679688 0.570312 149.304688 C 1.101562 143.925781 1.894531 138.589844 2.949219 133.289062 C 4.003906 127.992188 5.316406 122.757812 6.882812 117.585938 C 8.453125 112.417969 10.273438 107.335938 12.34375 102.34375 C 14.410156 97.355469 16.71875 92.476562 19.269531 87.710938 C 21.816406 82.945312 24.59375 78.316406 27.597656 73.824219 C 30.601562 69.335938 33.816406 65 37.246094 60.824219 C 40.675781 56.648438 44.304688 52.648438 48.125 48.828125 C 51.949219 45.007812 55.949219 41.386719 60.128906 37.957031 C 64.308594 34.53125 68.648438 31.316406 73.144531 28.3125 C 77.636719 25.3125 82.269531 22.539062 87.039062 19.992188 C 91.804688 17.445312 96.6875 15.136719 101.683594 13.070312 C 106.679688 11.003906 111.761719 9.183594 116.9375 7.617188 C 122.109375 6.046875 127.347656 4.738281 132.652344 3.683594 C 137.953125 2.628906 143.296875 1.835938 148.675781 1.308594 C 154.054688 0.777344 159.449219 0.511719 164.855469 0.511719 C 170.261719 0.511719 175.65625 0.777344 181.039062 1.308594 C 186.417969 1.835938 191.757812 2.628906 197.0625 3.683594 C 202.363281 4.738281 207.601562 6.046875 212.777344 7.617188 C 217.949219 9.183594 223.035156 11.003906 228.03125 13.070312 C 233.023438 15.136719 237.90625 17.445312 242.675781 19.992188 C 247.441406 22.539062 252.074219 25.3125 256.570312 28.3125 C 261.066406 31.316406 265.402344 34.53125 269.582031 37.957031 C 273.761719 41.386719 277.761719 45.007812 281.585938 48.828125 C 285.410156 52.648438 289.035156 56.648438 292.464844 60.824219 C 295.894531 65 299.113281 69.335938 302.117188 73.824219 C 305.121094 78.316406 307.894531 82.945312 310.445312 87.710938 C 312.992188 92.476562 315.300781 97.355469 317.371094 102.34375 C 319.441406 107.335938 321.257812 112.417969 322.828125 117.585938 C 324.398438 122.757812 325.710938 127.992188 326.765625 133.289062 C 327.820312 138.589844 328.613281 143.925781 329.140625 149.304688 C 329.671875 154.679688 329.9375 160.070312 329.9375 165.472656 C 329.9375 170.875 329.671875 176.265625 329.140625 181.640625 C 328.613281 187.019531 327.820312 192.355469 326.765625 197.65625 C 325.710938 202.953125 324.398438 208.1875 322.828125 213.359375 C 321.257812 218.527344 319.441406 223.609375 317.371094 228.597656 C 315.300781 233.589844 312.992188 238.46875 310.445312 243.234375 C 307.894531 248 305.121094 252.625 302.117188 257.117188 C 299.113281 261.609375 295.894531 265.945312 292.464844 270.121094 C 289.035156 274.296875 285.410156 278.296875 281.585938 282.117188 C 277.761719 285.9375 273.761719 289.558594 269.582031 292.988281 C 265.402344 296.414062 261.066406 299.628906 256.570312 302.628906 C 252.074219 305.632812 247.441406 308.40625 242.675781 310.953125 C 237.90625 313.5 233.023438 315.808594 228.03125 317.875 C 223.035156 319.941406 217.949219 321.761719 212.777344 323.328125 C 207.601562 324.898438 202.363281 326.207031 197.0625 327.261719 C 191.757812 328.316406 186.417969 329.109375 181.039062 329.636719 C 175.65625 330.167969 170.261719 330.429688 164.855469 330.429688 C 159.449219 330.429688 154.054688 330.167969 148.675781 329.636719 C 143.296875 329.109375 137.953125 328.316406 132.652344 327.261719 C 127.347656 326.207031 122.109375 324.898438 116.9375 323.328125 C 111.761719 321.761719 106.679688 319.941406 101.683594 317.875 C 96.6875 315.808594 91.804688 313.5 87.039062 310.953125 C 82.269531 308.40625 77.636719 305.632812 73.144531 302.628906 C 68.648438 299.628906 64.308594 296.414062 60.128906 292.988281 C 55.949219 289.558594 51.949219 285.9375 48.125 282.117188 C 44.304688 278.296875 40.675781 274.296875 37.246094 270.121094 C 33.816406 265.945312 30.601562 261.609375 27.597656 257.117188 C 24.59375 252.625 21.816406 248 19.269531 243.234375 C 16.71875 238.46875 14.410156 233.589844 12.34375 228.597656 C 10.273438 223.609375 8.453125 218.527344 6.882812 213.359375 C 5.316406 208.1875 4.003906 202.953125 2.949219 197.65625 C 1.894531 192.355469 1.101562 187.019531 0.570312 181.640625 C 0.0390625 176.265625 -0.222656 170.875 -0.222656 165.472656 Z M -0.222656 165.472656 " clip-rule="nonzero"/></clipPath><clipPath id="3801ec6dd7"><path d="M 126 212 L 203 212 L 203 330.890625 L 126 330.890625 Z M 126 212 " clip-rule="nonzero"/></clipPath><clipPath id="af48172dc9"><path d="M -0.222656 165.472656 C -0.222656 160.070312 0.0390625 154.679688 0.570312 149.304688 C 1.101562 143.925781 1.894531 138.589844 2.949219 133.289062 C 4.003906 127.992188 5.316406 122.757812 6.882812 117.585938 C 8.453125 112.417969 10.273438 107.335938 12.34375 102.34375 C 14.410156 97.355469 16.71875 92.476562 19.269531 87.710938 C 21.816406 82.945312 24.59375 78.316406 27.597656 73.824219 C 30.601562 69.335938 33.816406 65 37.246094 60.824219 C 40.675781 56.648438 44.304688 52.648438 48.125 48.828125 C 51.949219 45.007812 55.949219 41.386719 60.128906 37.957031 C 64.308594 34.53125 68.648438 31.316406 73.144531 28.3125 C 77.636719 25.3125 82.269531 22.539062 87.039062 19.992188 C 91.804688 17.445312 96.6875 15.136719 101.683594 13.070312 C 106.679688 11.003906 111.761719 9.183594 116.9375 7.617188 C 122.109375 6.046875 127.347656 4.738281 132.652344 3.683594 C 137.953125 2.628906 143.296875 1.835938 148.675781 1.308594 C 154.054688 0.777344 159.449219 0.511719 164.855469 0.511719 C 170.261719 0.511719 175.65625 0.777344 181.039062 1.308594 C 186.417969 1.835938 191.757812 2.628906 197.0625 3.683594 C 202.363281 4.738281 207.601562 6.046875 212.777344 7.617188 C 217.949219 9.183594 223.035156 11.003906 228.03125 13.070312 C 233.023438 15.136719 237.90625 17.445312 242.675781 19.992188 C 247.441406 22.539062 252.074219 25.3125 256.570312 28.3125 C 261.066406 31.316406 265.402344 34.53125 269.582031 37.957031 C 273.761719 41.386719 277.761719 45.007812 281.585938 48.828125 C 285.410156 52.648438 289.035156 56.648438 292.464844 60.824219 C 295.894531 65 299.113281 69.335938 302.117188 73.824219 C 305.121094 78.316406 307.894531 82.945312 310.445312 87.710938 C 312.992188 92.476562 315.300781 97.355469 317.371094 102.34375 C 319.441406 107.335938 321.257812 112.417969 322.828125 117.585938 C 324.398438 122.757812 325.710938 127.992188 326.765625 133.289062 C 327.820312 138.589844 328.613281 143.925781 329.140625 149.304688 C 329.671875 154.679688 329.9375 160.070312 329.9375 165.472656 C 329.9375 170.875 329.671875 176.265625 329.140625 181.640625 C 328.613281 187.019531 327.820312 192.355469 326.765625 197.65625 C 325.710938 202.953125 324.398438 208.1875 322.828125 213.359375 C 321.257812 218.527344 319.441406 223.609375 317.371094 228.597656 C 315.300781 233.589844 312.992188 238.46875 310.445312 243.234375 C 307.894531 248 305.121094 252.625 302.117188 257.117188 C 299.113281 261.609375 295.894531 265.945312 292.464844 270.121094 C 289.035156 274.296875 285.410156 278.296875 281.585938 282.117188 C 277.761719 285.9375 273.761719 289.558594 269.582031 292.988281 C 265.402344 296.414062 261.066406 299.628906 256.570312 302.628906 C 252.074219 305.632812 247.441406 308.40625 242.675781 310.953125 C 237.90625 313.5 233.023438 315.808594 228.03125 317.875 C 223.035156 319.941406 217.949219 321.761719 212.777344 323.328125 C 207.601562 324.898438 202.363281 326.207031 197.0625 327.261719 C 191.757812 328.316406 186.417969 329.109375 181.039062 329.636719 C 175.65625 330.167969 170.261719 330.429688 164.855469 330.429688 C 159.449219 330.429688 154.054688 330.167969 148.675781 329.636719 C 143.296875 329.109375 137.953125 328.316406 132.652344 327.261719 C 127.347656 326.207031 122.109375 324.898438 116.9375 323.328125 C 111.761719 321.761719 106.679688 319.941406 101.683594 317.875 C 96.6875 315.808594 91.804688 313.5 87.039062 310.953125 C 82.269531 308.40625 77.636719 305.632812 73.144531 302.628906 C 68.648438 299.628906 64.308594 296.414062 60.128906 292.988281 C 55.949219 289.558594 51.949219 285.9375 48.125 282.117188 C 44.304688 278.296875 40.675781 274.296875 37.246094 270.121094 C 33.816406 265.945312 30.601562 261.609375 27.597656 257.117188 C 24.59375 252.625 21.816406 248 19.269531 243.234375 C 16.71875 238.46875 14.410156 233.589844 12.34375 228.597656 C 10.273438 223.609375 8.453125 218.527344 6.882812 213.359375 C 5.316406 208.1875 4.003906 202.953125 2.949219 197.65625 C 1.894531 192.355469 1.101562 187.019531 0.570312 181.640625 C 0.0390625 176.265625 -0.222656 170.875 -0.222656 165.472656 Z M -0.222656 165.472656 " clip-rule="nonzero"/></clipPath><clipPath id="3d49fbf107"><path d="M 99 92 L 212 92 L 212 214 L 99 214 Z M 99 92 " clip-rule="nonzero"/></clipPath><clipPath id="612a201881"><path d="M -0.222656 165.472656 C -0.222656 160.070312 0.0390625 154.679688 0.570312 149.304688 C 1.101562 143.925781 1.894531 138.589844 2.949219 133.289062 C 4.003906 127.992188 5.316406 122.757812 6.882812 117.585938 C 8.453125 112.417969 10.273438 107.335938 12.34375 102.34375 C 14.410156 97.355469 16.71875 92.476562 19.269531 87.710938 C 21.816406 82.945312 24.59375 78.316406 27.597656 73.824219 C 30.601562 69.335938 33.816406 65 37.246094 60.824219 C 40.675781 56.648438 44.304688 52.648438 48.125 48.828125 C 51.949219 45.007812 55.949219 41.386719 60.128906 37.957031 C 64.308594 34.53125 68.648438 31.316406 73.144531 28.3125 C 77.636719 25.3125 82.269531 22.539062 87.039062 19.992188 C 91.804688 17.445312 96.6875 15.136719 101.683594 13.070312 C 106.679688 11.003906 111.761719 9.183594 116.9375 7.617188 C 122.109375 6.046875 127.347656 4.738281 132.652344 3.683594 C 137.953125 2.628906 143.296875 1.835938 148.675781 1.308594 C 154.054688 0.777344 159.449219 0.511719 164.855469 0.511719 C 170.261719 0.511719 175.65625 0.777344 181.039062 1.308594 C 186.417969 1.835938 191.757812 2.628906 197.0625 3.683594 C 202.363281 4.738281 207.601562 6.046875 212.777344 7.617188 C 217.949219 9.183594 223.035156 11.003906 228.03125 13.070312 C 233.023438 15.136719 237.90625 17.445312 242.675781 19.992188 C 247.441406 22.539062 252.074219 25.3125 256.570312 28.3125 C 261.066406 31.316406 265.402344 34.53125 269.582031 37.957031 C 273.761719 41.386719 277.761719 45.007812 281.585938 48.828125 C 285.410156 52.648438 289.035156 56.648438 292.464844 60.824219 C 295.894531 65 299.113281 69.335938 302.117188 73.824219 C 305.121094 78.316406 307.894531 82.945312 310.445312 87.710938 C 312.992188 92.476562 315.300781 97.355469 317.371094 102.34375 C 319.441406 107.335938 321.257812 112.417969 322.828125 117.585938 C 324.398438 122.757812 325.710938 127.992188 326.765625 133.289062 C 327.820312 138.589844 328.613281 143.925781 329.140625 149.304688 C 329.671875 154.679688 329.9375 160.070312 329.9375 165.472656 C 329.9375 170.875 329.671875 176.265625 329.140625 181.640625 C 328.613281 187.019531 327.820312 192.355469 326.765625 197.65625 C 325.710938 202.953125 324.398438 208.1875 322.828125 213.359375 C 321.257812 218.527344 319.441406 223.609375 317.371094 228.597656 C 315.300781 233.589844 312.992188 238.46875 310.445312 243.234375 C 307.894531 248 305.121094 252.625 302.117188 257.117188 C 299.113281 261.609375 295.894531 265.945312 292.464844 270.121094 C 289.035156 274.296875 285.410156 278.296875 281.585938 282.117188 C 277.761719 285.9375 273.761719 289.558594 269.582031 292.988281 C 265.402344 296.414062 261.066406 299.628906 256.570312 302.628906 C 252.074219 305.632812 247.441406 308.40625 242.675781 310.953125 C 237.90625 313.5 233.023438 315.808594 228.03125 317.875 C 223.035156 319.941406 217.949219 321.761719 212.777344 323.328125 C 207.601562 324.898438 202.363281 326.207031 197.0625 327.261719 C 191.757812 328.316406 186.417969 329.109375 181.039062 329.636719 C 175.65625 330.167969 170.261719 330.429688 164.855469 330.429688 C 159.449219 330.429688 154.054688 330.167969 148.675781 329.636719 C 143.296875 329.109375 137.953125 328.316406 132.652344 327.261719 C 127.347656 326.207031 122.109375 324.898438 116.9375 323.328125 C 111.761719 321.761719 106.679688 319.941406 101.683594 317.875 C 96.6875 315.808594 91.804688 313.5 87.039062 310.953125 C 82.269531 308.40625 77.636719 305.632812 73.144531 302.628906 C 68.648438 299.628906 64.308594 296.414062 60.128906 292.988281 C 55.949219 289.558594 51.949219 285.9375 48.125 282.117188 C 44.304688 278.296875 40.675781 274.296875 37.246094 270.121094 C 33.816406 265.945312 30.601562 261.609375 27.597656 257.117188 C 24.59375 252.625 21.816406 248 19.269531 243.234375 C 16.71875 238.46875 14.410156 233.589844 12.34375 228.597656 C 10.273438 223.609375 8.453125 218.527344 6.882812 213.359375 C 5.316406 208.1875 4.003906 202.953125 2.949219 197.65625 C 1.894531 192.355469 1.101562 187.019531 0.570312 181.640625 C 0.0390625 176.265625 -0.222656 170.875 -0.222656 165.472656 Z M -0.222656 165.472656 " clip-rule="nonzero"/></clipPath><clipPath id="ec4a988a38"><path d="M 126 175 L 174 175 L 174 233 L 126 233 Z M 126 175 " clip-rule="nonzero"/></clipPath><clipPath id="af6767a6e4"><path d="M -0.222656 165.472656 C -0.222656 160.070312 0.0390625 154.679688 0.570312 149.304688 C 1.101562 143.925781 1.894531 138.589844 2.949219 133.289062 C 4.003906 127.992188 5.316406 122.757812 6.882812 117.585938 C 8.453125 112.417969 10.273438 107.335938 12.34375 102.34375 C 14.410156 97.355469 16.71875 92.476562 19.269531 87.710938 C 21.816406 82.945312 24.59375 78.316406 27.597656 73.824219 C 30.601562 69.335938 33.816406 65 37.246094 60.824219 C 40.675781 56.648438 44.304688 52.648438 48.125 48.828125 C 51.949219 45.007812 55.949219 41.386719 60.128906 37.957031 C 64.308594 34.53125 68.648438 31.316406 73.144531 28.3125 C 77.636719 25.3125 82.269531 22.539062 87.039062 19.992188 C 91.804688 17.445312 96.6875 15.136719 101.683594 13.070312 C 106.679688 11.003906 111.761719 9.183594 116.9375 7.617188 C 122.109375 6.046875 127.347656 4.738281 132.652344 3.683594 C 137.953125 2.628906 143.296875 1.835938 148.675781 1.308594 C 154.054688 0.777344 159.449219 0.511719 164.855469 0.511719 C 170.261719 0.511719 175.65625 0.777344 181.039062 1.308594 C 186.417969 1.835938 191.757812 2.628906 197.0625 3.683594 C 202.363281 4.738281 207.601562 6.046875 212.777344 7.617188 C 217.949219 9.183594 223.035156 11.003906 228.03125 13.070312 C 233.023438 15.136719 237.90625 17.445312 242.675781 19.992188 C 247.441406 22.539062 252.074219 25.3125 256.570312 28.3125 C 261.066406 31.316406 265.402344 34.53125 269.582031 37.957031 C 273.761719 41.386719 277.761719 45.007812 281.585938 48.828125 C 285.410156 52.648438 289.035156 56.648438 292.464844 60.824219 C 295.894531 65 299.113281 69.335938 302.117188 73.824219 C 305.121094 78.316406 307.894531 82.945312 310.445312 87.710938 C 312.992188 92.476562 315.300781 97.355469 317.371094 102.34375 C 319.441406 107.335938 321.257812 112.417969 322.828125 117.585938 C 324.398438 122.757812 325.710938 127.992188 326.765625 133.289062 C 327.820312 138.589844 328.613281 143.925781 329.140625 149.304688 C 329.671875 154.679688 329.9375 160.070312 329.9375 165.472656 C 329.9375 170.875 329.671875 176.265625 329.140625 181.640625 C 328.613281 187.019531 327.820312 192.355469 326.765625 197.65625 C 325.710938 202.953125 324.398438 208.1875 322.828125 213.359375 C 321.257812 218.527344 319.441406 223.609375 317.371094 228.597656 C 315.300781 233.589844 312.992188 238.46875 310.445312 243.234375 C 307.894531 248 305.121094 252.625 302.117188 257.117188 C 299.113281 261.609375 295.894531 265.945312 292.464844 270.121094 C 289.035156 274.296875 285.410156 278.296875 281.585938 282.117188 C 277.761719 285.9375 273.761719 289.558594 269.582031 292.988281 C 265.402344 296.414062 261.066406 299.628906 256.570312 302.628906 C 252.074219 305.632812 247.441406 308.40625 242.675781 310.953125 C 237.90625 313.5 233.023438 315.808594 228.03125 317.875 C 223.035156 319.941406 217.949219 321.761719 212.777344 323.328125 C 207.601562 324.898438 202.363281 326.207031 197.0625 327.261719 C 191.757812 328.316406 186.417969 329.109375 181.039062 329.636719 C 175.65625 330.167969 170.261719 330.429688 164.855469 330.429688 C 159.449219 330.429688 154.054688 330.167969 148.675781 329.636719 C 143.296875 329.109375 137.953125 328.316406 132.652344 327.261719 C 127.347656 326.207031 122.109375 324.898438 116.9375 323.328125 C 111.761719 321.761719 106.679688 319.941406 101.683594 317.875 C 96.6875 315.808594 91.804688 313.5 87.039062 310.953125 C 82.269531 308.40625 77.636719 305.632812 73.144531 302.628906 C 68.648438 299.628906 64.308594 296.414062 60.128906 292.988281 C 55.949219 289.558594 51.949219 285.9375 48.125 282.117188 C 44.304688 278.296875 40.675781 274.296875 37.246094 270.121094 C 33.816406 265.945312 30.601562 261.609375 27.597656 257.117188 C 24.59375 252.625 21.816406 248 19.269531 243.234375 C 16.71875 238.46875 14.410156 233.589844 12.34375 228.597656 C 10.273438 223.609375 8.453125 218.527344 6.882812 213.359375 C 5.316406 208.1875 4.003906 202.953125 2.949219 197.65625 C 1.894531 192.355469 1.101562 187.019531 0.570312 181.640625 C 0.0390625 176.265625 -0.222656 170.875 -0.222656 165.472656 Z M -0.222656 165.472656 " clip-rule="nonzero"/></clipPath><clipPath id="0028dfd892"><path d="M 132 175 L 174 175 L 174 216 L 132 216 Z M 132 175 " clip-rule="nonzero"/></clipPath><clipPath id="fcd2224371"><path d="M -0.222656 165.472656 C -0.222656 160.070312 0.0390625 154.679688 0.570312 149.304688 C 1.101562 143.925781 1.894531 138.589844 2.949219 133.289062 C 4.003906 127.992188 5.316406 122.757812 6.882812 117.585938 C 8.453125 112.417969 10.273438 107.335938 12.34375 102.34375 C 14.410156 97.355469 16.71875 92.476562 19.269531 87.710938 C 21.816406 82.945312 24.59375 78.316406 27.597656 73.824219 C 30.601562 69.335938 33.816406 65 37.246094 60.824219 C 40.675781 56.648438 44.304688 52.648438 48.125 48.828125 C 51.949219 45.007812 55.949219 41.386719 60.128906 37.957031 C 64.308594 34.53125 68.648438 31.316406 73.144531 28.3125 C 77.636719 25.3125 82.269531 22.539062 87.039062 19.992188 C 91.804688 17.445312 96.6875 15.136719 101.683594 13.070312 C 106.679688 11.003906 111.761719 9.183594 116.9375 7.617188 C 122.109375 6.046875 127.347656 4.738281 132.652344 3.683594 C 137.953125 2.628906 143.296875 1.835938 148.675781 1.308594 C 154.054688 0.777344 159.449219 0.511719 164.855469 0.511719 C 170.261719 0.511719 175.65625 0.777344 181.039062 1.308594 C 186.417969 1.835938 191.757812 2.628906 197.0625 3.683594 C 202.363281 4.738281 207.601562 6.046875 212.777344 7.617188 C 217.949219 9.183594 223.035156 11.003906 228.03125 13.070312 C 233.023438 15.136719 237.90625 17.445312 242.675781 19.992188 C 247.441406 22.539062 252.074219 25.3125 256.570312 28.3125 C 261.066406 31.316406 265.402344 34.53125 269.582031 37.957031 C 273.761719 41.386719 277.761719 45.007812 281.585938 48.828125 C 285.410156 52.648438 289.035156 56.648438 292.464844 60.824219 C 295.894531 65 299.113281 69.335938 302.117188 73.824219 C 305.121094 78.316406 307.894531 82.945312 310.445312 87.710938 C 312.992188 92.476562 315.300781 97.355469 317.371094 102.34375 C 319.441406 107.335938 321.257812 112.417969 322.828125 117.585938 C 324.398438 122.757812 325.710938 127.992188 326.765625 133.289062 C 327.820312 138.589844 328.613281 143.925781 329.140625 149.304688 C 329.671875 154.679688 329.9375 160.070312 329.9375 165.472656 C 329.9375 170.875 329.671875 176.265625 329.140625 181.640625 C 328.613281 187.019531 327.820312 192.355469 326.765625 197.65625 C 325.710938 202.953125 324.398438 208.1875 322.828125 213.359375 C 321.257812 218.527344 319.441406 223.609375 317.371094 228.597656 C 315.300781 233.589844 312.992188 238.46875 310.445312 243.234375 C 307.894531 248 305.121094 252.625 302.117188 257.117188 C 299.113281 261.609375 295.894531 265.945312 292.464844 270.121094 C 289.035156 274.296875 285.410156 278.296875 281.585938 282.117188 C 277.761719 285.9375 273.761719 289.558594 269.582031 292.988281 C 265.402344 296.414062 261.066406 299.628906 256.570312 302.628906 C 252.074219 305.632812 247.441406 308.40625 242.675781 310.953125 C 237.90625 313.5 233.023438 315.808594 228.03125 317.875 C 223.035156 319.941406 217.949219 321.761719 212.777344 323.328125 C 207.601562 324.898438 202.363281 326.207031 197.0625 327.261719 C 191.757812 328.316406 186.417969 329.109375 181.039062 329.636719 C 175.65625 330.167969 170.261719 330.429688 164.855469 330.429688 C 159.449219 330.429688 154.054688 330.167969 148.675781 329.636719 C 143.296875 329.109375 137.953125 328.316406 132.652344 327.261719 C 127.347656 326.207031 122.109375 324.898438 116.9375 323.328125 C 111.761719 321.761719 106.679688 319.941406 101.683594 317.875 C 96.6875 315.808594 91.804688 313.5 87.039062 310.953125 C 82.269531 308.40625 77.636719 305.632812 73.144531 302.628906 C 68.648438 299.628906 64.308594 296.414062 60.128906 292.988281 C 55.949219 289.558594 51.949219 285.9375 48.125 282.117188 C 44.304688 278.296875 40.675781 274.296875 37.246094 270.121094 C 33.816406 265.945312 30.601562 261.609375 27.597656 257.117188 C 24.59375 252.625 21.816406 248 19.269531 243.234375 C 16.71875 238.46875 14.410156 233.589844 12.34375 228.597656 C 10.273438 223.609375 8.453125 218.527344 6.882812 213.359375 C 5.316406 208.1875 4.003906 202.953125 2.949219 197.65625 C 1.894531 192.355469 1.101562 187.019531 0.570312 181.640625 C 0.0390625 176.265625 -0.222656 170.875 -0.222656 165.472656 Z M -0.222656 165.472656 " clip-rule="nonzero"/></clipPath><clipPath id="166e76035d"><path d="M 115 124 L 196 124 L 196 205 L 115 205 Z M 115 124 " clip-rule="nonzero"/></clipPath><clipPath id="6ad0dcedae"><path d="M -0.222656 165.472656 C -0.222656 160.070312 0.0390625 154.679688 0.570312 149.304688 C 1.101562 143.925781 1.894531 138.589844 2.949219 133.289062 C 4.003906 127.992188 5.316406 122.757812 6.882812 117.585938 C 8.453125 112.417969 10.273438 107.335938 12.34375 102.34375 C 14.410156 97.355469 16.71875 92.476562 19.269531 87.710938 C 21.816406 82.945312 24.59375 78.316406 27.597656 73.824219 C 30.601562 69.335938 33.816406 65 37.246094 60.824219 C 40.675781 56.648438 44.304688 52.648438 48.125 48.828125 C 51.949219 45.007812 55.949219 41.386719 60.128906 37.957031 C 64.308594 34.53125 68.648438 31.316406 73.144531 28.3125 C 77.636719 25.3125 82.269531 22.539062 87.039062 19.992188 C 91.804688 17.445312 96.6875 15.136719 101.683594 13.070312 C 106.679688 11.003906 111.761719 9.183594 116.9375 7.617188 C 122.109375 6.046875 127.347656 4.738281 132.652344 3.683594 C 137.953125 2.628906 143.296875 1.835938 148.675781 1.308594 C 154.054688 0.777344 159.449219 0.511719 164.855469 0.511719 C 170.261719 0.511719 175.65625 0.777344 181.039062 1.308594 C 186.417969 1.835938 191.757812 2.628906 197.0625 3.683594 C 202.363281 4.738281 207.601562 6.046875 212.777344 7.617188 C 217.949219 9.183594 223.035156 11.003906 228.03125 13.070312 C 233.023438 15.136719 237.90625 17.445312 242.675781 19.992188 C 247.441406 22.539062 252.074219 25.3125 256.570312 28.3125 C 261.066406 31.316406 265.402344 34.53125 269.582031 37.957031 C 273.761719 41.386719 277.761719 45.007812 281.585938 48.828125 C 285.410156 52.648438 289.035156 56.648438 292.464844 60.824219 C 295.894531 65 299.113281 69.335938 302.117188 73.824219 C 305.121094 78.316406 307.894531 82.945312 310.445312 87.710938 C 312.992188 92.476562 315.300781 97.355469 317.371094 102.34375 C 319.441406 107.335938 321.257812 112.417969 322.828125 117.585938 C 324.398438 122.757812 325.710938 127.992188 326.765625 133.289062 C 327.820312 138.589844 328.613281 143.925781 329.140625 149.304688 C 329.671875 154.679688 329.9375 160.070312 329.9375 165.472656 C 329.9375 170.875 329.671875 176.265625 329.140625 181.640625 C 328.613281 187.019531 327.820312 192.355469 326.765625 197.65625 C 325.710938 202.953125 324.398438 208.1875 322.828125 213.359375 C 321.257812 218.527344 319.441406 223.609375 317.371094 228.597656 C 315.300781 233.589844 312.992188 238.46875 310.445312 243.234375 C 307.894531 248 305.121094 252.625 302.117188 257.117188 C 299.113281 261.609375 295.894531 265.945312 292.464844 270.121094 C 289.035156 274.296875 285.410156 278.296875 281.585938 282.117188 C 277.761719 285.9375 273.761719 289.558594 269.582031 292.988281 C 265.402344 296.414062 261.066406 299.628906 256.570312 302.628906 C 252.074219 305.632812 247.441406 308.40625 242.675781 310.953125 C 237.90625 313.5 233.023438 315.808594 228.03125 317.875 C 223.035156 319.941406 217.949219 321.761719 212.777344 323.328125 C 207.601562 324.898438 202.363281 326.207031 197.0625 327.261719 C 191.757812 328.316406 186.417969 329.109375 181.039062 329.636719 C 175.65625 330.167969 170.261719 330.429688 164.855469 330.429688 C 159.449219 330.429688 154.054688 330.167969 148.675781 329.636719 C 143.296875 329.109375 137.953125 328.316406 132.652344 327.261719 C 127.347656 326.207031 122.109375 324.898438 116.9375 323.328125 C 111.761719 321.761719 106.679688 319.941406 101.683594 317.875 C 96.6875 315.808594 91.804688 313.5 87.039062 310.953125 C 82.269531 308.40625 77.636719 305.632812 73.144531 302.628906 C 68.648438 299.628906 64.308594 296.414062 60.128906 292.988281 C 55.949219 289.558594 51.949219 285.9375 48.125 282.117188 C 44.304688 278.296875 40.675781 274.296875 37.246094 270.121094 C 33.816406 265.945312 30.601562 261.609375 27.597656 257.117188 C 24.59375 252.625 21.816406 248 19.269531 243.234375 C 16.71875 238.46875 14.410156 233.589844 12.34375 228.597656 C 10.273438 223.609375 8.453125 218.527344 6.882812 213.359375 C 5.316406 208.1875 4.003906 202.953125 2.949219 197.65625 C 1.894531 192.355469 1.101562 187.019531 0.570312 181.640625 C 0.0390625 176.265625 -0.222656 170.875 -0.222656 165.472656 Z M -0.222656 165.472656 " clip-rule="nonzero"/></clipPath><clipPath id="fc94c7f37c"><path d="M 120 232 L 330 232 L 330 330.890625 L 120 330.890625 Z M 120 232 " clip-rule="nonzero"/></clipPath><clipPath id="e7a05d2c61"><path d="M -0.222656 165.472656 C -0.222656 160.070312 0.0390625 154.679688 0.570312 149.304688 C 1.101562 143.925781 1.894531 138.589844 2.949219 133.289062 C 4.003906 127.992188 5.316406 122.757812 6.882812 117.585938 C 8.453125 112.417969 10.273438 107.335938 12.34375 102.34375 C 14.410156 97.355469 16.71875 92.476562 19.269531 87.710938 C 21.816406 82.945312 24.59375 78.316406 27.597656 73.824219 C 30.601562 69.335938 33.816406 65 37.246094 60.824219 C 40.675781 56.648438 44.304688 52.648438 48.125 48.828125 C 51.949219 45.007812 55.949219 41.386719 60.128906 37.957031 C 64.308594 34.53125 68.648438 31.316406 73.144531 28.3125 C 77.636719 25.3125 82.269531 22.539062 87.039062 19.992188 C 91.804688 17.445312 96.6875 15.136719 101.683594 13.070312 C 106.679688 11.003906 111.761719 9.183594 116.9375 7.617188 C 122.109375 6.046875 127.347656 4.738281 132.652344 3.683594 C 137.953125 2.628906 143.296875 1.835938 148.675781 1.308594 C 154.054688 0.777344 159.449219 0.511719 164.855469 0.511719 C 170.261719 0.511719 175.65625 0.777344 181.039062 1.308594 C 186.417969 1.835938 191.757812 2.628906 197.0625 3.683594 C 202.363281 4.738281 207.601562 6.046875 212.777344 7.617188 C 217.949219 9.183594 223.035156 11.003906 228.03125 13.070312 C 233.023438 15.136719 237.90625 17.445312 242.675781 19.992188 C 247.441406 22.539062 252.074219 25.3125 256.570312 28.3125 C 261.066406 31.316406 265.402344 34.53125 269.582031 37.957031 C 273.761719 41.386719 277.761719 45.007812 281.585938 48.828125 C 285.410156 52.648438 289.035156 56.648438 292.464844 60.824219 C 295.894531 65 299.113281 69.335938 302.117188 73.824219 C 305.121094 78.316406 307.894531 82.945312 310.445312 87.710938 C 312.992188 92.476562 315.300781 97.355469 317.371094 102.34375 C 319.441406 107.335938 321.257812 112.417969 322.828125 117.585938 C 324.398438 122.757812 325.710938 127.992188 326.765625 133.289062 C 327.820312 138.589844 328.613281 143.925781 329.140625 149.304688 C 329.671875 154.679688 329.9375 160.070312 329.9375 165.472656 C 329.9375 170.875 329.671875 176.265625 329.140625 181.640625 C 328.613281 187.019531 327.820312 192.355469 326.765625 197.65625 C 325.710938 202.953125 324.398438 208.1875 322.828125 213.359375 C 321.257812 218.527344 319.441406 223.609375 317.371094 228.597656 C 315.300781 233.589844 312.992188 238.46875 310.445312 243.234375 C 307.894531 248 305.121094 252.625 302.117188 257.117188 C 299.113281 261.609375 295.894531 265.945312 292.464844 270.121094 C 289.035156 274.296875 285.410156 278.296875 281.585938 282.117188 C 277.761719 285.9375 273.761719 289.558594 269.582031 292.988281 C 265.402344 296.414062 261.066406 299.628906 256.570312 302.628906 C 252.074219 305.632812 247.441406 308.40625 242.675781 310.953125 C 237.90625 313.5 233.023438 315.808594 228.03125 317.875 C 223.035156 319.941406 217.949219 321.761719 212.777344 323.328125 C 207.601562 324.898438 202.363281 326.207031 197.0625 327.261719 C 191.757812 328.316406 186.417969 329.109375 181.039062 329.636719 C 175.65625 330.167969 170.261719 330.429688 164.855469 330.429688 C 159.449219 330.429688 154.054688 330.167969 148.675781 329.636719 C 143.296875 329.109375 137.953125 328.316406 132.652344 327.261719 C 127.347656 326.207031 122.109375 324.898438 116.9375 323.328125 C 111.761719 321.761719 106.679688 319.941406 101.683594 317.875 C 96.6875 315.808594 91.804688 313.5 87.039062 310.953125 C 82.269531 308.40625 77.636719 305.632812 73.144531 302.628906 C 68.648438 299.628906 64.308594 296.414062 60.128906 292.988281 C 55.949219 289.558594 51.949219 285.9375 48.125 282.117188 C 44.304688 278.296875 40.675781 274.296875 37.246094 270.121094 C 33.816406 265.945312 30.601562 261.609375 27.597656 257.117188 C 24.59375 252.625 21.816406 248 19.269531 243.234375 C 16.71875 238.46875 14.410156 233.589844 12.34375 228.597656 C 10.273438 223.609375 8.453125 218.527344 6.882812 213.359375 C 5.316406 208.1875 4.003906 202.953125 2.949219 197.65625 C 1.894531 192.355469 1.101562 187.019531 0.570312 181.640625 C 0.0390625 176.265625 -0.222656 170.875 -0.222656 165.472656 Z M -0.222656 165.472656 " clip-rule="nonzero"/></clipPath><clipPath id="434bcc0258"><path d="M 129 232 L 330 232 L 330 330.890625 L 129 330.890625 Z M 129 232 " clip-rule="nonzero"/></clipPath><clipPath id="8b0696ba43"><path d="M -0.222656 165.472656 C -0.222656 160.070312 0.0390625 154.679688 0.570312 149.304688 C 1.101562 143.925781 1.894531 138.589844 2.949219 133.289062 C 4.003906 127.992188 5.316406 122.757812 6.882812 117.585938 C 8.453125 112.417969 10.273438 107.335938 12.34375 102.34375 C 14.410156 97.355469 16.71875 92.476562 19.269531 87.710938 C 21.816406 82.945312 24.59375 78.316406 27.597656 73.824219 C 30.601562 69.335938 33.816406 65 37.246094 60.824219 C 40.675781 56.648438 44.304688 52.648438 48.125 48.828125 C 51.949219 45.007812 55.949219 41.386719 60.128906 37.957031 C 64.308594 34.53125 68.648438 31.316406 73.144531 28.3125 C 77.636719 25.3125 82.269531 22.539062 87.039062 19.992188 C 91.804688 17.445312 96.6875 15.136719 101.683594 13.070312 C 106.679688 11.003906 111.761719 9.183594 116.9375 7.617188 C 122.109375 6.046875 127.347656 4.738281 132.652344 3.683594 C 137.953125 2.628906 143.296875 1.835938 148.675781 1.308594 C 154.054688 0.777344 159.449219 0.511719 164.855469 0.511719 C 170.261719 0.511719 175.65625 0.777344 181.039062 1.308594 C 186.417969 1.835938 191.757812 2.628906 197.0625 3.683594 C 202.363281 4.738281 207.601562 6.046875 212.777344 7.617188 C 217.949219 9.183594 223.035156 11.003906 228.03125 13.070312 C 233.023438 15.136719 237.90625 17.445312 242.675781 19.992188 C 247.441406 22.539062 252.074219 25.3125 256.570312 28.3125 C 261.066406 31.316406 265.402344 34.53125 269.582031 37.957031 C 273.761719 41.386719 277.761719 45.007812 281.585938 48.828125 C 285.410156 52.648438 289.035156 56.648438 292.464844 60.824219 C 295.894531 65 299.113281 69.335938 302.117188 73.824219 C 305.121094 78.316406 307.894531 82.945312 310.445312 87.710938 C 312.992188 92.476562 315.300781 97.355469 317.371094 102.34375 C 319.441406 107.335938 321.257812 112.417969 322.828125 117.585938 C 324.398438 122.757812 325.710938 127.992188 326.765625 133.289062 C 327.820312 138.589844 328.613281 143.925781 329.140625 149.304688 C 329.671875 154.679688 329.9375 160.070312 329.9375 165.472656 C 329.9375 170.875 329.671875 176.265625 329.140625 181.640625 C 328.613281 187.019531 327.820312 192.355469 326.765625 197.65625 C 325.710938 202.953125 324.398438 208.1875 322.828125 213.359375 C 321.257812 218.527344 319.441406 223.609375 317.371094 228.597656 C 315.300781 233.589844 312.992188 238.46875 310.445312 243.234375 C 307.894531 248 305.121094 252.625 302.117188 257.117188 C 299.113281 261.609375 295.894531 265.945312 292.464844 270.121094 C 289.035156 274.296875 285.410156 278.296875 281.585938 282.117188 C 277.761719 285.9375 273.761719 289.558594 269.582031 292.988281 C 265.402344 296.414062 261.066406 299.628906 256.570312 302.628906 C 252.074219 305.632812 247.441406 308.40625 242.675781 310.953125 C 237.90625 313.5 233.023438 315.808594 228.03125 317.875 C 223.035156 319.941406 217.949219 321.761719 212.777344 323.328125 C 207.601562 324.898438 202.363281 326.207031 197.0625 327.261719 C 191.757812 328.316406 186.417969 329.109375 181.039062 329.636719 C 175.65625 330.167969 170.261719 330.429688 164.855469 330.429688 C 159.449219 330.429688 154.054688 330.167969 148.675781 329.636719 C 143.296875 329.109375 137.953125 328.316406 132.652344 327.261719 C 127.347656 326.207031 122.109375 324.898438 116.9375 323.328125 C 111.761719 321.761719 106.679688 319.941406 101.683594 317.875 C 96.6875 315.808594 91.804688 313.5 87.039062 310.953125 C 82.269531 308.40625 77.636719 305.632812 73.144531 302.628906 C 68.648438 299.628906 64.308594 296.414062 60.128906 292.988281 C 55.949219 289.558594 51.949219 285.9375 48.125 282.117188 C 44.304688 278.296875 40.675781 274.296875 37.246094 270.121094 C 33.816406 265.945312 30.601562 261.609375 27.597656 257.117188 C 24.59375 252.625 21.816406 248 19.269531 243.234375 C 16.71875 238.46875 14.410156 233.589844 12.34375 228.597656 C 10.273438 223.609375 8.453125 218.527344 6.882812 213.359375 C 5.316406 208.1875 4.003906 202.953125 2.949219 197.65625 C 1.894531 192.355469 1.101562 187.019531 0.570312 181.640625 C 0.0390625 176.265625 -0.222656 170.875 -0.222656 165.472656 Z M -0.222656 165.472656 " clip-rule="nonzero"/></clipPath><clipPath id="73688df826"><path d="M 237 80 L 412.5 80 L 412.5 205 L 237 205 Z M 237 80 " clip-rule="nonzero"/></clipPath></defs><g clip-path="url(#588f780f2d)"><path fill="#ffffff" d="M 0 0.140625 L 1024.5 0.140625 L 1024.5 583.640625 L 0 583.640625 Z M 0 0.140625 " fill-opacity="1" fill-rule="nonzero"/><path fill="#ffffff" d="M 0 0.140625 L 1024.5 0.140625 L 1024.5 576.140625 L 0 576.140625 Z M 0 0.140625 " fill-opacity="1" fill-rule="nonzero"/></g><g clip-path="url(#6ea9640445)"><g clip-path="url(#d26a07e6d8)"><path fill="#8f4399" d="M 329.9375 165.472656 C 329.9375 168.171875 329.871094 170.871094 329.738281 173.566406 C 329.605469 176.261719 329.40625 178.953125 329.140625 181.640625 C 328.878906 184.328125 328.546875 187.007812 328.152344 189.675781 C 327.753906 192.347656 327.292969 195.007812 326.765625 197.65625 C 326.238281 200.300781 325.648438 202.933594 324.988281 205.554688 C 324.332031 208.171875 323.613281 210.773438 322.828125 213.359375 C 322.042969 215.941406 321.199219 218.503906 320.289062 221.046875 C 319.378906 223.585938 318.40625 226.105469 317.371094 228.597656 C 316.335938 231.09375 315.242188 233.5625 314.085938 236 C 312.933594 238.441406 311.71875 240.851562 310.445312 243.234375 C 309.171875 245.613281 307.839844 247.960938 306.449219 250.277344 C 305.0625 252.59375 303.617188 254.875 302.117188 257.117188 C 300.613281 259.363281 299.058594 261.570312 297.449219 263.738281 C 295.839844 265.90625 294.179688 268.035156 292.464844 270.121094 C 290.75 272.207031 288.988281 274.25 287.171875 276.253906 C 285.359375 278.253906 283.496094 280.207031 281.585938 282.117188 C 279.675781 284.023438 277.71875 285.886719 275.71875 287.699219 C 273.714844 289.511719 271.671875 291.273438 269.582031 292.988281 C 267.496094 294.699219 265.363281 296.359375 263.195312 297.96875 C 261.023438 299.578125 258.816406 301.132812 256.570312 302.628906 C 254.324219 304.128906 252.042969 305.574219 249.726562 306.960938 C 247.40625 308.351562 245.058594 309.679688 242.675781 310.953125 C 240.292969 312.226562 237.878906 313.4375 235.4375 314.59375 C 232.996094 315.746094 230.527344 316.839844 228.03125 317.875 C 225.535156 318.90625 223.015625 319.878906 220.46875 320.789062 C 217.925781 321.699219 215.363281 322.542969 212.777344 323.328125 C 210.191406 324.113281 207.589844 324.832031 204.96875 325.488281 C 202.347656 326.144531 199.710938 326.734375 197.0625 327.261719 C 194.414062 327.789062 191.75 328.25 189.078125 328.644531 C 186.40625 329.042969 183.726562 329.371094 181.039062 329.636719 C 178.347656 329.902344 175.65625 330.101562 172.957031 330.234375 C 170.257812 330.367188 167.558594 330.429688 164.855469 330.429688 C 162.15625 330.429688 159.453125 330.367188 156.757812 330.234375 C 154.058594 330.101562 151.363281 329.902344 148.675781 329.636719 C 145.988281 329.371094 143.308594 329.042969 140.632812 328.644531 C 137.960938 328.25 135.300781 327.789062 132.652344 327.261719 C 130 326.734375 127.367188 326.144531 124.746094 325.488281 C 122.125 324.832031 119.523438 324.113281 116.9375 323.328125 C 114.351562 322.542969 111.785156 321.699219 109.242188 320.789062 C 106.699219 319.878906 104.179688 318.90625 101.683594 317.875 C 99.1875 316.839844 96.71875 315.746094 94.277344 314.59375 C 91.832031 313.4375 89.421875 312.226562 87.039062 310.953125 C 84.65625 309.679688 82.304688 308.351562 79.988281 306.960938 C 77.671875 305.574219 75.390625 304.128906 73.144531 302.628906 C 70.894531 301.132812 68.6875 299.578125 66.519531 297.96875 C 64.347656 296.359375 62.21875 294.699219 60.128906 292.988281 C 58.042969 291.273438 55.996094 289.511719 53.996094 287.699219 C 51.992188 285.886719 50.039062 284.023438 48.125 282.117188 C 46.214844 280.207031 44.355469 278.253906 42.539062 276.253906 C 40.726562 274.25 38.960938 272.207031 37.246094 270.121094 C 35.535156 268.035156 33.871094 265.90625 32.261719 263.738281 C 30.652344 261.570312 29.097656 259.363281 27.597656 257.117188 C 26.097656 254.875 24.652344 252.59375 23.261719 250.277344 C 21.875 247.960938 20.542969 245.613281 19.269531 243.234375 C 17.996094 240.851562 16.78125 238.441406 15.625 236 C 14.46875 233.5625 13.375 231.09375 12.34375 228.597656 C 11.308594 226.105469 10.335938 223.585938 9.425781 221.046875 C 8.515625 218.503906 7.667969 215.941406 6.882812 213.359375 C 6.101562 210.773438 5.378906 208.171875 4.722656 205.554688 C 4.066406 202.933594 3.476562 200.300781 2.949219 197.65625 C 2.421875 195.007812 1.960938 192.347656 1.5625 189.675781 C 1.167969 187.007812 0.835938 184.328125 0.570312 181.640625 C 0.304688 178.953125 0.105469 176.261719 -0.0234375 173.566406 C -0.15625 170.871094 -0.222656 168.171875 -0.222656 165.472656 C -0.222656 162.773438 -0.15625 160.074219 -0.0234375 157.378906 C 0.105469 154.683594 0.304688 151.992188 0.570312 149.304688 C 0.835938 146.617188 1.167969 143.9375 1.5625 141.269531 C 1.960938 138.597656 2.421875 135.9375 2.949219 133.289062 C 3.476562 130.644531 4.066406 128.007812 4.722656 125.390625 C 5.378906 122.773438 6.101562 120.171875 6.882812 117.585938 C 7.667969 115.003906 8.515625 112.441406 9.425781 109.898438 C 10.335938 107.359375 11.308594 104.839844 12.34375 102.34375 C 13.375 99.851562 14.46875 97.382812 15.625 94.945312 C 16.78125 92.503906 17.996094 90.09375 19.269531 87.710938 C 20.542969 85.332031 21.875 82.980469 23.261719 80.667969 C 24.652344 78.351562 26.097656 76.070312 27.597656 73.824219 C 29.097656 71.582031 30.652344 69.375 32.261719 67.207031 C 33.871094 65.039062 35.535156 62.910156 37.246094 60.824219 C 38.960938 58.738281 40.726562 56.691406 42.539062 54.691406 C 44.355469 52.691406 46.214844 50.738281 48.125 48.828125 C 50.039062 46.917969 51.992188 45.058594 53.996094 43.246094 C 55.996094 41.433594 58.042969 39.671875 60.128906 37.957031 C 62.21875 36.246094 64.347656 34.585938 66.519531 32.976562 C 68.6875 31.367188 70.894531 29.8125 73.144531 28.3125 C 75.390625 26.8125 77.671875 25.371094 79.988281 23.980469 C 82.304688 22.59375 84.65625 21.265625 87.039062 19.992188 C 89.421875 18.71875 91.832031 17.503906 94.277344 16.351562 C 96.71875 15.195312 99.1875 14.101562 101.683594 13.070312 C 104.179688 12.035156 106.699219 11.066406 109.242188 10.15625 C 111.785156 9.246094 114.351562 8.398438 116.9375 7.617188 C 119.523438 6.832031 122.125 6.113281 124.746094 5.457031 C 127.367188 4.800781 130 4.210938 132.652344 3.683594 C 135.300781 3.15625 137.960938 2.695312 140.632812 2.300781 C 143.308594 1.902344 145.988281 1.574219 148.675781 1.308594 C 151.363281 1.042969 154.058594 0.84375 156.757812 0.710938 C 159.453125 0.578125 162.15625 0.511719 164.855469 0.511719 C 167.558594 0.511719 170.257812 0.578125 172.957031 0.710938 C 175.65625 0.84375 178.347656 1.042969 181.039062 1.308594 C 183.726562 1.574219 186.40625 1.902344 189.078125 2.300781 C 191.75 2.695312 194.414062 3.15625 197.0625 3.683594 C 199.710938 4.210938 202.347656 4.800781 204.96875 5.457031 C 207.589844 6.113281 210.191406 6.832031 212.777344 7.617188 C 215.363281 8.398438 217.925781 9.246094 220.46875 10.15625 C 223.015625 11.066406 225.535156 12.035156 228.03125 13.070312 C 230.527344 14.101562 232.996094 15.195312 235.4375 16.351562 C 237.878906 17.503906 240.292969 18.71875 242.675781 19.992188 C 245.058594 21.265625 247.40625 22.59375 249.726562 23.980469 C 252.042969 25.371094 254.324219 26.8125 256.570312 28.3125 C 258.816406 29.8125 261.023438 31.367188 263.195312 32.976562 C 265.363281 34.585938 267.496094 36.246094 269.582031 37.957031 C 271.671875 39.671875 273.714844 41.433594 275.71875 43.246094 C 277.71875 45.058594 279.675781 46.917969 281.585938 48.828125 C 283.496094 50.738281 285.359375 52.691406 287.171875 54.691406 C 288.988281 56.691406 290.75 58.738281 292.464844 60.824219 C 294.179688 62.910156 295.839844 65.039062 297.449219 67.207031 C 299.058594 69.375 300.613281 71.582031 302.117188 73.824219 C 303.617188 76.070312 305.0625 78.351562 306.449219 80.667969 C 307.839844 82.980469 309.171875 85.332031 310.445312 87.710938 C 311.71875 90.09375 312.933594 92.503906 314.085938 94.945312 C 315.242188 97.382812 316.335938 99.851562 317.371094 102.34375 C 318.40625 104.839844 319.378906 107.359375 320.289062 109.898438 C 321.199219 112.441406 322.042969 115.003906 322.828125 117.585938 C 323.613281 120.171875 324.332031 122.773438 324.988281 125.390625 C 325.648438 128.007812 326.238281 130.644531 326.765625 133.289062 C 327.292969 135.9375 327.753906 138.597656 328.152344 141.269531 C 328.546875 143.9375 328.878906 146.617188 329.140625 149.304688 C 329.40625 151.992188 329.605469 154.683594 329.738281 157.378906 C 329.871094 160.074219 329.9375 162.773438 329.9375 165.472656 Z M 329.9375 165.472656 " fill-opacity="1" fill-rule="nonzero"/></g></g><g clip-path="url(#4c3d1637ee)"><g clip-path="url(#f17a995092)"><path fill="#ffffff" d="M 144.914062 217.164062 C 144.914062 217.164062 90.277344 219.488281 67.027344 237.691406 C 43.777344 255.890625 22.074219 319.78125 22.074219 319.78125 C 22.074219 319.78125 134.136719 372.445312 189.902344 365.863281 C 245.671875 359.277344 284.808594 319.78125 284.808594 319.78125 C 284.808594 319.78125 246.488281 236.464844 216.257812 227.558594 C 198.039062 222.183594 179.492188 218.402344 160.621094 216.210938 " fill-opacity="1" fill-rule="nonzero"/></g></g><g clip-path="url(#3801ec6dd7)"><g clip-path="url(#af48172dc9)"><path fill="#371952" d="M 126.644531 219.667969 C 130.949219 250.953125 138.601562 353.34375 138.601562 353.34375 L 202.121094 351.027344 L 164.855469 212.5 Z M 126.644531 219.667969 " fill-opacity="1" fill-rule="nonzero"/></g></g><g clip-path="url(#3d49fbf107)"><g clip-path="url(#612a201881)"><path fill="#371952" d="M 201.191406 111.40625 C 218.113281 120.675781 203.507812 152.640625 209.074219 173.722656 C 214.636719 194.804688 213.710938 218.660156 175.460938 211.710938 C 137.207031 204.765625 116.578125 225.609375 104.753906 201.054688 C 92.929688 176.5 105.453125 139.898438 108.929688 118.355469 C 112.40625 96.8125 181.949219 75.964844 201.191406 111.40625 Z M 201.191406 111.40625 " fill-opacity="1" fill-rule="nonzero"/></g></g><g clip-path="url(#ec4a988a38)"><g clip-path="url(#af6767a6e4)"><path fill="#f7a8a7" d="M 167.292969 215.402344 C 166.652344 219.761719 166.269531 222.820312 166.269531 222.820312 C 166.269531 222.820312 168.394531 232.304688 151.152344 232.886719 C 149.933594 232.9375 148.714844 232.910156 147.5 232.800781 C 146.285156 232.691406 145.082031 232.496094 143.890625 232.226562 C 142.703125 231.953125 141.539062 231.601562 140.394531 231.171875 C 139.253906 230.742188 138.144531 230.238281 137.070312 229.65625 C 135.996094 229.078125 134.96875 228.429688 133.980469 227.710938 C 132.996094 226.992188 132.0625 226.214844 131.179688 225.367188 C 130.300781 224.523438 129.480469 223.625 128.71875 222.671875 C 127.960938 221.71875 127.269531 220.714844 126.644531 219.667969 C 126.644531 219.667969 130.433594 200.480469 132.164062 186.917969 C 132.761719 183.273438 132.824219 179.621094 132.359375 175.957031 L 173.441406 187.195312 C 171.066406 191.515625 168.621094 206.300781 167.292969 215.402344 Z M 167.292969 215.402344 " fill-opacity="1" fill-rule="nonzero"/></g></g><g clip-path="url(#0028dfd892)"><g clip-path="url(#fcd2224371)"><path fill="#f38296" d="M 173.4375 187.195312 C 171.070312 191.515625 168.621094 206.304688 167.292969 215.402344 C 148.40625 216.074219 135.679688 201.945312 132.164062 186.917969 C 132.761719 183.273438 132.824219 179.621094 132.359375 175.957031 Z M 173.4375 187.195312 " fill-opacity="1" fill-rule="nonzero"/></g></g><g clip-path="url(#166e76035d)"><g clip-path="url(#6ad0dcedae)"><path fill="#f7a8a7" d="M 195.910156 124.652344 C 175.632812 152.871094 138.945312 145.089844 138.945312 145.089844 L 134.78125 162.5 C 134.78125 162.5 128.445312 142.988281 119.039062 150.160156 C 109.632812 157.332031 118.503906 170.246094 128.871094 170.34375 C 128.871094 170.34375 137.761719 208.171875 170.691406 203.859375 C 189.898438 201.339844 195.714844 179.636719 195.910156 167.050781 C 196.105469 154.464844 195.910156 124.652344 195.910156 124.652344 Z M 195.910156 124.652344 " fill-opacity="1" fill-rule="nonzero"/></g></g><g clip-path="url(#fc94c7f37c)"><g clip-path="url(#e7a05d2c61)"><path fill="#692c8f" d="M 291.582031 360.054688 L 127.664062 360.054688 C 122.125 360.054688 119.246094 355.566406 121.226562 350.035156 L 159.660156 242.6875 C 160.199219 241.289062 160.925781 239.996094 161.835938 238.808594 C 162.742188 237.617188 163.800781 236.582031 165.007812 235.691406 C 166.210938 234.804688 167.519531 234.105469 168.925781 233.589844 C 170.328125 233.074219 171.78125 232.765625 173.273438 232.664062 L 337.191406 232.664062 C 342.730469 232.664062 345.609375 237.152344 343.632812 242.6875 L 305.195312 350.042969 C 304.65625 351.4375 303.929688 352.730469 303.023438 353.917969 C 302.113281 355.105469 301.054688 356.144531 299.847656 357.03125 C 298.644531 357.917969 297.335938 358.617188 295.929688 359.132812 C 294.527344 359.648438 293.074219 359.953125 291.582031 360.054688 Z M 291.582031 360.054688 " fill-opacity="1" fill-rule="nonzero"/></g></g><g clip-path="url(#434bcc0258)"><g clip-path="url(#8b0696ba43)"><path fill="#7c3b96" d="M 300.882812 360.054688 L 136.964844 360.054688 C 131.425781 360.054688 128.546875 355.566406 130.523438 350.035156 L 168.960938 242.6875 C 169.5 241.289062 170.226562 239.996094 171.132812 238.808594 C 172.042969 237.617188 173.101562 236.582031 174.308594 235.691406 C 175.511719 234.804688 176.820312 234.105469 178.222656 233.589844 C 179.628906 233.074219 181.082031 232.765625 182.574219 232.664062 L 346.492188 232.664062 C 352.03125 232.664062 354.910156 237.152344 352.933594 242.6875 L 314.496094 350.042969 C 313.957031 351.4375 313.230469 352.730469 312.324219 353.917969 C 311.414062 355.105469 310.355469 356.144531 309.148438 357.03125 C 307.945312 357.917969 306.636719 358.617188 305.230469 359.132812 C 303.828125 359.648438 302.375 359.953125 300.882812 360.054688 Z M 300.882812 360.054688 " fill-opacity="1" fill-rule="nonzero"/></g></g><g clip-path="url(#73688df826)"><path fill="#9664aa" d="M 247.757812 80.207031 L 402.867188 80.207031 C 403.527344 80.207031 404.183594 80.269531 404.832031 80.398438 C 405.480469 80.527344 406.109375 80.71875 406.722656 80.972656 C 407.332031 81.226562 407.914062 81.535156 408.460938 81.902344 C 409.011719 82.269531 409.519531 82.6875 409.988281 83.152344 C 410.457031 83.621094 410.875 84.128906 411.242188 84.679688 C 411.609375 85.230469 411.917969 85.808594 412.171875 86.417969 C 412.425781 87.03125 412.617188 87.660156 412.746094 88.308594 C 412.875 88.957031 412.941406 89.609375 412.941406 90.273438 L 412.941406 194.363281 C 412.941406 195.023438 412.875 195.679688 412.746094 196.328125 C 412.617188 196.976562 412.425781 197.605469 412.171875 198.214844 C 411.917969 198.824219 411.609375 199.40625 411.242188 199.957031 C 410.875 200.503906 410.457031 201.011719 409.988281 201.480469 C 409.519531 201.949219 409.011719 202.367188 408.460938 202.734375 C 407.914062 203.101562 407.332031 203.410156 406.722656 203.664062 C 406.109375 203.917969 405.480469 204.105469 404.832031 204.234375 C 404.183594 204.363281 403.527344 204.429688 402.867188 204.429688 L 247.757812 204.429688 C 247.09375 204.429688 246.441406 204.363281 245.792969 204.234375 C 245.144531 204.105469 244.511719 203.917969 243.902344 203.664062 C 243.289062 203.410156 242.710938 203.101562 242.160156 202.734375 C 241.609375 202.367188 241.101562 201.949219 240.632812 201.480469 C 240.167969 201.011719 239.75 200.503906 239.382812 199.957031 C 239.011719 199.40625 238.703125 198.824219 238.449219 198.214844 C 238.195312 197.605469 238.007812 196.976562 237.875 196.328125 C 237.746094 195.679688 237.683594 195.023438 237.683594 194.363281 L 237.683594 90.273438 C 237.683594 89.609375 237.746094 88.957031 237.875 88.308594 C 238.007812 87.660156 238.195312 87.03125 238.449219 86.417969 C 238.703125 85.808594 239.011719 85.230469 239.382812 84.679688 C 239.75 84.128906 240.167969 83.621094 240.632812 83.152344 C 241.101562 82.6875 241.609375 82.269531 242.160156 81.902344 C 242.710938 81.535156 243.289062 81.226562 243.902344 80.972656 C 244.511719 80.71875 245.144531 80.527344 245.792969 80.398438 C 246.441406 80.269531 247.09375 80.207031 247.757812 80.207031 Z M 247.757812 80.207031 " fill-opacity="1" fill-rule="nonzero"/></g><path fill="#ffffff" d="M 320.847656 141.519531 C 320.847656 142.449219 320.71875 143.359375 320.457031 144.25 C 320.195312 145.144531 319.8125 145.980469 319.3125 146.761719 C 318.8125 147.542969 318.210938 148.242188 317.507812 148.851562 C 316.804688 149.460938 316.035156 149.960938 315.1875 150.347656 L 281.539062 165.839844 C 281.347656 165.929688 281.148438 166.007812 280.945312 166.070312 C 280.742188 166.136719 280.535156 166.1875 280.328125 166.226562 C 280.117188 166.265625 279.90625 166.289062 279.695312 166.300781 C 279.480469 166.3125 279.269531 166.3125 279.054688 166.296875 C 278.84375 166.285156 278.632812 166.257812 278.421875 166.214844 C 278.214844 166.175781 278.007812 166.121094 277.804688 166.054688 C 277.605469 165.988281 277.40625 165.910156 277.214844 165.816406 C 277.023438 165.726562 276.835938 165.621094 276.65625 165.507812 C 276.476562 165.394531 276.304688 165.265625 276.144531 165.132812 C 275.980469 164.996094 275.824219 164.847656 275.679688 164.691406 C 275.535156 164.539062 275.398438 164.375 275.273438 164.199219 C 275.148438 164.027344 275.035156 163.847656 274.933594 163.660156 C 274.832031 163.476562 274.742188 163.28125 274.664062 163.085938 C 274.585938 162.886719 274.523438 162.683594 274.46875 162.476562 C 274.417969 162.273438 274.378906 162.0625 274.351562 161.851562 C 274.324219 161.640625 274.3125 161.429688 274.3125 161.214844 L 274.3125 161.167969 C 274.3125 160.679688 274.378906 160.203125 274.515625 159.738281 C 274.652344 159.273438 274.851562 158.835938 275.113281 158.425781 C 275.375 158.015625 275.6875 157.652344 276.054688 157.332031 C 276.421875 157.011719 276.824219 156.75 277.265625 156.546875 L 309.089844 141.820312 L 309.089844 140.734375 L 277.308594 126.390625 C 276.863281 126.1875 276.453125 125.929688 276.082031 125.609375 C 275.710938 125.289062 275.390625 124.921875 275.125 124.511719 C 274.859375 124.101562 274.65625 123.660156 274.519531 123.191406 C 274.378906 122.71875 274.3125 122.238281 274.3125 121.75 C 274.3125 121.535156 274.324219 121.324219 274.351562 121.113281 C 274.375 120.902344 274.414062 120.691406 274.46875 120.484375 C 274.519531 120.277344 274.585938 120.074219 274.664062 119.878906 C 274.742188 119.679688 274.832031 119.484375 274.933594 119.296875 C 275.035156 119.113281 275.152344 118.929688 275.277344 118.757812 C 275.402344 118.585938 275.535156 118.421875 275.679688 118.265625 C 275.828125 118.109375 275.980469 117.964844 276.144531 117.828125 C 276.308594 117.691406 276.480469 117.566406 276.664062 117.449219 C 276.84375 117.335938 277.027344 117.230469 277.222656 117.140625 C 277.414062 117.050781 277.613281 116.96875 277.816406 116.902344 C 278.019531 116.835938 278.222656 116.785156 278.433594 116.742188 C 278.644531 116.703125 278.855469 116.675781 279.066406 116.660156 C 279.28125 116.648438 279.492188 116.648438 279.707031 116.660156 C 279.917969 116.671875 280.132812 116.699219 280.339844 116.738281 C 280.550781 116.777344 280.757812 116.828125 280.960938 116.894531 C 281.164062 116.960938 281.363281 117.039062 281.554688 117.128906 L 315.210938 132.695312 C 316.054688 133.085938 316.824219 133.585938 317.523438 134.195312 C 318.222656 134.808594 318.820312 135.503906 319.320312 136.285156 C 319.820312 137.066406 320.199219 137.902344 320.457031 138.792969 C 320.71875 139.683594 320.847656 140.59375 320.847656 141.519531 Z M 320.847656 141.519531 " fill-opacity="1" fill-rule="nonzero"/><path fill="#ffffff" d="M 332.40625 162.511719 C 332.40625 162.152344 332.441406 161.796875 332.511719 161.441406 C 332.582031 161.089844 332.6875 160.746094 332.824219 160.414062 C 332.960938 160.082031 333.132812 159.765625 333.332031 159.46875 C 333.53125 159.167969 333.757812 158.890625 334.011719 158.636719 C 334.269531 158.382812 334.542969 158.15625 334.84375 157.957031 C 335.144531 157.757812 335.460938 157.589844 335.792969 157.449219 C 336.125 157.3125 336.464844 157.210938 336.820312 157.140625 C 337.171875 157.070312 337.527344 157.035156 337.890625 157.035156 L 370.835938 157.035156 C 371.199219 157.035156 371.554688 157.070312 371.90625 157.140625 C 372.261719 157.210938 372.601562 157.3125 372.933594 157.449219 C 373.269531 157.589844 373.582031 157.757812 373.882812 157.957031 C 374.183594 158.15625 374.457031 158.382812 374.714844 158.636719 C 374.96875 158.890625 375.195312 159.167969 375.394531 159.46875 C 375.59375 159.765625 375.765625 160.082031 375.902344 160.414062 C 376.039062 160.746094 376.144531 161.089844 376.214844 161.441406 C 376.285156 161.796875 376.320312 162.152344 376.320312 162.511719 C 376.320312 162.871094 376.285156 163.226562 376.214844 163.578125 C 376.144531 163.933594 376.039062 164.273438 375.902344 164.605469 C 375.765625 164.9375 375.59375 165.253906 375.394531 165.554688 C 375.195312 165.851562 374.96875 166.128906 374.714844 166.382812 C 374.457031 166.636719 374.183594 166.863281 373.882812 167.066406 C 373.582031 167.265625 373.269531 167.433594 372.933594 167.570312 C 372.601562 167.707031 372.261719 167.8125 371.90625 167.882812 C 371.554688 167.953125 371.199219 167.988281 370.835938 167.988281 L 337.886719 167.988281 C 337.527344 167.988281 337.167969 167.953125 336.816406 167.882812 C 336.464844 167.8125 336.121094 167.707031 335.789062 167.570312 C 335.457031 167.433594 335.140625 167.261719 334.84375 167.0625 C 334.542969 166.863281 334.265625 166.636719 334.011719 166.382812 C 333.757812 166.128906 333.53125 165.851562 333.332031 165.550781 C 333.132812 165.253906 332.960938 164.9375 332.824219 164.605469 C 332.6875 164.273438 332.582031 163.929688 332.511719 163.578125 C 332.441406 163.226562 332.40625 162.871094 332.40625 162.511719 Z M 332.40625 162.511719 " fill-opacity="1" fill-rule="nonzero"/></svg>